<?xml version="1.0" encoding="UTF-8" standalone="no"?>
<!-- Created with Inkscape (http://www.inkscape.org/) -->

<svg
   xmlns:dc="http://purl.org/dc/elements/1.1/"
   xmlns:cc="http://creativecommons.org/ns#"
   xmlns:rdf="http://www.w3.org/1999/02/22-rdf-syntax-ns#"
   xmlns:svg="http://www.w3.org/2000/svg"
   xmlns="http://www.w3.org/2000/svg"
   xmlns:sodipodi="http://sodipodi.sourceforge.net/DTD/sodipodi-0.dtd"
   xmlns:inkscape="http://www.inkscape.org/namespaces/inkscape"
   width="69.0mm"
   height="66.0mm"
   viewBox="0 0 69.0 66.0"
   id="svg2"
   version="1.1"
   inkscape:version="0.91 r13725"
   sodipodi:docname="kiryby_layers.svg">
  <sodipodi:namedview
     id="base"
     pagecolor="#ffffff"
     bordercolor="#666666"
     borderopacity="1.0"
     inkscape:pageopacity="0.0"
     inkscape:pageshadow="2"
     inkscape:zoom="5.6"
     inkscape:cx="122.85681"
     inkscape:cy="136.32321"
     inkscape:document-units="mm"
     inkscape:current-layer="g4160"
     showgrid="true"
     inkscape:window-width="2560"
     inkscape:window-height="1387"
     inkscape:window-x="0"
     inkscape:window-y="302"
     inkscape:window-maximized="1"
     borderlayer="true">
    <inkscape:grid
       type="xygrid"
       id="grid4175"
       units="mm"
       spacingx="1"
       spacingy="1" />
  </sodipodi:namedview>
  <defs
     id="defs4" />
  <metadata
     id="metadata7">
    <rdf:RDF>
      <cc:Work
         rdf:about="">
        <dc:format>image/svg+xml</dc:format>
        <dc:type
           rdf:resource="http://purl.org/dc/dcmitype/StillImage" />
        <dc:title></dc:title>
      </cc:Work>
    </rdf:RDF>
  </metadata>
  <g
     id="g4142"
     sodipodi:insensitive="true"
     inkscape:groupmode="layer"
     inkscape:label="[fixed] BG">
    <rect
       id="rect4144"
       style="stroke:none;fill-opacity:1;fill:#FFFFFF"
       height="66.0"
       width="69.0"
       y="0"
       x="0" />
  </g>
  <g
     id="g4146"
     inkscape:groupmode="layer"
     inkscape:label="Edge.Cuts" />
  <g
     id="g4148"
     inkscape:groupmode="layer"
     inkscape:label="B.Cu-disabled" />
  <g
     id="g4150"
     inkscape:groupmode="layer"
     inkscape:label="B.Mask-disabled" />
  <g
     id="g4152"
     inkscape:groupmode="layer"
     inkscape:label="B.Silk-disabled" />
  <g
     id="g4154"
     inkscape:groupmode="layer"
     inkscape:label="F.Cu" />
  <g
     id="g4156"
     inkscape:groupmode="layer"
     inkscape:label="F.Mask-disabled" />
  <g
     id="g4158"
     inkscape:groupmode="layer"
     inkscape:label="F.Silk-disabled" />
  <g
     id="g4160"
     inkscape:groupmode="layer"
     inkscape:label="Drill">
    <g
       id="g4502"
       transform="matrix(3.7795276,0,0,3.7795276,-86.929135,-96.519679)">
      <path
         style="fill:#fbfdfb"
         d="M 23,34.268748 23,25.537498 32.128125,25.537498 41.25625,25.537498 41.25625,34.268748 41.25625,42.999998 32.128125,42.999998 23,42.999998 23,34.268748 Z"
         id="path4510"
         inkscape:connector-curvature="0" />
      <path
         style="fill:#fbc1e3"
         d="M 24.5875,42.603123 24.5875,42.206248 24.190625,42.206248 23.79375,42.206248 23.79375,41.412498 23.79375,40.618748 24.190625,40.618748 24.5875,40.618748 24.5875,40.221873 24.5875,39.824998 24.984375,39.824998 25.38125,39.824998 25.38125,39.031248 25.38125,38.237498 24.984375,38.237498 24.5875,38.237498 24.5875,37.443748 24.5875,36.649998 24.190625,36.649998 23.79375,36.649998 23.79375,36.253123 23.79375,35.856248 23.396875,35.856248 23,35.856248 23,33.871873 23,31.887498 23.396875,31.887498 23.79375,31.887498 23.79375,31.093748 23.79375,30.299998 24.190625,30.299998 24.5875,30.299998 24.5875,29.506248 24.5875,28.712498 24.984375,28.712498 25.38125,28.712498 25.38125,28.315623 25.38125,27.918748 25.778125,27.918748 26.175,27.918748 26.175,27.521873 26.175,27.124998 26.96875,27.124998 27.7625,27.124998 27.7625,26.728123 27.7625,26.331248 28.953125,26.331248 30.14375,26.331248 30.14375,25.934373 30.14375,25.537498 32.525,25.537498 34.90625,25.537498 34.90625,25.934373 34.90625,26.331248 35.7,26.331248 36.49375,26.331248 36.49375,26.728123 36.49375,27.124998 37.2875,27.124998 38.08125,27.124998 38.08125,27.521873 38.08125,27.918748 38.478125,27.918748 38.875,27.918748 38.875,28.315623 38.875,28.712498 39.271875,28.712498 39.66875,28.712498 39.66875,29.506248 39.66875,30.299998 40.065625,30.299998 40.4625,30.299998 40.4625,31.093748 40.4625,31.887498 40.859375,31.887498 41.25625,31.887498 41.25625,34.268748 41.25625,36.649998 40.859375,36.649998 40.4625,36.649998 40.4625,37.443748 40.4625,38.237498 40.065625,38.237498 39.66875,38.237498 39.66875,39.031248 39.66875,39.824998 40.065625,39.824998 40.4625,39.824998 40.4625,40.221873 40.4625,40.618748 40.859375,40.618748 41.25625,40.618748 41.25625,41.412498 41.25625,42.206248 40.859375,42.206248 40.4625,42.206248 40.4625,42.603123 40.4625,42.999998 38.08125,42.999998 35.7,42.999998 35.7,42.603123 35.7,42.206248 35.303125,42.206248 34.90625,42.206248 34.90625,42.603123 34.90625,42.999998 32.525,42.999998 30.14375,42.999998 30.14375,42.603123 30.14375,42.206248 29.746875,42.206248 29.35,42.206248 29.35,42.603123 29.35,42.999998 26.96875,42.999998 24.5875,42.999998 24.5875,42.603123 Z"
         id="path4508"
         inkscape:connector-curvature="0" />
      <path
         style="fill:#fb6dcb"
         d="M 24.5875,42.603123 24.5875,42.206248 24.190625,42.206248 23.79375,42.206248 23.79375,41.412498 23.79375,40.618748 24.190625,40.618748 24.5875,40.618748 24.5875,40.221873 24.5875,39.824998 24.984375,39.824998 25.38125,39.824998 25.38125,39.031248 25.38125,38.237498 24.984375,38.237498 24.5875,38.237498 24.5875,37.443748 24.5875,36.649998 24.190625,36.649998 23.79375,36.649998 23.79375,36.253123 23.79375,35.856248 23.396875,35.856248 23,35.856248 23,33.871873 23,31.887498 23.396875,31.887498 23.79375,31.887498 23.79375,31.093748 23.79375,30.299998 24.190625,30.299998 24.5875,30.299998 24.5875,29.506248 24.5875,28.712498 24.984375,28.712498 25.38125,28.712498 25.38125,28.315623 25.38125,27.918748 25.778125,27.918748 26.175,27.918748 26.175,27.521873 26.175,27.124998 26.96875,27.124998 27.7625,27.124998 27.7625,26.728123 27.7625,26.331248 28.953125,26.331248 30.14375,26.331248 30.14375,25.934373 30.14375,25.537498 32.525,25.537498 34.90625,25.537498 34.90625,25.934373 34.90625,26.331248 35.7,26.331248 36.49375,26.331248 36.49375,26.728123 36.49375,27.124998 37.2875,27.124998 38.08125,27.124998 38.08125,27.521873 38.08125,27.918748 38.478125,27.918748 38.875,27.918748 38.875,28.315623 38.875,28.712498 39.271875,28.712498 39.66875,28.712498 39.66875,29.506248 39.66875,30.299998 40.065625,30.299998 40.4625,30.299998 40.4625,31.093748 40.4625,31.887498 40.859375,31.887498 41.25625,31.887498 41.25625,34.268748 41.25625,36.649998 40.859375,36.649998 40.4625,36.649998 40.4625,37.443748 40.4625,38.237498 40.065625,38.237498 39.66875,38.237498 39.66875,39.031248 39.66875,39.824998 40.065625,39.824998 40.4625,39.824998 40.4625,40.221873 40.4625,40.618748 40.859375,40.618748 41.25625,40.618748 41.25625,41.412498 41.25625,42.206248 40.859375,42.206248 40.4625,42.206248 40.4625,42.603123 40.4625,42.999998 38.08125,42.999998 35.7,42.999998 35.7,42.603123 35.7,42.206248 35.303125,42.206248 34.90625,42.206248 34.90625,42.603123 34.90625,42.999998 32.525,42.999998 30.14375,42.999998 30.14375,42.603123 30.14375,42.206248 29.746875,42.206248 29.35,42.206248 29.35,42.603123 29.35,42.999998 26.96875,42.999998 24.5875,42.999998 24.5875,42.603123 Z M 34.1125,41.015623 34.1125,40.618748 34.90625,40.618748 35.7,40.618748 35.7,40.221873 35.7,39.824998 36.49375,39.824998 37.2875,39.824998 37.2875,39.428123 37.2875,39.031248 37.684375,39.031248 38.08125,39.031248 38.08125,38.634373 38.08125,38.237498 38.478125,38.237498 38.875,38.237498 38.875,37.443748 38.875,36.649998 39.271875,36.649998 39.66875,36.649998 39.66875,35.856248 39.66875,35.062498 40.065625,35.062498 40.4625,35.062498 40.4625,33.871873 40.4625,32.681248 40.065625,32.681248 39.66875,32.681248 39.66875,31.887498 39.66875,31.093748 39.271875,31.093748 38.875,31.093748 38.875,30.299998 38.875,29.506248 38.478125,29.506248 38.08125,29.506248 38.08125,29.109373 38.08125,28.712498 37.684375,28.712498 37.2875,28.712498 37.2875,28.315623 37.2875,27.918748 36.49375,27.918748 35.7,27.918748 35.7,27.521873 35.7,27.124998 34.90625,27.124998 34.1125,27.124998 34.1125,26.728123 34.1125,26.331248 32.525,26.331248 30.9375,26.331248 30.9375,26.728123 30.9375,27.124998 29.746875,27.124998 28.55625,27.124998 28.55625,27.521873 28.55625,27.918748 27.7625,27.918748 26.96875,27.918748 26.96875,28.315623 26.96875,28.712498 26.571875,28.712498 26.175,28.712498 26.175,29.109373 26.175,29.506248 25.778125,29.506248 25.38125,29.506248 25.38125,30.299998 25.38125,31.093748 24.984375,31.093748 24.5875,31.093748 24.5875,31.887498 24.5875,32.681248 24.190625,32.681248 23.79375,32.681248 23.79375,33.871873 23.79375,35.062498 24.190625,35.062498 24.5875,35.062498 24.5875,35.459373 24.5875,35.856248 24.984375,35.856248 25.38125,35.856248 25.38125,36.253123 25.38125,36.649998 25.778125,36.649998 26.175,36.649998 26.175,36.253123 26.175,35.856248 26.571875,35.856248 26.96875,35.856248 26.96875,35.459373 26.96875,35.062498 27.365625,35.062498 27.7625,35.062498 27.7625,36.253123 27.7625,37.443748 26.96875,37.443748 26.175,37.443748 26.175,37.840623 26.175,38.237498 26.571875,38.237498 26.96875,38.237498 26.96875,38.634373 26.96875,39.031248 27.365625,39.031248 27.7625,39.031248 27.7625,39.428123 27.7625,39.824998 28.55625,39.824998 29.35,39.824998 29.35,40.221873 29.35,40.618748 30.14375,40.618748 30.9375,40.618748 30.9375,41.015623 30.9375,41.412498 32.525,41.412498 34.1125,41.412498 34.1125,41.015623 Z M 33.31875,37.046873 33.31875,36.649998 33.715625,36.649998 34.1125,36.649998 34.1125,35.459373 34.1125,34.268748 33.715625,34.268748 33.31875,34.268748 33.31875,33.871873 33.31875,33.474998 33.715625,33.474998 34.1125,33.474998 34.1125,33.871873 34.1125,34.268748 34.509375,34.268748 34.90625,34.268748 34.90625,34.665623 34.90625,35.062498 36.096875,35.062498 37.2875,35.062498 37.2875,34.665623 37.2875,34.268748 37.684375,34.268748 38.08125,34.268748 38.08125,35.062498 38.08125,35.856248 36.49375,35.856248 34.90625,35.856248 34.90625,36.253123 34.90625,36.649998 34.509375,36.649998 34.1125,36.649998 34.1125,37.046873 34.1125,37.443748 33.715625,37.443748 33.31875,37.443748 33.31875,37.046873 Z M 30.9375,33.078123 30.9375,32.681248 31.73125,32.681248 32.525,32.681248 32.525,33.078123 32.525,33.474998 31.73125,33.474998 30.9375,33.474998 30.9375,33.078123 Z M 38.08125,33.078123 38.08125,32.681248 38.875,32.681248 39.66875,32.681248 39.66875,33.078123 39.66875,33.474998 38.875,33.474998 38.08125,33.474998 38.08125,33.078123 Z M 34.90625,31.490623 34.90625,30.299998 35.303125,30.299998 35.7,30.299998 35.7,31.490623 35.7,32.681248 35.303125,32.681248 34.90625,32.681248 34.90625,31.490623 Z M 36.49375,31.490623 36.49375,30.299998 36.890625,30.299998 37.2875,30.299998 37.2875,31.490623 37.2875,32.681248 36.890625,32.681248 36.49375,32.681248 36.49375,31.490623 Z"
         id="path4506"
         inkscape:connector-curvature="0" />
      <path
         style="fill:#030103"
         d="M 24.5875,42.603123 24.5875,42.206248 24.190625,42.206248 23.79375,42.206248 23.79375,41.412498 23.79375,40.618748 24.190625,40.618748 24.5875,40.618748 24.5875,40.221873 24.5875,39.824998 24.984375,39.824998 25.38125,39.824998 25.38125,39.031248 25.38125,38.237498 24.984375,38.237498 24.5875,38.237498 24.5875,37.443748 24.5875,36.649998 24.190625,36.649998 23.79375,36.649998 23.79375,36.253123 23.79375,35.856248 23.396875,35.856248 23,35.856248 23,33.871873 23,31.887498 23.396875,31.887498 23.79375,31.887498 23.79375,31.093748 23.79375,30.299998 24.190625,30.299998 24.5875,30.299998 24.5875,29.506248 24.5875,28.712498 24.984375,28.712498 25.38125,28.712498 25.38125,28.315623 25.38125,27.918748 25.778125,27.918748 26.175,27.918748 26.175,27.521873 26.175,27.124998 26.96875,27.124998 27.7625,27.124998 27.7625,26.728123 27.7625,26.331248 28.953125,26.331248 30.14375,26.331248 30.14375,25.934373 30.14375,25.537498 32.525,25.537498 34.90625,25.537498 34.90625,25.934373 34.90625,26.331248 35.7,26.331248 36.49375,26.331248 36.49375,26.728123 36.49375,27.124998 37.2875,27.124998 38.08125,27.124998 38.08125,27.521873 38.08125,27.918748 38.478125,27.918748 38.875,27.918748 38.875,28.315623 38.875,28.712498 39.271875,28.712498 39.66875,28.712498 39.66875,29.506248 39.66875,30.299998 40.065625,30.299998 40.4625,30.299998 40.4625,31.093748 40.4625,31.887498 40.859375,31.887498 41.25625,31.887498 41.25625,34.268748 41.25625,36.649998 40.859375,36.649998 40.4625,36.649998 40.4625,37.443748 40.4625,38.237498 40.065625,38.237498 39.66875,38.237498 39.66875,39.031248 39.66875,39.824998 40.065625,39.824998 40.4625,39.824998 40.4625,40.221873 40.4625,40.618748 40.859375,40.618748 41.25625,40.618748 41.25625,41.412498 41.25625,42.206248 40.859375,42.206248 40.4625,42.206248 40.4625,42.603123 40.4625,42.999998 38.08125,42.999998 35.7,42.999998 35.7,42.603123 35.7,42.206248 35.303125,42.206248 34.90625,42.206248 34.90625,42.603123 34.90625,42.999998 32.525,42.999998 30.14375,42.999998 30.14375,42.603123 30.14375,42.206248 29.746875,42.206248 29.35,42.206248 29.35,42.603123 29.35,42.999998 26.96875,42.999998 24.5875,42.999998 24.5875,42.603123 Z M 28.55625,41.809373 28.55625,41.412498 29.35,41.412498 30.14375,41.412498 30.14375,41.809373 30.14375,42.206248 32.525,42.206248 34.90625,42.206248 34.90625,41.809373 34.90625,41.412498 35.7,41.412498 36.49375,41.412498 36.49375,41.809373 36.49375,42.206248 38.478125,42.206248 40.4625,42.206248 40.4625,41.412498 40.4625,40.618748 40.065625,40.618748 39.66875,40.618748 39.66875,40.221873 39.66875,39.824998 39.271875,39.824998 38.875,39.824998 38.875,40.221873 38.875,40.618748 38.478125,40.618748 38.08125,40.618748 38.08125,41.015623 38.08125,41.412498 37.2875,41.412498 36.49375,41.412498 36.49375,41.015623 36.49375,40.618748 37.2875,40.618748 38.08125,40.618748 38.08125,40.221873 38.08125,39.824998 38.478125,39.824998 38.875,39.824998 38.875,39.031248 38.875,38.237498 39.271875,38.237498 39.66875,38.237498 39.66875,37.443748 39.66875,36.649998 40.065625,36.649998 40.4625,36.649998 40.4625,34.268748 40.4625,31.887498 40.065625,31.887498 39.66875,31.887498 39.66875,31.093748 39.66875,30.299998 39.271875,30.299998 38.875,30.299998 38.875,29.506248 38.875,28.712498 38.478125,28.712498 38.08125,28.712498 38.08125,28.315623 38.08125,27.918748 37.2875,27.918748 36.49375,27.918748 36.49375,27.521873 36.49375,27.124998 35.7,27.124998 34.90625,27.124998 34.90625,26.728123 34.90625,26.331248 32.525,26.331248 30.14375,26.331248 30.14375,26.728123 30.14375,27.124998 28.953125,27.124998 27.7625,27.124998 27.7625,27.521873 27.7625,27.918748 26.96875,27.918748 26.175,27.918748 26.175,28.315623 26.175,28.712498 25.778125,28.712498 25.38125,28.712498 25.38125,29.506248 25.38125,30.299998 24.984375,30.299998 24.5875,30.299998 24.5875,31.093748 24.5875,31.887498 24.190625,31.887498 23.79375,31.887498 23.79375,33.871873 23.79375,35.856248 24.190625,35.856248 24.5875,35.856248 24.5875,36.253123 24.5875,36.649998 25.778125,36.649998 26.96875,36.649998 26.96875,36.253123 26.96875,35.856248 27.365625,35.856248 27.7625,35.856248 27.7625,36.253123 27.7625,36.649998 27.365625,36.649998 26.96875,36.649998 26.96875,37.046873 26.96875,37.443748 26.175,37.443748 25.38125,37.443748 25.38125,37.840623 25.38125,38.237498 25.778125,38.237498 26.175,38.237498 26.175,39.031248 26.175,39.824998 26.571875,39.824998 26.96875,39.824998 26.96875,40.221873 26.96875,40.618748 27.7625,40.618748 28.55625,40.618748 28.55625,41.015623 28.55625,41.412498 27.7625,41.412498 26.96875,41.412498 26.96875,41.015623 26.96875,40.618748 26.571875,40.618748 26.175,40.618748 26.175,40.221873 26.175,39.824998 25.778125,39.824998 25.38125,39.824998 25.38125,40.221873 25.38125,40.618748 24.984375,40.618748 24.5875,40.618748 24.5875,41.412498 24.5875,42.206248 26.571875,42.206248 28.55625,42.206248 28.55625,41.809373 Z M 33.31875,37.046873 33.31875,36.649998 33.715625,36.649998 34.1125,36.649998 34.1125,35.459373 34.1125,34.268748 33.715625,34.268748 33.31875,34.268748 33.31875,33.871873 33.31875,33.474998 33.715625,33.474998 34.1125,33.474998 34.1125,33.871873 34.1125,34.268748 34.509375,34.268748 34.90625,34.268748 34.90625,34.665623 34.90625,35.062498 36.49375,35.062498 38.08125,35.062498 38.08125,35.459373 38.08125,35.856248 36.49375,35.856248 34.90625,35.856248 34.90625,36.253123 34.90625,36.649998 34.509375,36.649998 34.1125,36.649998 34.1125,37.046873 34.1125,37.443748 33.715625,37.443748 33.31875,37.443748 33.31875,37.046873 Z M 34.90625,31.490623 34.90625,30.299998 35.303125,30.299998 35.7,30.299998 35.7,31.490623 35.7,32.681248 35.303125,32.681248 34.90625,32.681248 34.90625,31.490623 Z M 36.49375,31.490623 36.49375,30.299998 36.890625,30.299998 37.2875,30.299998 37.2875,31.490623 37.2875,32.681248 36.890625,32.681248 36.49375,32.681248 36.49375,31.490623 Z"
         id="path4504"
         inkscape:connector-curvature="0" />
    </g>
  </g>
</svg>
