G04 #@! TF.GenerationSoftware,KiCad,Pcbnew,5.1.2-f72e74a~84~ubuntu16.04.1*
G04 #@! TF.CreationDate,2019-07-01T21:57:51-07:00*
G04 #@! TF.ProjectId,Kirby_SAO,4b697262-795f-4534-914f-2e6b69636164,rev?*
G04 #@! TF.SameCoordinates,Original*
G04 #@! TF.FileFunction,Copper,L1,Top*
G04 #@! TF.FilePolarity,Positive*
%FSLAX46Y46*%
G04 Gerber Fmt 4.6, Leading zero omitted, Abs format (unit mm)*
G04 Created by KiCad (PCBNEW 5.1.2-f72e74a~84~ubuntu16.04.1) date 2019-07-01 21:57:51*
%MOMM*%
%LPD*%
G04 APERTURE LIST*
%ADD10C,0.010000*%
%ADD11R,1.727200X1.727200*%
%ADD12O,1.727200X1.727200*%
%ADD13C,1.727200*%
%ADD14C,0.025400*%
G04 APERTURE END LIST*
D10*
G36*
X107027333Y-79997500D02*
G01*
X111027833Y-79997500D01*
X111027833Y-82008334D01*
X115028333Y-82008334D01*
X115028333Y-83998000D01*
X117018000Y-83998000D01*
X117018000Y-86008834D01*
X119028833Y-86008834D01*
X119028833Y-89987748D01*
X120018375Y-89993249D01*
X121007916Y-89998750D01*
X121018714Y-94009834D01*
X123008166Y-94009834D01*
X123008166Y-106032500D01*
X121018500Y-106032500D01*
X121018505Y-108027459D01*
X121018511Y-110022417D01*
X119028833Y-110011017D01*
X119028833Y-113991167D01*
X121018500Y-113991167D01*
X121018500Y-116002000D01*
X123008166Y-116002000D01*
X123008166Y-120023667D01*
X121018500Y-120023667D01*
X121018500Y-122013334D01*
X108995833Y-122013334D01*
X108995833Y-120023667D01*
X107027333Y-120023667D01*
X107027333Y-122013334D01*
X95004666Y-122013334D01*
X95004666Y-120023667D01*
X93015000Y-120023667D01*
X93015000Y-122013334D01*
X80992333Y-122013334D01*
X80992333Y-120023667D01*
X79002666Y-120023667D01*
X79002666Y-116023167D01*
X81013500Y-116023167D01*
X81013500Y-120002500D01*
X91004166Y-120002500D01*
X91004166Y-118012834D01*
X87003666Y-118012834D01*
X87003666Y-116023167D01*
X84992833Y-116023167D01*
X84992833Y-114012334D01*
X83024333Y-114012334D01*
X83024333Y-116023167D01*
X81013500Y-116023167D01*
X79002666Y-116023167D01*
X79002666Y-116002000D01*
X80991918Y-116002000D01*
X81002916Y-114001750D01*
X83003166Y-113990752D01*
X83003166Y-110011834D01*
X80992333Y-110011834D01*
X80992333Y-108022167D01*
X83024333Y-108022167D01*
X83024333Y-110011834D01*
X84992833Y-110011834D01*
X85014000Y-110011834D01*
X85014000Y-113990752D01*
X87014250Y-114001750D01*
X87019748Y-115001875D01*
X87025247Y-116002000D01*
X91025333Y-116002000D01*
X91025333Y-118012834D01*
X95025833Y-118012834D01*
X95025833Y-120002500D01*
X107006166Y-120002500D01*
X107006166Y-118012834D01*
X111006666Y-118012834D01*
X111027833Y-118012834D01*
X111027833Y-120002500D01*
X120997333Y-120002500D01*
X120997333Y-116023167D01*
X119007666Y-116023167D01*
X119007666Y-114012334D01*
X117018000Y-114012334D01*
X117018000Y-116023167D01*
X115028333Y-116023167D01*
X115028333Y-118012834D01*
X111027833Y-118012834D01*
X111006666Y-118012834D01*
X111006666Y-116002000D01*
X115007166Y-116002000D01*
X115007166Y-113991167D01*
X116996833Y-113991167D01*
X116996833Y-110011834D01*
X115028333Y-110011834D01*
X115028333Y-112022667D01*
X113017500Y-112022667D01*
X113017500Y-114012334D01*
X109017000Y-114012334D01*
X109017000Y-116023167D01*
X105016500Y-116023167D01*
X105016500Y-118012834D01*
X96994333Y-118012834D01*
X96994333Y-116023167D01*
X92993833Y-116023167D01*
X92993833Y-114012334D01*
X88993333Y-114012334D01*
X88993333Y-112022667D01*
X87003666Y-112022667D01*
X87003666Y-110011834D01*
X85014000Y-110011834D01*
X84992833Y-110011834D01*
X84992833Y-108022167D01*
X83024333Y-108022167D01*
X80992333Y-108022167D01*
X80992333Y-106032919D01*
X80916962Y-106032500D01*
X87024833Y-106032500D01*
X87024833Y-108001000D01*
X88993333Y-108001000D01*
X88993333Y-106032500D01*
X87024833Y-106032500D01*
X80916962Y-106032500D01*
X80002791Y-106027418D01*
X79013250Y-106021917D01*
X79002252Y-104021667D01*
X81013500Y-104021667D01*
X81013500Y-106011334D01*
X83003166Y-106011334D01*
X83003166Y-104021667D01*
X85014000Y-104021667D01*
X85014000Y-106011334D01*
X87003666Y-106011334D01*
X87003666Y-104021667D01*
X85014000Y-104021667D01*
X83003166Y-104021667D01*
X81013500Y-104021667D01*
X79002252Y-104021667D01*
X77013000Y-104021667D01*
X77013000Y-102010834D01*
X79023833Y-102010834D01*
X79023833Y-104000500D01*
X80992333Y-104000500D01*
X80992333Y-102010834D01*
X87024833Y-102010834D01*
X87024833Y-104000500D01*
X88993333Y-104000500D01*
X88993333Y-103026834D01*
X95025833Y-103026834D01*
X95025833Y-108995834D01*
X103005666Y-108995834D01*
X103005666Y-106032500D01*
X117018000Y-106032500D01*
X117018000Y-110011834D01*
X119007666Y-110011834D01*
X119007666Y-106032500D01*
X117018000Y-106032500D01*
X103005666Y-106032500D01*
X103005666Y-103026834D01*
X95025833Y-103026834D01*
X88993333Y-103026834D01*
X88993333Y-102010834D01*
X119028833Y-102010834D01*
X119028833Y-106011334D01*
X120997333Y-106011334D01*
X120997333Y-102010834D01*
X119028833Y-102010834D01*
X88993333Y-102010834D01*
X87024833Y-102010834D01*
X80992333Y-102010834D01*
X79023833Y-102010834D01*
X77013000Y-102010834D01*
X77013000Y-100021167D01*
X113017500Y-100021167D01*
X113017500Y-101989667D01*
X115007166Y-101989667D01*
X115007166Y-100021167D01*
X113017500Y-100021167D01*
X77013000Y-100021167D01*
X77013000Y-96020667D01*
X97015500Y-96020667D01*
X97015500Y-98010334D01*
X100994833Y-98010334D01*
X100994833Y-96020667D01*
X115028333Y-96020667D01*
X115028333Y-98010334D01*
X119007666Y-98010334D01*
X119007666Y-96020667D01*
X115028333Y-96020667D01*
X100994833Y-96020667D01*
X97015500Y-96020667D01*
X77013000Y-96020667D01*
X77013000Y-94031000D01*
X79023833Y-94031000D01*
X79023833Y-95999500D01*
X80992333Y-95999500D01*
X80992333Y-94031000D01*
X119028833Y-94031000D01*
X119028833Y-95999500D01*
X120997333Y-95999500D01*
X120997333Y-94031000D01*
X119028833Y-94031000D01*
X80992333Y-94031000D01*
X79023833Y-94031000D01*
X77013000Y-94031000D01*
X77013000Y-94009834D01*
X79002451Y-94009834D01*
X79007850Y-92004292D01*
X79013221Y-90009334D01*
X81013500Y-90009334D01*
X81013500Y-91999000D01*
X83003166Y-91999000D01*
X83003166Y-90009334D01*
X117018000Y-90009334D01*
X117018000Y-91999000D01*
X119007666Y-91999000D01*
X119007666Y-90009334D01*
X117018000Y-90009334D01*
X83003166Y-90009334D01*
X81013500Y-90009334D01*
X79013221Y-90009334D01*
X79013250Y-89998750D01*
X80002791Y-89993249D01*
X80992333Y-89987748D01*
X80992333Y-86030000D01*
X83024333Y-86030000D01*
X83024333Y-87998500D01*
X84992833Y-87998500D01*
X84992833Y-86030000D01*
X115028333Y-86030000D01*
X115028333Y-87998500D01*
X116996833Y-87998500D01*
X116996833Y-86030000D01*
X115028333Y-86030000D01*
X84992833Y-86030000D01*
X83024333Y-86030000D01*
X80992333Y-86030000D01*
X80992333Y-86008834D01*
X83003166Y-86008834D01*
X83003166Y-84019167D01*
X85014000Y-84019167D01*
X85014000Y-86008834D01*
X87003666Y-86008834D01*
X87003666Y-84019167D01*
X113017500Y-84019167D01*
X113017500Y-86008834D01*
X115007166Y-86008834D01*
X115007166Y-84019167D01*
X113017500Y-84019167D01*
X87003666Y-84019167D01*
X85014000Y-84019167D01*
X83003166Y-84019167D01*
X83003166Y-83998000D01*
X84992833Y-83998000D01*
X84992833Y-82029500D01*
X89014500Y-82029500D01*
X89014500Y-83998000D01*
X91004166Y-83998000D01*
X91004166Y-82029500D01*
X109017000Y-82029500D01*
X109017000Y-83998000D01*
X111006666Y-83998000D01*
X111006666Y-82029500D01*
X109017000Y-82029500D01*
X91004166Y-82029500D01*
X89014500Y-82029500D01*
X84992833Y-82029500D01*
X84992833Y-82008334D01*
X88993333Y-82008334D01*
X88993333Y-80018667D01*
X95025833Y-80018667D01*
X95025833Y-82008334D01*
X96994333Y-82008334D01*
X96994333Y-80018667D01*
X105016500Y-80018667D01*
X105016500Y-82008334D01*
X107006166Y-82008334D01*
X107006166Y-80018667D01*
X105016500Y-80018667D01*
X96994333Y-80018667D01*
X95025833Y-80018667D01*
X88993333Y-80018667D01*
X88993333Y-79997500D01*
X95004666Y-79997500D01*
X95004666Y-78007834D01*
X107027333Y-78007834D01*
X107027333Y-79997500D01*
X107027333Y-79997500D01*
G37*
X107027333Y-79997500D02*
X111027833Y-79997500D01*
X111027833Y-82008334D01*
X115028333Y-82008334D01*
X115028333Y-83998000D01*
X117018000Y-83998000D01*
X117018000Y-86008834D01*
X119028833Y-86008834D01*
X119028833Y-89987748D01*
X120018375Y-89993249D01*
X121007916Y-89998750D01*
X121018714Y-94009834D01*
X123008166Y-94009834D01*
X123008166Y-106032500D01*
X121018500Y-106032500D01*
X121018505Y-108027459D01*
X121018511Y-110022417D01*
X119028833Y-110011017D01*
X119028833Y-113991167D01*
X121018500Y-113991167D01*
X121018500Y-116002000D01*
X123008166Y-116002000D01*
X123008166Y-120023667D01*
X121018500Y-120023667D01*
X121018500Y-122013334D01*
X108995833Y-122013334D01*
X108995833Y-120023667D01*
X107027333Y-120023667D01*
X107027333Y-122013334D01*
X95004666Y-122013334D01*
X95004666Y-120023667D01*
X93015000Y-120023667D01*
X93015000Y-122013334D01*
X80992333Y-122013334D01*
X80992333Y-120023667D01*
X79002666Y-120023667D01*
X79002666Y-116023167D01*
X81013500Y-116023167D01*
X81013500Y-120002500D01*
X91004166Y-120002500D01*
X91004166Y-118012834D01*
X87003666Y-118012834D01*
X87003666Y-116023167D01*
X84992833Y-116023167D01*
X84992833Y-114012334D01*
X83024333Y-114012334D01*
X83024333Y-116023167D01*
X81013500Y-116023167D01*
X79002666Y-116023167D01*
X79002666Y-116002000D01*
X80991918Y-116002000D01*
X81002916Y-114001750D01*
X83003166Y-113990752D01*
X83003166Y-110011834D01*
X80992333Y-110011834D01*
X80992333Y-108022167D01*
X83024333Y-108022167D01*
X83024333Y-110011834D01*
X84992833Y-110011834D01*
X85014000Y-110011834D01*
X85014000Y-113990752D01*
X87014250Y-114001750D01*
X87019748Y-115001875D01*
X87025247Y-116002000D01*
X91025333Y-116002000D01*
X91025333Y-118012834D01*
X95025833Y-118012834D01*
X95025833Y-120002500D01*
X107006166Y-120002500D01*
X107006166Y-118012834D01*
X111006666Y-118012834D01*
X111027833Y-118012834D01*
X111027833Y-120002500D01*
X120997333Y-120002500D01*
X120997333Y-116023167D01*
X119007666Y-116023167D01*
X119007666Y-114012334D01*
X117018000Y-114012334D01*
X117018000Y-116023167D01*
X115028333Y-116023167D01*
X115028333Y-118012834D01*
X111027833Y-118012834D01*
X111006666Y-118012834D01*
X111006666Y-116002000D01*
X115007166Y-116002000D01*
X115007166Y-113991167D01*
X116996833Y-113991167D01*
X116996833Y-110011834D01*
X115028333Y-110011834D01*
X115028333Y-112022667D01*
X113017500Y-112022667D01*
X113017500Y-114012334D01*
X109017000Y-114012334D01*
X109017000Y-116023167D01*
X105016500Y-116023167D01*
X105016500Y-118012834D01*
X96994333Y-118012834D01*
X96994333Y-116023167D01*
X92993833Y-116023167D01*
X92993833Y-114012334D01*
X88993333Y-114012334D01*
X88993333Y-112022667D01*
X87003666Y-112022667D01*
X87003666Y-110011834D01*
X85014000Y-110011834D01*
X84992833Y-110011834D01*
X84992833Y-108022167D01*
X83024333Y-108022167D01*
X80992333Y-108022167D01*
X80992333Y-106032919D01*
X80916962Y-106032500D01*
X87024833Y-106032500D01*
X87024833Y-108001000D01*
X88993333Y-108001000D01*
X88993333Y-106032500D01*
X87024833Y-106032500D01*
X80916962Y-106032500D01*
X80002791Y-106027418D01*
X79013250Y-106021917D01*
X79002252Y-104021667D01*
X81013500Y-104021667D01*
X81013500Y-106011334D01*
X83003166Y-106011334D01*
X83003166Y-104021667D01*
X85014000Y-104021667D01*
X85014000Y-106011334D01*
X87003666Y-106011334D01*
X87003666Y-104021667D01*
X85014000Y-104021667D01*
X83003166Y-104021667D01*
X81013500Y-104021667D01*
X79002252Y-104021667D01*
X77013000Y-104021667D01*
X77013000Y-102010834D01*
X79023833Y-102010834D01*
X79023833Y-104000500D01*
X80992333Y-104000500D01*
X80992333Y-102010834D01*
X87024833Y-102010834D01*
X87024833Y-104000500D01*
X88993333Y-104000500D01*
X88993333Y-103026834D01*
X95025833Y-103026834D01*
X95025833Y-108995834D01*
X103005666Y-108995834D01*
X103005666Y-106032500D01*
X117018000Y-106032500D01*
X117018000Y-110011834D01*
X119007666Y-110011834D01*
X119007666Y-106032500D01*
X117018000Y-106032500D01*
X103005666Y-106032500D01*
X103005666Y-103026834D01*
X95025833Y-103026834D01*
X88993333Y-103026834D01*
X88993333Y-102010834D01*
X119028833Y-102010834D01*
X119028833Y-106011334D01*
X120997333Y-106011334D01*
X120997333Y-102010834D01*
X119028833Y-102010834D01*
X88993333Y-102010834D01*
X87024833Y-102010834D01*
X80992333Y-102010834D01*
X79023833Y-102010834D01*
X77013000Y-102010834D01*
X77013000Y-100021167D01*
X113017500Y-100021167D01*
X113017500Y-101989667D01*
X115007166Y-101989667D01*
X115007166Y-100021167D01*
X113017500Y-100021167D01*
X77013000Y-100021167D01*
X77013000Y-96020667D01*
X97015500Y-96020667D01*
X97015500Y-98010334D01*
X100994833Y-98010334D01*
X100994833Y-96020667D01*
X115028333Y-96020667D01*
X115028333Y-98010334D01*
X119007666Y-98010334D01*
X119007666Y-96020667D01*
X115028333Y-96020667D01*
X100994833Y-96020667D01*
X97015500Y-96020667D01*
X77013000Y-96020667D01*
X77013000Y-94031000D01*
X79023833Y-94031000D01*
X79023833Y-95999500D01*
X80992333Y-95999500D01*
X80992333Y-94031000D01*
X119028833Y-94031000D01*
X119028833Y-95999500D01*
X120997333Y-95999500D01*
X120997333Y-94031000D01*
X119028833Y-94031000D01*
X80992333Y-94031000D01*
X79023833Y-94031000D01*
X77013000Y-94031000D01*
X77013000Y-94009834D01*
X79002451Y-94009834D01*
X79007850Y-92004292D01*
X79013221Y-90009334D01*
X81013500Y-90009334D01*
X81013500Y-91999000D01*
X83003166Y-91999000D01*
X83003166Y-90009334D01*
X117018000Y-90009334D01*
X117018000Y-91999000D01*
X119007666Y-91999000D01*
X119007666Y-90009334D01*
X117018000Y-90009334D01*
X83003166Y-90009334D01*
X81013500Y-90009334D01*
X79013221Y-90009334D01*
X79013250Y-89998750D01*
X80002791Y-89993249D01*
X80992333Y-89987748D01*
X80992333Y-86030000D01*
X83024333Y-86030000D01*
X83024333Y-87998500D01*
X84992833Y-87998500D01*
X84992833Y-86030000D01*
X115028333Y-86030000D01*
X115028333Y-87998500D01*
X116996833Y-87998500D01*
X116996833Y-86030000D01*
X115028333Y-86030000D01*
X84992833Y-86030000D01*
X83024333Y-86030000D01*
X80992333Y-86030000D01*
X80992333Y-86008834D01*
X83003166Y-86008834D01*
X83003166Y-84019167D01*
X85014000Y-84019167D01*
X85014000Y-86008834D01*
X87003666Y-86008834D01*
X87003666Y-84019167D01*
X113017500Y-84019167D01*
X113017500Y-86008834D01*
X115007166Y-86008834D01*
X115007166Y-84019167D01*
X113017500Y-84019167D01*
X87003666Y-84019167D01*
X85014000Y-84019167D01*
X83003166Y-84019167D01*
X83003166Y-83998000D01*
X84992833Y-83998000D01*
X84992833Y-82029500D01*
X89014500Y-82029500D01*
X89014500Y-83998000D01*
X91004166Y-83998000D01*
X91004166Y-82029500D01*
X109017000Y-82029500D01*
X109017000Y-83998000D01*
X111006666Y-83998000D01*
X111006666Y-82029500D01*
X109017000Y-82029500D01*
X91004166Y-82029500D01*
X89014500Y-82029500D01*
X84992833Y-82029500D01*
X84992833Y-82008334D01*
X88993333Y-82008334D01*
X88993333Y-80018667D01*
X95025833Y-80018667D01*
X95025833Y-82008334D01*
X96994333Y-82008334D01*
X96994333Y-80018667D01*
X105016500Y-80018667D01*
X105016500Y-82008334D01*
X107006166Y-82008334D01*
X107006166Y-80018667D01*
X105016500Y-80018667D01*
X96994333Y-80018667D01*
X95025833Y-80018667D01*
X88993333Y-80018667D01*
X88993333Y-79997500D01*
X95004666Y-79997500D01*
X95004666Y-78007834D01*
X107027333Y-78007834D01*
X107027333Y-79997500D01*
D11*
X96520000Y-107290000D03*
D12*
X96520000Y-104750000D03*
X99060000Y-107290000D03*
X99060000Y-104750000D03*
D13*
X101600000Y-107290000D03*
X101600000Y-104750000D03*
D14*
G36*
X102987300Y-108987300D02*
G01*
X95012700Y-108987300D01*
X95012700Y-108153600D01*
X95133181Y-108153600D01*
X95143235Y-108255675D01*
X95173009Y-108353827D01*
X95221359Y-108444285D01*
X95286428Y-108523572D01*
X95365715Y-108588641D01*
X95456173Y-108636991D01*
X95554325Y-108666765D01*
X95656400Y-108676819D01*
X96148525Y-108674300D01*
X96278700Y-108544125D01*
X96278700Y-107531300D01*
X96761300Y-107531300D01*
X96761300Y-108544125D01*
X96891475Y-108674300D01*
X97383600Y-108676819D01*
X97485675Y-108666765D01*
X97583827Y-108636991D01*
X97674285Y-108588641D01*
X97753572Y-108523572D01*
X97818641Y-108444285D01*
X97866991Y-108353827D01*
X97896765Y-108255675D01*
X97906819Y-108153600D01*
X97904300Y-107661475D01*
X97774125Y-107531300D01*
X96761300Y-107531300D01*
X96278700Y-107531300D01*
X95265875Y-107531300D01*
X95135700Y-107661475D01*
X95133181Y-108153600D01*
X95012700Y-108153600D01*
X95012700Y-107290000D01*
X98000800Y-107290000D01*
X98021152Y-107496640D01*
X98081427Y-107695338D01*
X98179307Y-107878460D01*
X98311032Y-108038968D01*
X98471540Y-108170693D01*
X98654662Y-108268573D01*
X98853360Y-108328848D01*
X99008218Y-108344100D01*
X99111782Y-108344100D01*
X99266640Y-108328848D01*
X99465338Y-108268573D01*
X99648460Y-108170693D01*
X99808968Y-108038968D01*
X99940693Y-107878460D01*
X100038573Y-107695338D01*
X100098848Y-107496640D01*
X100119200Y-107290000D01*
X100108975Y-107186180D01*
X100545900Y-107186180D01*
X100545900Y-107393820D01*
X100586409Y-107597470D01*
X100665869Y-107789303D01*
X100781227Y-107961949D01*
X100928051Y-108108773D01*
X101100697Y-108224131D01*
X101292530Y-108303591D01*
X101496180Y-108344100D01*
X101703820Y-108344100D01*
X101907470Y-108303591D01*
X102099303Y-108224131D01*
X102271949Y-108108773D01*
X102418773Y-107961949D01*
X102534131Y-107789303D01*
X102613591Y-107597470D01*
X102654100Y-107393820D01*
X102654100Y-107186180D01*
X102613591Y-106982530D01*
X102534131Y-106790697D01*
X102418773Y-106618051D01*
X102271949Y-106471227D01*
X102099303Y-106355869D01*
X101907470Y-106276409D01*
X101703820Y-106235900D01*
X101496180Y-106235900D01*
X101292530Y-106276409D01*
X101100697Y-106355869D01*
X100928051Y-106471227D01*
X100781227Y-106618051D01*
X100665869Y-106790697D01*
X100586409Y-106982530D01*
X100545900Y-107186180D01*
X100108975Y-107186180D01*
X100098848Y-107083360D01*
X100038573Y-106884662D01*
X99940693Y-106701540D01*
X99808968Y-106541032D01*
X99648460Y-106409307D01*
X99465338Y-106311427D01*
X99266640Y-106251152D01*
X99111782Y-106235900D01*
X99008218Y-106235900D01*
X98853360Y-106251152D01*
X98654662Y-106311427D01*
X98471540Y-106409307D01*
X98311032Y-106541032D01*
X98179307Y-106701540D01*
X98081427Y-106884662D01*
X98021152Y-107083360D01*
X98000800Y-107290000D01*
X95012700Y-107290000D01*
X95012700Y-106426400D01*
X95133181Y-106426400D01*
X95135700Y-106918525D01*
X95265875Y-107048700D01*
X96278700Y-107048700D01*
X96278700Y-106035875D01*
X96761300Y-106035875D01*
X96761300Y-107048700D01*
X97774125Y-107048700D01*
X97904300Y-106918525D01*
X97906819Y-106426400D01*
X97896765Y-106324325D01*
X97866991Y-106226173D01*
X97818641Y-106135715D01*
X97753572Y-106056428D01*
X97674285Y-105991359D01*
X97583827Y-105943009D01*
X97485675Y-105913235D01*
X97383600Y-105903181D01*
X96891475Y-105905700D01*
X96761300Y-106035875D01*
X96278700Y-106035875D01*
X96148525Y-105905700D01*
X95656400Y-105903181D01*
X95554325Y-105913235D01*
X95456173Y-105943009D01*
X95365715Y-105991359D01*
X95286428Y-106056428D01*
X95221359Y-106135715D01*
X95173009Y-106226173D01*
X95143235Y-106324325D01*
X95133181Y-106426400D01*
X95012700Y-106426400D01*
X95012700Y-104750000D01*
X95460800Y-104750000D01*
X95481152Y-104956640D01*
X95541427Y-105155338D01*
X95639307Y-105338460D01*
X95771032Y-105498968D01*
X95931540Y-105630693D01*
X96114662Y-105728573D01*
X96313360Y-105788848D01*
X96468218Y-105804100D01*
X96571782Y-105804100D01*
X96726640Y-105788848D01*
X96925338Y-105728573D01*
X97108460Y-105630693D01*
X97268968Y-105498968D01*
X97400693Y-105338460D01*
X97498573Y-105155338D01*
X97558848Y-104956640D01*
X97579200Y-104750000D01*
X98000800Y-104750000D01*
X98021152Y-104956640D01*
X98081427Y-105155338D01*
X98179307Y-105338460D01*
X98311032Y-105498968D01*
X98471540Y-105630693D01*
X98654662Y-105728573D01*
X98853360Y-105788848D01*
X99008218Y-105804100D01*
X99111782Y-105804100D01*
X99266640Y-105788848D01*
X99465338Y-105728573D01*
X99648460Y-105630693D01*
X99808968Y-105498968D01*
X99940693Y-105338460D01*
X100038573Y-105155338D01*
X100098848Y-104956640D01*
X100119200Y-104750000D01*
X100108975Y-104646180D01*
X100545900Y-104646180D01*
X100545900Y-104853820D01*
X100586409Y-105057470D01*
X100665869Y-105249303D01*
X100781227Y-105421949D01*
X100928051Y-105568773D01*
X101100697Y-105684131D01*
X101292530Y-105763591D01*
X101496180Y-105804100D01*
X101703820Y-105804100D01*
X101907470Y-105763591D01*
X102099303Y-105684131D01*
X102271949Y-105568773D01*
X102418773Y-105421949D01*
X102534131Y-105249303D01*
X102613591Y-105057470D01*
X102654100Y-104853820D01*
X102654100Y-104646180D01*
X102613591Y-104442530D01*
X102534131Y-104250697D01*
X102418773Y-104078051D01*
X102271949Y-103931227D01*
X102099303Y-103815869D01*
X101907470Y-103736409D01*
X101703820Y-103695900D01*
X101496180Y-103695900D01*
X101292530Y-103736409D01*
X101100697Y-103815869D01*
X100928051Y-103931227D01*
X100781227Y-104078051D01*
X100665869Y-104250697D01*
X100586409Y-104442530D01*
X100545900Y-104646180D01*
X100108975Y-104646180D01*
X100098848Y-104543360D01*
X100038573Y-104344662D01*
X99940693Y-104161540D01*
X99808968Y-104001032D01*
X99648460Y-103869307D01*
X99465338Y-103771427D01*
X99266640Y-103711152D01*
X99111782Y-103695900D01*
X99008218Y-103695900D01*
X98853360Y-103711152D01*
X98654662Y-103771427D01*
X98471540Y-103869307D01*
X98311032Y-104001032D01*
X98179307Y-104161540D01*
X98081427Y-104344662D01*
X98021152Y-104543360D01*
X98000800Y-104750000D01*
X97579200Y-104750000D01*
X97558848Y-104543360D01*
X97498573Y-104344662D01*
X97400693Y-104161540D01*
X97268968Y-104001032D01*
X97108460Y-103869307D01*
X96925338Y-103771427D01*
X96726640Y-103711152D01*
X96571782Y-103695900D01*
X96468218Y-103695900D01*
X96313360Y-103711152D01*
X96114662Y-103771427D01*
X95931540Y-103869307D01*
X95771032Y-104001032D01*
X95639307Y-104161540D01*
X95541427Y-104344662D01*
X95481152Y-104543360D01*
X95460800Y-104750000D01*
X95012700Y-104750000D01*
X95012700Y-103012700D01*
X102987300Y-103012700D01*
X102987300Y-108987300D01*
X102987300Y-108987300D01*
G37*
X102987300Y-108987300D02*
X95012700Y-108987300D01*
X95012700Y-108153600D01*
X95133181Y-108153600D01*
X95143235Y-108255675D01*
X95173009Y-108353827D01*
X95221359Y-108444285D01*
X95286428Y-108523572D01*
X95365715Y-108588641D01*
X95456173Y-108636991D01*
X95554325Y-108666765D01*
X95656400Y-108676819D01*
X96148525Y-108674300D01*
X96278700Y-108544125D01*
X96278700Y-107531300D01*
X96761300Y-107531300D01*
X96761300Y-108544125D01*
X96891475Y-108674300D01*
X97383600Y-108676819D01*
X97485675Y-108666765D01*
X97583827Y-108636991D01*
X97674285Y-108588641D01*
X97753572Y-108523572D01*
X97818641Y-108444285D01*
X97866991Y-108353827D01*
X97896765Y-108255675D01*
X97906819Y-108153600D01*
X97904300Y-107661475D01*
X97774125Y-107531300D01*
X96761300Y-107531300D01*
X96278700Y-107531300D01*
X95265875Y-107531300D01*
X95135700Y-107661475D01*
X95133181Y-108153600D01*
X95012700Y-108153600D01*
X95012700Y-107290000D01*
X98000800Y-107290000D01*
X98021152Y-107496640D01*
X98081427Y-107695338D01*
X98179307Y-107878460D01*
X98311032Y-108038968D01*
X98471540Y-108170693D01*
X98654662Y-108268573D01*
X98853360Y-108328848D01*
X99008218Y-108344100D01*
X99111782Y-108344100D01*
X99266640Y-108328848D01*
X99465338Y-108268573D01*
X99648460Y-108170693D01*
X99808968Y-108038968D01*
X99940693Y-107878460D01*
X100038573Y-107695338D01*
X100098848Y-107496640D01*
X100119200Y-107290000D01*
X100108975Y-107186180D01*
X100545900Y-107186180D01*
X100545900Y-107393820D01*
X100586409Y-107597470D01*
X100665869Y-107789303D01*
X100781227Y-107961949D01*
X100928051Y-108108773D01*
X101100697Y-108224131D01*
X101292530Y-108303591D01*
X101496180Y-108344100D01*
X101703820Y-108344100D01*
X101907470Y-108303591D01*
X102099303Y-108224131D01*
X102271949Y-108108773D01*
X102418773Y-107961949D01*
X102534131Y-107789303D01*
X102613591Y-107597470D01*
X102654100Y-107393820D01*
X102654100Y-107186180D01*
X102613591Y-106982530D01*
X102534131Y-106790697D01*
X102418773Y-106618051D01*
X102271949Y-106471227D01*
X102099303Y-106355869D01*
X101907470Y-106276409D01*
X101703820Y-106235900D01*
X101496180Y-106235900D01*
X101292530Y-106276409D01*
X101100697Y-106355869D01*
X100928051Y-106471227D01*
X100781227Y-106618051D01*
X100665869Y-106790697D01*
X100586409Y-106982530D01*
X100545900Y-107186180D01*
X100108975Y-107186180D01*
X100098848Y-107083360D01*
X100038573Y-106884662D01*
X99940693Y-106701540D01*
X99808968Y-106541032D01*
X99648460Y-106409307D01*
X99465338Y-106311427D01*
X99266640Y-106251152D01*
X99111782Y-106235900D01*
X99008218Y-106235900D01*
X98853360Y-106251152D01*
X98654662Y-106311427D01*
X98471540Y-106409307D01*
X98311032Y-106541032D01*
X98179307Y-106701540D01*
X98081427Y-106884662D01*
X98021152Y-107083360D01*
X98000800Y-107290000D01*
X95012700Y-107290000D01*
X95012700Y-106426400D01*
X95133181Y-106426400D01*
X95135700Y-106918525D01*
X95265875Y-107048700D01*
X96278700Y-107048700D01*
X96278700Y-106035875D01*
X96761300Y-106035875D01*
X96761300Y-107048700D01*
X97774125Y-107048700D01*
X97904300Y-106918525D01*
X97906819Y-106426400D01*
X97896765Y-106324325D01*
X97866991Y-106226173D01*
X97818641Y-106135715D01*
X97753572Y-106056428D01*
X97674285Y-105991359D01*
X97583827Y-105943009D01*
X97485675Y-105913235D01*
X97383600Y-105903181D01*
X96891475Y-105905700D01*
X96761300Y-106035875D01*
X96278700Y-106035875D01*
X96148525Y-105905700D01*
X95656400Y-105903181D01*
X95554325Y-105913235D01*
X95456173Y-105943009D01*
X95365715Y-105991359D01*
X95286428Y-106056428D01*
X95221359Y-106135715D01*
X95173009Y-106226173D01*
X95143235Y-106324325D01*
X95133181Y-106426400D01*
X95012700Y-106426400D01*
X95012700Y-104750000D01*
X95460800Y-104750000D01*
X95481152Y-104956640D01*
X95541427Y-105155338D01*
X95639307Y-105338460D01*
X95771032Y-105498968D01*
X95931540Y-105630693D01*
X96114662Y-105728573D01*
X96313360Y-105788848D01*
X96468218Y-105804100D01*
X96571782Y-105804100D01*
X96726640Y-105788848D01*
X96925338Y-105728573D01*
X97108460Y-105630693D01*
X97268968Y-105498968D01*
X97400693Y-105338460D01*
X97498573Y-105155338D01*
X97558848Y-104956640D01*
X97579200Y-104750000D01*
X98000800Y-104750000D01*
X98021152Y-104956640D01*
X98081427Y-105155338D01*
X98179307Y-105338460D01*
X98311032Y-105498968D01*
X98471540Y-105630693D01*
X98654662Y-105728573D01*
X98853360Y-105788848D01*
X99008218Y-105804100D01*
X99111782Y-105804100D01*
X99266640Y-105788848D01*
X99465338Y-105728573D01*
X99648460Y-105630693D01*
X99808968Y-105498968D01*
X99940693Y-105338460D01*
X100038573Y-105155338D01*
X100098848Y-104956640D01*
X100119200Y-104750000D01*
X100108975Y-104646180D01*
X100545900Y-104646180D01*
X100545900Y-104853820D01*
X100586409Y-105057470D01*
X100665869Y-105249303D01*
X100781227Y-105421949D01*
X100928051Y-105568773D01*
X101100697Y-105684131D01*
X101292530Y-105763591D01*
X101496180Y-105804100D01*
X101703820Y-105804100D01*
X101907470Y-105763591D01*
X102099303Y-105684131D01*
X102271949Y-105568773D01*
X102418773Y-105421949D01*
X102534131Y-105249303D01*
X102613591Y-105057470D01*
X102654100Y-104853820D01*
X102654100Y-104646180D01*
X102613591Y-104442530D01*
X102534131Y-104250697D01*
X102418773Y-104078051D01*
X102271949Y-103931227D01*
X102099303Y-103815869D01*
X101907470Y-103736409D01*
X101703820Y-103695900D01*
X101496180Y-103695900D01*
X101292530Y-103736409D01*
X101100697Y-103815869D01*
X100928051Y-103931227D01*
X100781227Y-104078051D01*
X100665869Y-104250697D01*
X100586409Y-104442530D01*
X100545900Y-104646180D01*
X100108975Y-104646180D01*
X100098848Y-104543360D01*
X100038573Y-104344662D01*
X99940693Y-104161540D01*
X99808968Y-104001032D01*
X99648460Y-103869307D01*
X99465338Y-103771427D01*
X99266640Y-103711152D01*
X99111782Y-103695900D01*
X99008218Y-103695900D01*
X98853360Y-103711152D01*
X98654662Y-103771427D01*
X98471540Y-103869307D01*
X98311032Y-104001032D01*
X98179307Y-104161540D01*
X98081427Y-104344662D01*
X98021152Y-104543360D01*
X98000800Y-104750000D01*
X97579200Y-104750000D01*
X97558848Y-104543360D01*
X97498573Y-104344662D01*
X97400693Y-104161540D01*
X97268968Y-104001032D01*
X97108460Y-103869307D01*
X96925338Y-103771427D01*
X96726640Y-103711152D01*
X96571782Y-103695900D01*
X96468218Y-103695900D01*
X96313360Y-103711152D01*
X96114662Y-103771427D01*
X95931540Y-103869307D01*
X95771032Y-104001032D01*
X95639307Y-104161540D01*
X95541427Y-104344662D01*
X95481152Y-104543360D01*
X95460800Y-104750000D01*
X95012700Y-104750000D01*
X95012700Y-103012700D01*
X102987300Y-103012700D01*
X102987300Y-108987300D01*
M02*
