G04 #@! TF.GenerationSoftware,KiCad,Pcbnew,5.1.2-f72e74a~84~ubuntu16.04.1*
G04 #@! TF.CreationDate,2019-07-01T21:57:51-07:00*
G04 #@! TF.ProjectId,Kirby_SAO,4b697262-795f-4534-914f-2e6b69636164,rev?*
G04 #@! TF.SameCoordinates,Original*
G04 #@! TF.FileFunction,Legend,Top*
G04 #@! TF.FilePolarity,Positive*
%FSLAX46Y46*%
G04 Gerber Fmt 4.6, Leading zero omitted, Abs format (unit mm)*
G04 Created by KiCad (PCBNEW 5.1.2-f72e74a~84~ubuntu16.04.1) date 2019-07-01 21:57:51*
%MOMM*%
%LPD*%
G04 APERTURE LIST*
%ADD10C,0.010000*%
%ADD11R,1.829200X1.829200*%
%ADD12O,1.829200X1.829200*%
%ADD13C,1.829200*%
G04 APERTURE END LIST*
D10*
G36*
X113017500Y-96020667D02*
G01*
X111006666Y-96020667D01*
X111006666Y-90009334D01*
X113017500Y-90009334D01*
X113017500Y-96020667D01*
X113017500Y-96020667D01*
G37*
X113017500Y-96020667D02*
X111006666Y-96020667D01*
X111006666Y-90009334D01*
X113017500Y-90009334D01*
X113017500Y-96020667D01*
G36*
X109017000Y-96020667D02*
G01*
X107006166Y-96020667D01*
X107006166Y-90009334D01*
X109017000Y-90009334D01*
X109017000Y-96020667D01*
X109017000Y-96020667D01*
G37*
X109017000Y-96020667D02*
X107006166Y-96020667D01*
X107006166Y-90009334D01*
X109017000Y-90009334D01*
X109017000Y-96020667D01*
G36*
X105016500Y-100000000D02*
G01*
X107027333Y-100000000D01*
X107027333Y-102010834D01*
X115028333Y-102010834D01*
X115028333Y-104021667D01*
X107027333Y-104021667D01*
X107027333Y-106011334D01*
X105016500Y-106011334D01*
X105016500Y-108022167D01*
X103005666Y-108022167D01*
X103005666Y-106011334D01*
X104995333Y-106011334D01*
X104995333Y-100021167D01*
X103005666Y-100021167D01*
X103005666Y-98010334D01*
X105016500Y-98010334D01*
X105016500Y-100000000D01*
X105016500Y-100000000D01*
G37*
X105016500Y-100000000D02*
X107027333Y-100000000D01*
X107027333Y-102010834D01*
X115028333Y-102010834D01*
X115028333Y-104021667D01*
X107027333Y-104021667D01*
X107027333Y-106011334D01*
X105016500Y-106011334D01*
X105016500Y-108022167D01*
X103005666Y-108022167D01*
X103005666Y-106011334D01*
X104995333Y-106011334D01*
X104995333Y-100021167D01*
X103005666Y-100021167D01*
X103005666Y-98010334D01*
X105016500Y-98010334D01*
X105016500Y-100000000D01*
G36*
X107027333Y-79997500D02*
G01*
X111027833Y-79997500D01*
X111027833Y-82008334D01*
X115028333Y-82008334D01*
X115028333Y-83998000D01*
X117018000Y-83998000D01*
X117018000Y-86008834D01*
X119028833Y-86008834D01*
X119028833Y-90009334D01*
X121018500Y-90009334D01*
X121018500Y-94009834D01*
X123008166Y-94009834D01*
X123008166Y-106011334D01*
X121018500Y-106011334D01*
X121018500Y-110011834D01*
X119028833Y-110011834D01*
X119028833Y-114012334D01*
X121018500Y-114012334D01*
X121018500Y-116002000D01*
X123008166Y-116002000D01*
X123008166Y-120023667D01*
X121018500Y-120023667D01*
X121018500Y-122013334D01*
X108995833Y-122013334D01*
X108995833Y-120023667D01*
X107027333Y-120023667D01*
X107027333Y-122013334D01*
X95004666Y-122013334D01*
X95004666Y-120023667D01*
X93015000Y-120023667D01*
X93015000Y-122013334D01*
X80992333Y-122013334D01*
X80992333Y-120023667D01*
X79002666Y-120023667D01*
X79002666Y-116023167D01*
X81013500Y-116023167D01*
X81013500Y-120002500D01*
X91004166Y-120002500D01*
X91004166Y-118012834D01*
X87003666Y-118012834D01*
X87003666Y-116023167D01*
X84992833Y-116023167D01*
X84992833Y-114012334D01*
X83024333Y-114012334D01*
X83024333Y-116023167D01*
X81013500Y-116023167D01*
X79002666Y-116023167D01*
X79002666Y-116002000D01*
X80992333Y-116002000D01*
X80992333Y-114012334D01*
X83003166Y-114012334D01*
X83003166Y-110011834D01*
X80992333Y-110011834D01*
X80992333Y-106011334D01*
X79002666Y-106011334D01*
X79002666Y-104021667D01*
X77013000Y-104021667D01*
X77013000Y-94009834D01*
X79002666Y-94009834D01*
X79023833Y-94009834D01*
X79023833Y-104000500D01*
X81013500Y-104000500D01*
X81013500Y-106011334D01*
X87003666Y-106011334D01*
X87003666Y-104000500D01*
X89014500Y-104000500D01*
X89014500Y-106011334D01*
X87024833Y-106011334D01*
X87024833Y-108022167D01*
X83024333Y-108022167D01*
X83024333Y-110011834D01*
X85014000Y-110011834D01*
X85014000Y-114012334D01*
X87024833Y-114012334D01*
X87024833Y-116002000D01*
X91025333Y-116002000D01*
X91025333Y-118012834D01*
X95025833Y-118012834D01*
X95025833Y-120002500D01*
X107006166Y-120002500D01*
X107006166Y-118012834D01*
X111006666Y-118012834D01*
X111027833Y-118012834D01*
X111027833Y-120002500D01*
X120997333Y-120002500D01*
X120997333Y-116023167D01*
X119007666Y-116023167D01*
X119007666Y-114012334D01*
X117018000Y-114012334D01*
X117018000Y-116023167D01*
X115028333Y-116023167D01*
X115028333Y-118012834D01*
X111027833Y-118012834D01*
X111006666Y-118012834D01*
X111006666Y-116002000D01*
X115007166Y-116002000D01*
X115007166Y-114012334D01*
X116996833Y-114012334D01*
X116996833Y-110011834D01*
X119007666Y-110011834D01*
X119007666Y-106011334D01*
X120997333Y-106011334D01*
X120997333Y-94009834D01*
X119007666Y-94009834D01*
X119007666Y-90009334D01*
X116996833Y-90009334D01*
X116996833Y-86008834D01*
X115007166Y-86008834D01*
X115007166Y-84019167D01*
X111006666Y-84019167D01*
X111006666Y-82008334D01*
X107006166Y-82008334D01*
X107006166Y-80018667D01*
X95025833Y-80018667D01*
X95025833Y-82008334D01*
X89014500Y-82008334D01*
X89014500Y-84019167D01*
X85014000Y-84019167D01*
X85014000Y-86008834D01*
X83024333Y-86008834D01*
X83024333Y-90009334D01*
X81013500Y-90009334D01*
X81013500Y-94009834D01*
X79023833Y-94009834D01*
X79002666Y-94009834D01*
X79002666Y-90009334D01*
X80992333Y-90009334D01*
X80992333Y-86008834D01*
X83003166Y-86008834D01*
X83003166Y-83998000D01*
X84992833Y-83998000D01*
X84992833Y-82008334D01*
X88993333Y-82008334D01*
X88993333Y-79997500D01*
X95004666Y-79997500D01*
X95004666Y-78007834D01*
X107027333Y-78007834D01*
X107027333Y-79997500D01*
X107027333Y-79997500D01*
G37*
X107027333Y-79997500D02*
X111027833Y-79997500D01*
X111027833Y-82008334D01*
X115028333Y-82008334D01*
X115028333Y-83998000D01*
X117018000Y-83998000D01*
X117018000Y-86008834D01*
X119028833Y-86008834D01*
X119028833Y-90009334D01*
X121018500Y-90009334D01*
X121018500Y-94009834D01*
X123008166Y-94009834D01*
X123008166Y-106011334D01*
X121018500Y-106011334D01*
X121018500Y-110011834D01*
X119028833Y-110011834D01*
X119028833Y-114012334D01*
X121018500Y-114012334D01*
X121018500Y-116002000D01*
X123008166Y-116002000D01*
X123008166Y-120023667D01*
X121018500Y-120023667D01*
X121018500Y-122013334D01*
X108995833Y-122013334D01*
X108995833Y-120023667D01*
X107027333Y-120023667D01*
X107027333Y-122013334D01*
X95004666Y-122013334D01*
X95004666Y-120023667D01*
X93015000Y-120023667D01*
X93015000Y-122013334D01*
X80992333Y-122013334D01*
X80992333Y-120023667D01*
X79002666Y-120023667D01*
X79002666Y-116023167D01*
X81013500Y-116023167D01*
X81013500Y-120002500D01*
X91004166Y-120002500D01*
X91004166Y-118012834D01*
X87003666Y-118012834D01*
X87003666Y-116023167D01*
X84992833Y-116023167D01*
X84992833Y-114012334D01*
X83024333Y-114012334D01*
X83024333Y-116023167D01*
X81013500Y-116023167D01*
X79002666Y-116023167D01*
X79002666Y-116002000D01*
X80992333Y-116002000D01*
X80992333Y-114012334D01*
X83003166Y-114012334D01*
X83003166Y-110011834D01*
X80992333Y-110011834D01*
X80992333Y-106011334D01*
X79002666Y-106011334D01*
X79002666Y-104021667D01*
X77013000Y-104021667D01*
X77013000Y-94009834D01*
X79002666Y-94009834D01*
X79023833Y-94009834D01*
X79023833Y-104000500D01*
X81013500Y-104000500D01*
X81013500Y-106011334D01*
X87003666Y-106011334D01*
X87003666Y-104000500D01*
X89014500Y-104000500D01*
X89014500Y-106011334D01*
X87024833Y-106011334D01*
X87024833Y-108022167D01*
X83024333Y-108022167D01*
X83024333Y-110011834D01*
X85014000Y-110011834D01*
X85014000Y-114012334D01*
X87024833Y-114012334D01*
X87024833Y-116002000D01*
X91025333Y-116002000D01*
X91025333Y-118012834D01*
X95025833Y-118012834D01*
X95025833Y-120002500D01*
X107006166Y-120002500D01*
X107006166Y-118012834D01*
X111006666Y-118012834D01*
X111027833Y-118012834D01*
X111027833Y-120002500D01*
X120997333Y-120002500D01*
X120997333Y-116023167D01*
X119007666Y-116023167D01*
X119007666Y-114012334D01*
X117018000Y-114012334D01*
X117018000Y-116023167D01*
X115028333Y-116023167D01*
X115028333Y-118012834D01*
X111027833Y-118012834D01*
X111006666Y-118012834D01*
X111006666Y-116002000D01*
X115007166Y-116002000D01*
X115007166Y-114012334D01*
X116996833Y-114012334D01*
X116996833Y-110011834D01*
X119007666Y-110011834D01*
X119007666Y-106011334D01*
X120997333Y-106011334D01*
X120997333Y-94009834D01*
X119007666Y-94009834D01*
X119007666Y-90009334D01*
X116996833Y-90009334D01*
X116996833Y-86008834D01*
X115007166Y-86008834D01*
X115007166Y-84019167D01*
X111006666Y-84019167D01*
X111006666Y-82008334D01*
X107006166Y-82008334D01*
X107006166Y-80018667D01*
X95025833Y-80018667D01*
X95025833Y-82008334D01*
X89014500Y-82008334D01*
X89014500Y-84019167D01*
X85014000Y-84019167D01*
X85014000Y-86008834D01*
X83024333Y-86008834D01*
X83024333Y-90009334D01*
X81013500Y-90009334D01*
X81013500Y-94009834D01*
X79023833Y-94009834D01*
X79002666Y-94009834D01*
X79002666Y-90009334D01*
X80992333Y-90009334D01*
X80992333Y-86008834D01*
X83003166Y-86008834D01*
X83003166Y-83998000D01*
X84992833Y-83998000D01*
X84992833Y-82008334D01*
X88993333Y-82008334D01*
X88993333Y-79997500D01*
X95004666Y-79997500D01*
X95004666Y-78007834D01*
X107027333Y-78007834D01*
X107027333Y-79997500D01*
%LPC*%
G36*
X119028833Y-98010334D02*
G01*
X115007166Y-98010334D01*
X115007166Y-95999500D01*
X119028833Y-95999500D01*
X119028833Y-98010334D01*
X119028833Y-98010334D01*
G37*
X119028833Y-98010334D02*
X115007166Y-98010334D01*
X115007166Y-95999500D01*
X119028833Y-95999500D01*
X119028833Y-98010334D01*
G36*
X101016000Y-98010334D02*
G01*
X96994333Y-98010334D01*
X96994333Y-95999500D01*
X101016000Y-95999500D01*
X101016000Y-98010334D01*
X101016000Y-98010334D01*
G37*
X101016000Y-98010334D02*
X96994333Y-98010334D01*
X96994333Y-95999500D01*
X101016000Y-95999500D01*
X101016000Y-98010334D01*
G36*
X118007541Y-113996253D02*
G01*
X119018250Y-114001750D01*
X119023748Y-115001875D01*
X119029247Y-116002000D01*
X121018500Y-116002000D01*
X121018500Y-120023667D01*
X111006666Y-120023667D01*
X111006666Y-117991667D01*
X115007166Y-117991667D01*
X115007166Y-116002000D01*
X116996833Y-116002000D01*
X116996833Y-113990756D01*
X118007541Y-113996253D01*
X118007541Y-113996253D01*
G37*
X118007541Y-113996253D02*
X119018250Y-114001750D01*
X119023748Y-115001875D01*
X119029247Y-116002000D01*
X121018500Y-116002000D01*
X121018500Y-120023667D01*
X111006666Y-120023667D01*
X111006666Y-117991667D01*
X115007166Y-117991667D01*
X115007166Y-116002000D01*
X116996833Y-116002000D01*
X116996833Y-113990756D01*
X118007541Y-113996253D01*
G36*
X85014000Y-116002000D02*
G01*
X87024833Y-116002000D01*
X87024833Y-117991667D01*
X91025333Y-117991667D01*
X91025333Y-120023667D01*
X80992333Y-120023667D01*
X80992333Y-116002000D01*
X83003166Y-116002000D01*
X83003166Y-113991167D01*
X85014000Y-113991167D01*
X85014000Y-116002000D01*
X85014000Y-116002000D01*
G37*
X85014000Y-116002000D02*
X87024833Y-116002000D01*
X87024833Y-117991667D01*
X91025333Y-117991667D01*
X91025333Y-120023667D01*
X80992333Y-120023667D01*
X80992333Y-116002000D01*
X83003166Y-116002000D01*
X83003166Y-113991167D01*
X85014000Y-113991167D01*
X85014000Y-116002000D01*
D11*
X96520000Y-107290000D03*
D12*
X96520000Y-104750000D03*
X99060000Y-107290000D03*
X99060000Y-104750000D03*
D13*
X101600000Y-107290000D03*
X101600000Y-104750000D03*
M02*
