G04 #@! TF.GenerationSoftware,KiCad,Pcbnew,5.1.2-f72e74a~84~ubuntu16.04.1*
G04 #@! TF.CreationDate,2019-07-01T21:57:51-07:00*
G04 #@! TF.ProjectId,Kirby_SAO,4b697262-795f-4534-914f-2e6b69636164,rev?*
G04 #@! TF.SameCoordinates,Original*
G04 #@! TF.FileFunction,Copper,L2,Bot*
G04 #@! TF.FilePolarity,Positive*
%FSLAX46Y46*%
G04 Gerber Fmt 4.6, Leading zero omitted, Abs format (unit mm)*
G04 Created by KiCad (PCBNEW 5.1.2-f72e74a~84~ubuntu16.04.1) date 2019-07-01 21:57:51*
%MOMM*%
%LPD*%
G04 APERTURE LIST*
%ADD10C,0.010000*%
%ADD11R,1.727200X1.727200*%
%ADD12O,1.727200X1.727200*%
%ADD13C,1.727200*%
%ADD14C,0.100000*%
%ADD15C,0.600000*%
%ADD16C,0.900000*%
%ADD17C,1.150000*%
%ADD18C,0.254000*%
%ADD19C,0.025400*%
G04 APERTURE END LIST*
D10*
G36*
X107027333Y-79997500D02*
G01*
X111027833Y-79997500D01*
X111027833Y-82008334D01*
X115028333Y-82008334D01*
X115028333Y-83998000D01*
X117018000Y-83998000D01*
X117018000Y-86008834D01*
X119028833Y-86008834D01*
X119028833Y-90009334D01*
X121018500Y-90009334D01*
X121018500Y-94009834D01*
X123008166Y-94009834D01*
X123008166Y-96020667D01*
X85023376Y-96020667D01*
X85031859Y-98121459D01*
X85032697Y-98376226D01*
X85033321Y-98669438D01*
X85033738Y-98997204D01*
X85033950Y-99355635D01*
X85033964Y-99740842D01*
X85033784Y-100148935D01*
X85033414Y-100576027D01*
X85032859Y-101018226D01*
X85032124Y-101471645D01*
X85031215Y-101932393D01*
X85030134Y-102396582D01*
X85028888Y-102860322D01*
X85027480Y-103319725D01*
X85025917Y-103770901D01*
X85024561Y-104122209D01*
X85008779Y-108022167D01*
X83024333Y-108022167D01*
X83024333Y-110011834D01*
X85014000Y-110011834D01*
X85014000Y-114012334D01*
X83024333Y-114012334D01*
X83024333Y-116023167D01*
X81013500Y-116023167D01*
X81013500Y-120002500D01*
X91004166Y-120002500D01*
X91004166Y-117991452D01*
X95015250Y-118002250D01*
X95020748Y-119002375D01*
X95026247Y-120002500D01*
X107006166Y-120002500D01*
X107006166Y-118012834D01*
X111027833Y-118012834D01*
X111027833Y-120002500D01*
X120997333Y-120002500D01*
X120997333Y-116023167D01*
X119007666Y-116023167D01*
X119007666Y-114012334D01*
X116996833Y-114012334D01*
X116996833Y-110011834D01*
X119028833Y-110011834D01*
X119028833Y-114012334D01*
X121018500Y-114012334D01*
X121018500Y-116002000D01*
X123008166Y-116002000D01*
X123008166Y-120023667D01*
X121018500Y-120023667D01*
X121018500Y-122013334D01*
X108995833Y-122013334D01*
X108995833Y-120023667D01*
X107027333Y-120023667D01*
X107027333Y-122013334D01*
X95004666Y-122013334D01*
X95004666Y-120023667D01*
X93015000Y-120023667D01*
X93015000Y-122013334D01*
X80992333Y-122013334D01*
X80992333Y-120023667D01*
X79002666Y-120023667D01*
X79002666Y-116002000D01*
X80992333Y-116002000D01*
X80992333Y-114012334D01*
X83003166Y-114012334D01*
X83003166Y-110011834D01*
X80992333Y-110011834D01*
X80992333Y-106011334D01*
X79002666Y-106011334D01*
X79002666Y-104021667D01*
X81013500Y-104021667D01*
X81013500Y-106011334D01*
X83003166Y-106011334D01*
X83003166Y-104021667D01*
X81013500Y-104021667D01*
X79002666Y-104021667D01*
X77013000Y-104021667D01*
X77013000Y-102010834D01*
X79023833Y-102010834D01*
X79023833Y-104000500D01*
X80992333Y-104000500D01*
X80992333Y-102010834D01*
X79023833Y-102010834D01*
X77013000Y-102010834D01*
X77013000Y-94009834D01*
X79002666Y-94009834D01*
X79002666Y-90009334D01*
X80992333Y-90009334D01*
X80992333Y-86008834D01*
X83003166Y-86008834D01*
X83003166Y-83998000D01*
X84992833Y-83998000D01*
X84992833Y-82008334D01*
X88993333Y-82008334D01*
X88993333Y-79997500D01*
X95004666Y-79997500D01*
X95004666Y-78007834D01*
X107027333Y-78007834D01*
X107027333Y-79997500D01*
X107027333Y-79997500D01*
G37*
X107027333Y-79997500D02*
X111027833Y-79997500D01*
X111027833Y-82008334D01*
X115028333Y-82008334D01*
X115028333Y-83998000D01*
X117018000Y-83998000D01*
X117018000Y-86008834D01*
X119028833Y-86008834D01*
X119028833Y-90009334D01*
X121018500Y-90009334D01*
X121018500Y-94009834D01*
X123008166Y-94009834D01*
X123008166Y-96020667D01*
X85023376Y-96020667D01*
X85031859Y-98121459D01*
X85032697Y-98376226D01*
X85033321Y-98669438D01*
X85033738Y-98997204D01*
X85033950Y-99355635D01*
X85033964Y-99740842D01*
X85033784Y-100148935D01*
X85033414Y-100576027D01*
X85032859Y-101018226D01*
X85032124Y-101471645D01*
X85031215Y-101932393D01*
X85030134Y-102396582D01*
X85028888Y-102860322D01*
X85027480Y-103319725D01*
X85025917Y-103770901D01*
X85024561Y-104122209D01*
X85008779Y-108022167D01*
X83024333Y-108022167D01*
X83024333Y-110011834D01*
X85014000Y-110011834D01*
X85014000Y-114012334D01*
X83024333Y-114012334D01*
X83024333Y-116023167D01*
X81013500Y-116023167D01*
X81013500Y-120002500D01*
X91004166Y-120002500D01*
X91004166Y-117991452D01*
X95015250Y-118002250D01*
X95020748Y-119002375D01*
X95026247Y-120002500D01*
X107006166Y-120002500D01*
X107006166Y-118012834D01*
X111027833Y-118012834D01*
X111027833Y-120002500D01*
X120997333Y-120002500D01*
X120997333Y-116023167D01*
X119007666Y-116023167D01*
X119007666Y-114012334D01*
X116996833Y-114012334D01*
X116996833Y-110011834D01*
X119028833Y-110011834D01*
X119028833Y-114012334D01*
X121018500Y-114012334D01*
X121018500Y-116002000D01*
X123008166Y-116002000D01*
X123008166Y-120023667D01*
X121018500Y-120023667D01*
X121018500Y-122013334D01*
X108995833Y-122013334D01*
X108995833Y-120023667D01*
X107027333Y-120023667D01*
X107027333Y-122013334D01*
X95004666Y-122013334D01*
X95004666Y-120023667D01*
X93015000Y-120023667D01*
X93015000Y-122013334D01*
X80992333Y-122013334D01*
X80992333Y-120023667D01*
X79002666Y-120023667D01*
X79002666Y-116002000D01*
X80992333Y-116002000D01*
X80992333Y-114012334D01*
X83003166Y-114012334D01*
X83003166Y-110011834D01*
X80992333Y-110011834D01*
X80992333Y-106011334D01*
X79002666Y-106011334D01*
X79002666Y-104021667D01*
X81013500Y-104021667D01*
X81013500Y-106011334D01*
X83003166Y-106011334D01*
X83003166Y-104021667D01*
X81013500Y-104021667D01*
X79002666Y-104021667D01*
X77013000Y-104021667D01*
X77013000Y-102010834D01*
X79023833Y-102010834D01*
X79023833Y-104000500D01*
X80992333Y-104000500D01*
X80992333Y-102010834D01*
X79023833Y-102010834D01*
X77013000Y-102010834D01*
X77013000Y-94009834D01*
X79002666Y-94009834D01*
X79002666Y-90009334D01*
X80992333Y-90009334D01*
X80992333Y-86008834D01*
X83003166Y-86008834D01*
X83003166Y-83998000D01*
X84992833Y-83998000D01*
X84992833Y-82008334D01*
X88993333Y-82008334D01*
X88993333Y-79997500D01*
X95004666Y-79997500D01*
X95004666Y-78007834D01*
X107027333Y-78007834D01*
X107027333Y-79997500D01*
D11*
X96520000Y-107290000D03*
D12*
X96520000Y-104750000D03*
X99060000Y-107290000D03*
X99060000Y-104750000D03*
D13*
X101600000Y-107290000D03*
X101600000Y-104750000D03*
D14*
G36*
X99345881Y-99650289D02*
G01*
X99351705Y-99651153D01*
X99357417Y-99652584D01*
X99362961Y-99654567D01*
X99368284Y-99657085D01*
X99373334Y-99660112D01*
X99378064Y-99663619D01*
X99382426Y-99667574D01*
X99386381Y-99671936D01*
X99389888Y-99676666D01*
X99392915Y-99681716D01*
X99395433Y-99687039D01*
X99397416Y-99692583D01*
X99398847Y-99698295D01*
X99399711Y-99704119D01*
X99400000Y-99710000D01*
X99400000Y-100190000D01*
X99399711Y-100195881D01*
X99398847Y-100201705D01*
X99397416Y-100207417D01*
X99395433Y-100212961D01*
X99392915Y-100218284D01*
X99389888Y-100223334D01*
X99386381Y-100228064D01*
X99382426Y-100232426D01*
X99378064Y-100236381D01*
X99373334Y-100239888D01*
X99368284Y-100242915D01*
X99362961Y-100245433D01*
X99357417Y-100247416D01*
X99351705Y-100248847D01*
X99345881Y-100249711D01*
X99340000Y-100250000D01*
X98660000Y-100250000D01*
X98654119Y-100249711D01*
X98648295Y-100248847D01*
X98642583Y-100247416D01*
X98637039Y-100245433D01*
X98631716Y-100242915D01*
X98626666Y-100239888D01*
X98621936Y-100236381D01*
X98617574Y-100232426D01*
X98613619Y-100228064D01*
X98610112Y-100223334D01*
X98607085Y-100218284D01*
X98604567Y-100212961D01*
X98602584Y-100207417D01*
X98601153Y-100201705D01*
X98600289Y-100195881D01*
X98600000Y-100190000D01*
X98600000Y-99710000D01*
X98600289Y-99704119D01*
X98601153Y-99698295D01*
X98602584Y-99692583D01*
X98604567Y-99687039D01*
X98607085Y-99681716D01*
X98610112Y-99676666D01*
X98613619Y-99671936D01*
X98617574Y-99667574D01*
X98621936Y-99663619D01*
X98626666Y-99660112D01*
X98631716Y-99657085D01*
X98637039Y-99654567D01*
X98642583Y-99652584D01*
X98648295Y-99651153D01*
X98654119Y-99650289D01*
X98660000Y-99650000D01*
X99340000Y-99650000D01*
X99345881Y-99650289D01*
X99345881Y-99650289D01*
G37*
D15*
X99000000Y-99950000D03*
D14*
G36*
X97918822Y-99350433D02*
G01*
X97927558Y-99351729D01*
X97936126Y-99353875D01*
X97944442Y-99356851D01*
X97952426Y-99360627D01*
X97960001Y-99365168D01*
X97967095Y-99370429D01*
X97973640Y-99376360D01*
X97979571Y-99382905D01*
X97984832Y-99389999D01*
X97989373Y-99397574D01*
X97993149Y-99405558D01*
X97996125Y-99413874D01*
X97998271Y-99422442D01*
X97999567Y-99431178D01*
X98000000Y-99440000D01*
X98000000Y-100160000D01*
X97999567Y-100168822D01*
X97998271Y-100177558D01*
X97996125Y-100186126D01*
X97993149Y-100194442D01*
X97989373Y-100202426D01*
X97984832Y-100210001D01*
X97979571Y-100217095D01*
X97973640Y-100223640D01*
X97967095Y-100229571D01*
X97960001Y-100234832D01*
X97952426Y-100239373D01*
X97944442Y-100243149D01*
X97936126Y-100246125D01*
X97927558Y-100248271D01*
X97918822Y-100249567D01*
X97910000Y-100250000D01*
X97090000Y-100250000D01*
X97081178Y-100249567D01*
X97072442Y-100248271D01*
X97063874Y-100246125D01*
X97055558Y-100243149D01*
X97047574Y-100239373D01*
X97039999Y-100234832D01*
X97032905Y-100229571D01*
X97026360Y-100223640D01*
X97020429Y-100217095D01*
X97015168Y-100210001D01*
X97010627Y-100202426D01*
X97006851Y-100194442D01*
X97003875Y-100186126D01*
X97001729Y-100177558D01*
X97000433Y-100168822D01*
X97000000Y-100160000D01*
X97000000Y-99440000D01*
X97000433Y-99431178D01*
X97001729Y-99422442D01*
X97003875Y-99413874D01*
X97006851Y-99405558D01*
X97010627Y-99397574D01*
X97015168Y-99389999D01*
X97020429Y-99382905D01*
X97026360Y-99376360D01*
X97032905Y-99370429D01*
X97039999Y-99365168D01*
X97047574Y-99360627D01*
X97055558Y-99356851D01*
X97063874Y-99353875D01*
X97072442Y-99351729D01*
X97081178Y-99350433D01*
X97090000Y-99350000D01*
X97910000Y-99350000D01*
X97918822Y-99350433D01*
X97918822Y-99350433D01*
G37*
D16*
X97500000Y-99800000D03*
D14*
G36*
X100918822Y-99350433D02*
G01*
X100927558Y-99351729D01*
X100936126Y-99353875D01*
X100944442Y-99356851D01*
X100952426Y-99360627D01*
X100960001Y-99365168D01*
X100967095Y-99370429D01*
X100973640Y-99376360D01*
X100979571Y-99382905D01*
X100984832Y-99389999D01*
X100989373Y-99397574D01*
X100993149Y-99405558D01*
X100996125Y-99413874D01*
X100998271Y-99422442D01*
X100999567Y-99431178D01*
X101000000Y-99440000D01*
X101000000Y-100160000D01*
X100999567Y-100168822D01*
X100998271Y-100177558D01*
X100996125Y-100186126D01*
X100993149Y-100194442D01*
X100989373Y-100202426D01*
X100984832Y-100210001D01*
X100979571Y-100217095D01*
X100973640Y-100223640D01*
X100967095Y-100229571D01*
X100960001Y-100234832D01*
X100952426Y-100239373D01*
X100944442Y-100243149D01*
X100936126Y-100246125D01*
X100927558Y-100248271D01*
X100918822Y-100249567D01*
X100910000Y-100250000D01*
X100090000Y-100250000D01*
X100081178Y-100249567D01*
X100072442Y-100248271D01*
X100063874Y-100246125D01*
X100055558Y-100243149D01*
X100047574Y-100239373D01*
X100039999Y-100234832D01*
X100032905Y-100229571D01*
X100026360Y-100223640D01*
X100020429Y-100217095D01*
X100015168Y-100210001D01*
X100010627Y-100202426D01*
X100006851Y-100194442D01*
X100003875Y-100186126D01*
X100001729Y-100177558D01*
X100000433Y-100168822D01*
X100000000Y-100160000D01*
X100000000Y-99440000D01*
X100000433Y-99431178D01*
X100001729Y-99422442D01*
X100003875Y-99413874D01*
X100006851Y-99405558D01*
X100010627Y-99397574D01*
X100015168Y-99389999D01*
X100020429Y-99382905D01*
X100026360Y-99376360D01*
X100032905Y-99370429D01*
X100039999Y-99365168D01*
X100047574Y-99360627D01*
X100055558Y-99356851D01*
X100063874Y-99353875D01*
X100072442Y-99351729D01*
X100081178Y-99350433D01*
X100090000Y-99350000D01*
X100910000Y-99350000D01*
X100918822Y-99350433D01*
X100918822Y-99350433D01*
G37*
D16*
X100500000Y-99800000D03*
D14*
G36*
X90243822Y-103000433D02*
G01*
X90252558Y-103001729D01*
X90261126Y-103003875D01*
X90269442Y-103006851D01*
X90277426Y-103010627D01*
X90285001Y-103015168D01*
X90292095Y-103020429D01*
X90298640Y-103026360D01*
X90304571Y-103032905D01*
X90309832Y-103039999D01*
X90314373Y-103047574D01*
X90318149Y-103055558D01*
X90321125Y-103063874D01*
X90323271Y-103072442D01*
X90324567Y-103081178D01*
X90325000Y-103090000D01*
X90325000Y-103910000D01*
X90324567Y-103918822D01*
X90323271Y-103927558D01*
X90321125Y-103936126D01*
X90318149Y-103944442D01*
X90314373Y-103952426D01*
X90309832Y-103960001D01*
X90304571Y-103967095D01*
X90298640Y-103973640D01*
X90292095Y-103979571D01*
X90285001Y-103984832D01*
X90277426Y-103989373D01*
X90269442Y-103993149D01*
X90261126Y-103996125D01*
X90252558Y-103998271D01*
X90243822Y-103999567D01*
X90235000Y-104000000D01*
X89515000Y-104000000D01*
X89506178Y-103999567D01*
X89497442Y-103998271D01*
X89488874Y-103996125D01*
X89480558Y-103993149D01*
X89472574Y-103989373D01*
X89464999Y-103984832D01*
X89457905Y-103979571D01*
X89451360Y-103973640D01*
X89445429Y-103967095D01*
X89440168Y-103960001D01*
X89435627Y-103952426D01*
X89431851Y-103944442D01*
X89428875Y-103936126D01*
X89426729Y-103927558D01*
X89425433Y-103918822D01*
X89425000Y-103910000D01*
X89425000Y-103090000D01*
X89425433Y-103081178D01*
X89426729Y-103072442D01*
X89428875Y-103063874D01*
X89431851Y-103055558D01*
X89435627Y-103047574D01*
X89440168Y-103039999D01*
X89445429Y-103032905D01*
X89451360Y-103026360D01*
X89457905Y-103020429D01*
X89464999Y-103015168D01*
X89472574Y-103010627D01*
X89480558Y-103006851D01*
X89488874Y-103003875D01*
X89497442Y-103001729D01*
X89506178Y-103000433D01*
X89515000Y-103000000D01*
X90235000Y-103000000D01*
X90243822Y-103000433D01*
X90243822Y-103000433D01*
G37*
D16*
X89875000Y-103500000D03*
D14*
G36*
X90243822Y-106000433D02*
G01*
X90252558Y-106001729D01*
X90261126Y-106003875D01*
X90269442Y-106006851D01*
X90277426Y-106010627D01*
X90285001Y-106015168D01*
X90292095Y-106020429D01*
X90298640Y-106026360D01*
X90304571Y-106032905D01*
X90309832Y-106039999D01*
X90314373Y-106047574D01*
X90318149Y-106055558D01*
X90321125Y-106063874D01*
X90323271Y-106072442D01*
X90324567Y-106081178D01*
X90325000Y-106090000D01*
X90325000Y-106910000D01*
X90324567Y-106918822D01*
X90323271Y-106927558D01*
X90321125Y-106936126D01*
X90318149Y-106944442D01*
X90314373Y-106952426D01*
X90309832Y-106960001D01*
X90304571Y-106967095D01*
X90298640Y-106973640D01*
X90292095Y-106979571D01*
X90285001Y-106984832D01*
X90277426Y-106989373D01*
X90269442Y-106993149D01*
X90261126Y-106996125D01*
X90252558Y-106998271D01*
X90243822Y-106999567D01*
X90235000Y-107000000D01*
X89515000Y-107000000D01*
X89506178Y-106999567D01*
X89497442Y-106998271D01*
X89488874Y-106996125D01*
X89480558Y-106993149D01*
X89472574Y-106989373D01*
X89464999Y-106984832D01*
X89457905Y-106979571D01*
X89451360Y-106973640D01*
X89445429Y-106967095D01*
X89440168Y-106960001D01*
X89435627Y-106952426D01*
X89431851Y-106944442D01*
X89428875Y-106936126D01*
X89426729Y-106927558D01*
X89425433Y-106918822D01*
X89425000Y-106910000D01*
X89425000Y-106090000D01*
X89425433Y-106081178D01*
X89426729Y-106072442D01*
X89428875Y-106063874D01*
X89431851Y-106055558D01*
X89435627Y-106047574D01*
X89440168Y-106039999D01*
X89445429Y-106032905D01*
X89451360Y-106026360D01*
X89457905Y-106020429D01*
X89464999Y-106015168D01*
X89472574Y-106010627D01*
X89480558Y-106006851D01*
X89488874Y-106003875D01*
X89497442Y-106001729D01*
X89506178Y-106000433D01*
X89515000Y-106000000D01*
X90235000Y-106000000D01*
X90243822Y-106000433D01*
X90243822Y-106000433D01*
G37*
D16*
X89875000Y-106500000D03*
D14*
G36*
X90270881Y-104600289D02*
G01*
X90276705Y-104601153D01*
X90282417Y-104602584D01*
X90287961Y-104604567D01*
X90293284Y-104607085D01*
X90298334Y-104610112D01*
X90303064Y-104613619D01*
X90307426Y-104617574D01*
X90311381Y-104621936D01*
X90314888Y-104626666D01*
X90317915Y-104631716D01*
X90320433Y-104637039D01*
X90322416Y-104642583D01*
X90323847Y-104648295D01*
X90324711Y-104654119D01*
X90325000Y-104660000D01*
X90325000Y-105340000D01*
X90324711Y-105345881D01*
X90323847Y-105351705D01*
X90322416Y-105357417D01*
X90320433Y-105362961D01*
X90317915Y-105368284D01*
X90314888Y-105373334D01*
X90311381Y-105378064D01*
X90307426Y-105382426D01*
X90303064Y-105386381D01*
X90298334Y-105389888D01*
X90293284Y-105392915D01*
X90287961Y-105395433D01*
X90282417Y-105397416D01*
X90276705Y-105398847D01*
X90270881Y-105399711D01*
X90265000Y-105400000D01*
X89785000Y-105400000D01*
X89779119Y-105399711D01*
X89773295Y-105398847D01*
X89767583Y-105397416D01*
X89762039Y-105395433D01*
X89756716Y-105392915D01*
X89751666Y-105389888D01*
X89746936Y-105386381D01*
X89742574Y-105382426D01*
X89738619Y-105378064D01*
X89735112Y-105373334D01*
X89732085Y-105368284D01*
X89729567Y-105362961D01*
X89727584Y-105357417D01*
X89726153Y-105351705D01*
X89725289Y-105345881D01*
X89725000Y-105340000D01*
X89725000Y-104660000D01*
X89725289Y-104654119D01*
X89726153Y-104648295D01*
X89727584Y-104642583D01*
X89729567Y-104637039D01*
X89732085Y-104631716D01*
X89735112Y-104626666D01*
X89738619Y-104621936D01*
X89742574Y-104617574D01*
X89746936Y-104613619D01*
X89751666Y-104610112D01*
X89756716Y-104607085D01*
X89762039Y-104604567D01*
X89767583Y-104602584D01*
X89773295Y-104601153D01*
X89779119Y-104600289D01*
X89785000Y-104600000D01*
X90265000Y-104600000D01*
X90270881Y-104600289D01*
X90270881Y-104600289D01*
G37*
D15*
X90025000Y-105000000D03*
D14*
G36*
X101545881Y-115550289D02*
G01*
X101551705Y-115551153D01*
X101557417Y-115552584D01*
X101562961Y-115554567D01*
X101568284Y-115557085D01*
X101573334Y-115560112D01*
X101578064Y-115563619D01*
X101582426Y-115567574D01*
X101586381Y-115571936D01*
X101589888Y-115576666D01*
X101592915Y-115581716D01*
X101595433Y-115587039D01*
X101597416Y-115592583D01*
X101598847Y-115598295D01*
X101599711Y-115604119D01*
X101600000Y-115610000D01*
X101600000Y-116090000D01*
X101599711Y-116095881D01*
X101598847Y-116101705D01*
X101597416Y-116107417D01*
X101595433Y-116112961D01*
X101592915Y-116118284D01*
X101589888Y-116123334D01*
X101586381Y-116128064D01*
X101582426Y-116132426D01*
X101578064Y-116136381D01*
X101573334Y-116139888D01*
X101568284Y-116142915D01*
X101562961Y-116145433D01*
X101557417Y-116147416D01*
X101551705Y-116148847D01*
X101545881Y-116149711D01*
X101540000Y-116150000D01*
X100860000Y-116150000D01*
X100854119Y-116149711D01*
X100848295Y-116148847D01*
X100842583Y-116147416D01*
X100837039Y-116145433D01*
X100831716Y-116142915D01*
X100826666Y-116139888D01*
X100821936Y-116136381D01*
X100817574Y-116132426D01*
X100813619Y-116128064D01*
X100810112Y-116123334D01*
X100807085Y-116118284D01*
X100804567Y-116112961D01*
X100802584Y-116107417D01*
X100801153Y-116101705D01*
X100800289Y-116095881D01*
X100800000Y-116090000D01*
X100800000Y-115610000D01*
X100800289Y-115604119D01*
X100801153Y-115598295D01*
X100802584Y-115592583D01*
X100804567Y-115587039D01*
X100807085Y-115581716D01*
X100810112Y-115576666D01*
X100813619Y-115571936D01*
X100817574Y-115567574D01*
X100821936Y-115563619D01*
X100826666Y-115560112D01*
X100831716Y-115557085D01*
X100837039Y-115554567D01*
X100842583Y-115552584D01*
X100848295Y-115551153D01*
X100854119Y-115550289D01*
X100860000Y-115550000D01*
X101540000Y-115550000D01*
X101545881Y-115550289D01*
X101545881Y-115550289D01*
G37*
D15*
X101200000Y-115850000D03*
D14*
G36*
X103118822Y-115550433D02*
G01*
X103127558Y-115551729D01*
X103136126Y-115553875D01*
X103144442Y-115556851D01*
X103152426Y-115560627D01*
X103160001Y-115565168D01*
X103167095Y-115570429D01*
X103173640Y-115576360D01*
X103179571Y-115582905D01*
X103184832Y-115589999D01*
X103189373Y-115597574D01*
X103193149Y-115605558D01*
X103196125Y-115613874D01*
X103198271Y-115622442D01*
X103199567Y-115631178D01*
X103200000Y-115640000D01*
X103200000Y-116360000D01*
X103199567Y-116368822D01*
X103198271Y-116377558D01*
X103196125Y-116386126D01*
X103193149Y-116394442D01*
X103189373Y-116402426D01*
X103184832Y-116410001D01*
X103179571Y-116417095D01*
X103173640Y-116423640D01*
X103167095Y-116429571D01*
X103160001Y-116434832D01*
X103152426Y-116439373D01*
X103144442Y-116443149D01*
X103136126Y-116446125D01*
X103127558Y-116448271D01*
X103118822Y-116449567D01*
X103110000Y-116450000D01*
X102290000Y-116450000D01*
X102281178Y-116449567D01*
X102272442Y-116448271D01*
X102263874Y-116446125D01*
X102255558Y-116443149D01*
X102247574Y-116439373D01*
X102239999Y-116434832D01*
X102232905Y-116429571D01*
X102226360Y-116423640D01*
X102220429Y-116417095D01*
X102215168Y-116410001D01*
X102210627Y-116402426D01*
X102206851Y-116394442D01*
X102203875Y-116386126D01*
X102201729Y-116377558D01*
X102200433Y-116368822D01*
X102200000Y-116360000D01*
X102200000Y-115640000D01*
X102200433Y-115631178D01*
X102201729Y-115622442D01*
X102203875Y-115613874D01*
X102206851Y-115605558D01*
X102210627Y-115597574D01*
X102215168Y-115589999D01*
X102220429Y-115582905D01*
X102226360Y-115576360D01*
X102232905Y-115570429D01*
X102239999Y-115565168D01*
X102247574Y-115560627D01*
X102255558Y-115556851D01*
X102263874Y-115553875D01*
X102272442Y-115551729D01*
X102281178Y-115550433D01*
X102290000Y-115550000D01*
X103110000Y-115550000D01*
X103118822Y-115550433D01*
X103118822Y-115550433D01*
G37*
D16*
X102700000Y-116000000D03*
D14*
G36*
X100118822Y-115550433D02*
G01*
X100127558Y-115551729D01*
X100136126Y-115553875D01*
X100144442Y-115556851D01*
X100152426Y-115560627D01*
X100160001Y-115565168D01*
X100167095Y-115570429D01*
X100173640Y-115576360D01*
X100179571Y-115582905D01*
X100184832Y-115589999D01*
X100189373Y-115597574D01*
X100193149Y-115605558D01*
X100196125Y-115613874D01*
X100198271Y-115622442D01*
X100199567Y-115631178D01*
X100200000Y-115640000D01*
X100200000Y-116360000D01*
X100199567Y-116368822D01*
X100198271Y-116377558D01*
X100196125Y-116386126D01*
X100193149Y-116394442D01*
X100189373Y-116402426D01*
X100184832Y-116410001D01*
X100179571Y-116417095D01*
X100173640Y-116423640D01*
X100167095Y-116429571D01*
X100160001Y-116434832D01*
X100152426Y-116439373D01*
X100144442Y-116443149D01*
X100136126Y-116446125D01*
X100127558Y-116448271D01*
X100118822Y-116449567D01*
X100110000Y-116450000D01*
X99290000Y-116450000D01*
X99281178Y-116449567D01*
X99272442Y-116448271D01*
X99263874Y-116446125D01*
X99255558Y-116443149D01*
X99247574Y-116439373D01*
X99239999Y-116434832D01*
X99232905Y-116429571D01*
X99226360Y-116423640D01*
X99220429Y-116417095D01*
X99215168Y-116410001D01*
X99210627Y-116402426D01*
X99206851Y-116394442D01*
X99203875Y-116386126D01*
X99201729Y-116377558D01*
X99200433Y-116368822D01*
X99200000Y-116360000D01*
X99200000Y-115640000D01*
X99200433Y-115631178D01*
X99201729Y-115622442D01*
X99203875Y-115613874D01*
X99206851Y-115605558D01*
X99210627Y-115597574D01*
X99215168Y-115589999D01*
X99220429Y-115582905D01*
X99226360Y-115576360D01*
X99232905Y-115570429D01*
X99239999Y-115565168D01*
X99247574Y-115560627D01*
X99255558Y-115556851D01*
X99263874Y-115553875D01*
X99272442Y-115551729D01*
X99281178Y-115550433D01*
X99290000Y-115550000D01*
X100110000Y-115550000D01*
X100118822Y-115550433D01*
X100118822Y-115550433D01*
G37*
D16*
X99700000Y-116000000D03*
D14*
G36*
X119143822Y-99275433D02*
G01*
X119152558Y-99276729D01*
X119161126Y-99278875D01*
X119169442Y-99281851D01*
X119177426Y-99285627D01*
X119185001Y-99290168D01*
X119192095Y-99295429D01*
X119198640Y-99301360D01*
X119204571Y-99307905D01*
X119209832Y-99314999D01*
X119214373Y-99322574D01*
X119218149Y-99330558D01*
X119221125Y-99338874D01*
X119223271Y-99347442D01*
X119224567Y-99356178D01*
X119225000Y-99365000D01*
X119225000Y-100085000D01*
X119224567Y-100093822D01*
X119223271Y-100102558D01*
X119221125Y-100111126D01*
X119218149Y-100119442D01*
X119214373Y-100127426D01*
X119209832Y-100135001D01*
X119204571Y-100142095D01*
X119198640Y-100148640D01*
X119192095Y-100154571D01*
X119185001Y-100159832D01*
X119177426Y-100164373D01*
X119169442Y-100168149D01*
X119161126Y-100171125D01*
X119152558Y-100173271D01*
X119143822Y-100174567D01*
X119135000Y-100175000D01*
X118315000Y-100175000D01*
X118306178Y-100174567D01*
X118297442Y-100173271D01*
X118288874Y-100171125D01*
X118280558Y-100168149D01*
X118272574Y-100164373D01*
X118264999Y-100159832D01*
X118257905Y-100154571D01*
X118251360Y-100148640D01*
X118245429Y-100142095D01*
X118240168Y-100135001D01*
X118235627Y-100127426D01*
X118231851Y-100119442D01*
X118228875Y-100111126D01*
X118226729Y-100102558D01*
X118225433Y-100093822D01*
X118225000Y-100085000D01*
X118225000Y-99365000D01*
X118225433Y-99356178D01*
X118226729Y-99347442D01*
X118228875Y-99338874D01*
X118231851Y-99330558D01*
X118235627Y-99322574D01*
X118240168Y-99314999D01*
X118245429Y-99307905D01*
X118251360Y-99301360D01*
X118257905Y-99295429D01*
X118264999Y-99290168D01*
X118272574Y-99285627D01*
X118280558Y-99281851D01*
X118288874Y-99278875D01*
X118297442Y-99276729D01*
X118306178Y-99275433D01*
X118315000Y-99275000D01*
X119135000Y-99275000D01*
X119143822Y-99275433D01*
X119143822Y-99275433D01*
G37*
D16*
X118725000Y-99725000D03*
D14*
G36*
X116143822Y-99275433D02*
G01*
X116152558Y-99276729D01*
X116161126Y-99278875D01*
X116169442Y-99281851D01*
X116177426Y-99285627D01*
X116185001Y-99290168D01*
X116192095Y-99295429D01*
X116198640Y-99301360D01*
X116204571Y-99307905D01*
X116209832Y-99314999D01*
X116214373Y-99322574D01*
X116218149Y-99330558D01*
X116221125Y-99338874D01*
X116223271Y-99347442D01*
X116224567Y-99356178D01*
X116225000Y-99365000D01*
X116225000Y-100085000D01*
X116224567Y-100093822D01*
X116223271Y-100102558D01*
X116221125Y-100111126D01*
X116218149Y-100119442D01*
X116214373Y-100127426D01*
X116209832Y-100135001D01*
X116204571Y-100142095D01*
X116198640Y-100148640D01*
X116192095Y-100154571D01*
X116185001Y-100159832D01*
X116177426Y-100164373D01*
X116169442Y-100168149D01*
X116161126Y-100171125D01*
X116152558Y-100173271D01*
X116143822Y-100174567D01*
X116135000Y-100175000D01*
X115315000Y-100175000D01*
X115306178Y-100174567D01*
X115297442Y-100173271D01*
X115288874Y-100171125D01*
X115280558Y-100168149D01*
X115272574Y-100164373D01*
X115264999Y-100159832D01*
X115257905Y-100154571D01*
X115251360Y-100148640D01*
X115245429Y-100142095D01*
X115240168Y-100135001D01*
X115235627Y-100127426D01*
X115231851Y-100119442D01*
X115228875Y-100111126D01*
X115226729Y-100102558D01*
X115225433Y-100093822D01*
X115225000Y-100085000D01*
X115225000Y-99365000D01*
X115225433Y-99356178D01*
X115226729Y-99347442D01*
X115228875Y-99338874D01*
X115231851Y-99330558D01*
X115235627Y-99322574D01*
X115240168Y-99314999D01*
X115245429Y-99307905D01*
X115251360Y-99301360D01*
X115257905Y-99295429D01*
X115264999Y-99290168D01*
X115272574Y-99285627D01*
X115280558Y-99281851D01*
X115288874Y-99278875D01*
X115297442Y-99276729D01*
X115306178Y-99275433D01*
X115315000Y-99275000D01*
X116135000Y-99275000D01*
X116143822Y-99275433D01*
X116143822Y-99275433D01*
G37*
D16*
X115725000Y-99725000D03*
D14*
G36*
X117570881Y-99575289D02*
G01*
X117576705Y-99576153D01*
X117582417Y-99577584D01*
X117587961Y-99579567D01*
X117593284Y-99582085D01*
X117598334Y-99585112D01*
X117603064Y-99588619D01*
X117607426Y-99592574D01*
X117611381Y-99596936D01*
X117614888Y-99601666D01*
X117617915Y-99606716D01*
X117620433Y-99612039D01*
X117622416Y-99617583D01*
X117623847Y-99623295D01*
X117624711Y-99629119D01*
X117625000Y-99635000D01*
X117625000Y-100115000D01*
X117624711Y-100120881D01*
X117623847Y-100126705D01*
X117622416Y-100132417D01*
X117620433Y-100137961D01*
X117617915Y-100143284D01*
X117614888Y-100148334D01*
X117611381Y-100153064D01*
X117607426Y-100157426D01*
X117603064Y-100161381D01*
X117598334Y-100164888D01*
X117593284Y-100167915D01*
X117587961Y-100170433D01*
X117582417Y-100172416D01*
X117576705Y-100173847D01*
X117570881Y-100174711D01*
X117565000Y-100175000D01*
X116885000Y-100175000D01*
X116879119Y-100174711D01*
X116873295Y-100173847D01*
X116867583Y-100172416D01*
X116862039Y-100170433D01*
X116856716Y-100167915D01*
X116851666Y-100164888D01*
X116846936Y-100161381D01*
X116842574Y-100157426D01*
X116838619Y-100153064D01*
X116835112Y-100148334D01*
X116832085Y-100143284D01*
X116829567Y-100137961D01*
X116827584Y-100132417D01*
X116826153Y-100126705D01*
X116825289Y-100120881D01*
X116825000Y-100115000D01*
X116825000Y-99635000D01*
X116825289Y-99629119D01*
X116826153Y-99623295D01*
X116827584Y-99617583D01*
X116829567Y-99612039D01*
X116832085Y-99606716D01*
X116835112Y-99601666D01*
X116838619Y-99596936D01*
X116842574Y-99592574D01*
X116846936Y-99588619D01*
X116851666Y-99585112D01*
X116856716Y-99582085D01*
X116862039Y-99579567D01*
X116867583Y-99577584D01*
X116873295Y-99576153D01*
X116879119Y-99575289D01*
X116885000Y-99575000D01*
X117565000Y-99575000D01*
X117570881Y-99575289D01*
X117570881Y-99575289D01*
G37*
D15*
X117225000Y-99875000D03*
D14*
G36*
X114545881Y-104250289D02*
G01*
X114551705Y-104251153D01*
X114557417Y-104252584D01*
X114562961Y-104254567D01*
X114568284Y-104257085D01*
X114573334Y-104260112D01*
X114578064Y-104263619D01*
X114582426Y-104267574D01*
X114586381Y-104271936D01*
X114589888Y-104276666D01*
X114592915Y-104281716D01*
X114595433Y-104287039D01*
X114597416Y-104292583D01*
X114598847Y-104298295D01*
X114599711Y-104304119D01*
X114600000Y-104310000D01*
X114600000Y-104990000D01*
X114599711Y-104995881D01*
X114598847Y-105001705D01*
X114597416Y-105007417D01*
X114595433Y-105012961D01*
X114592915Y-105018284D01*
X114589888Y-105023334D01*
X114586381Y-105028064D01*
X114582426Y-105032426D01*
X114578064Y-105036381D01*
X114573334Y-105039888D01*
X114568284Y-105042915D01*
X114562961Y-105045433D01*
X114557417Y-105047416D01*
X114551705Y-105048847D01*
X114545881Y-105049711D01*
X114540000Y-105050000D01*
X114060000Y-105050000D01*
X114054119Y-105049711D01*
X114048295Y-105048847D01*
X114042583Y-105047416D01*
X114037039Y-105045433D01*
X114031716Y-105042915D01*
X114026666Y-105039888D01*
X114021936Y-105036381D01*
X114017574Y-105032426D01*
X114013619Y-105028064D01*
X114010112Y-105023334D01*
X114007085Y-105018284D01*
X114004567Y-105012961D01*
X114002584Y-105007417D01*
X114001153Y-105001705D01*
X114000289Y-104995881D01*
X114000000Y-104990000D01*
X114000000Y-104310000D01*
X114000289Y-104304119D01*
X114001153Y-104298295D01*
X114002584Y-104292583D01*
X114004567Y-104287039D01*
X114007085Y-104281716D01*
X114010112Y-104276666D01*
X114013619Y-104271936D01*
X114017574Y-104267574D01*
X114021936Y-104263619D01*
X114026666Y-104260112D01*
X114031716Y-104257085D01*
X114037039Y-104254567D01*
X114042583Y-104252584D01*
X114048295Y-104251153D01*
X114054119Y-104250289D01*
X114060000Y-104250000D01*
X114540000Y-104250000D01*
X114545881Y-104250289D01*
X114545881Y-104250289D01*
G37*
D15*
X114300000Y-104650000D03*
D14*
G36*
X114818822Y-102650433D02*
G01*
X114827558Y-102651729D01*
X114836126Y-102653875D01*
X114844442Y-102656851D01*
X114852426Y-102660627D01*
X114860001Y-102665168D01*
X114867095Y-102670429D01*
X114873640Y-102676360D01*
X114879571Y-102682905D01*
X114884832Y-102689999D01*
X114889373Y-102697574D01*
X114893149Y-102705558D01*
X114896125Y-102713874D01*
X114898271Y-102722442D01*
X114899567Y-102731178D01*
X114900000Y-102740000D01*
X114900000Y-103560000D01*
X114899567Y-103568822D01*
X114898271Y-103577558D01*
X114896125Y-103586126D01*
X114893149Y-103594442D01*
X114889373Y-103602426D01*
X114884832Y-103610001D01*
X114879571Y-103617095D01*
X114873640Y-103623640D01*
X114867095Y-103629571D01*
X114860001Y-103634832D01*
X114852426Y-103639373D01*
X114844442Y-103643149D01*
X114836126Y-103646125D01*
X114827558Y-103648271D01*
X114818822Y-103649567D01*
X114810000Y-103650000D01*
X114090000Y-103650000D01*
X114081178Y-103649567D01*
X114072442Y-103648271D01*
X114063874Y-103646125D01*
X114055558Y-103643149D01*
X114047574Y-103639373D01*
X114039999Y-103634832D01*
X114032905Y-103629571D01*
X114026360Y-103623640D01*
X114020429Y-103617095D01*
X114015168Y-103610001D01*
X114010627Y-103602426D01*
X114006851Y-103594442D01*
X114003875Y-103586126D01*
X114001729Y-103577558D01*
X114000433Y-103568822D01*
X114000000Y-103560000D01*
X114000000Y-102740000D01*
X114000433Y-102731178D01*
X114001729Y-102722442D01*
X114003875Y-102713874D01*
X114006851Y-102705558D01*
X114010627Y-102697574D01*
X114015168Y-102689999D01*
X114020429Y-102682905D01*
X114026360Y-102676360D01*
X114032905Y-102670429D01*
X114039999Y-102665168D01*
X114047574Y-102660627D01*
X114055558Y-102656851D01*
X114063874Y-102653875D01*
X114072442Y-102651729D01*
X114081178Y-102650433D01*
X114090000Y-102650000D01*
X114810000Y-102650000D01*
X114818822Y-102650433D01*
X114818822Y-102650433D01*
G37*
D16*
X114450000Y-103150000D03*
D14*
G36*
X114818822Y-105650433D02*
G01*
X114827558Y-105651729D01*
X114836126Y-105653875D01*
X114844442Y-105656851D01*
X114852426Y-105660627D01*
X114860001Y-105665168D01*
X114867095Y-105670429D01*
X114873640Y-105676360D01*
X114879571Y-105682905D01*
X114884832Y-105689999D01*
X114889373Y-105697574D01*
X114893149Y-105705558D01*
X114896125Y-105713874D01*
X114898271Y-105722442D01*
X114899567Y-105731178D01*
X114900000Y-105740000D01*
X114900000Y-106560000D01*
X114899567Y-106568822D01*
X114898271Y-106577558D01*
X114896125Y-106586126D01*
X114893149Y-106594442D01*
X114889373Y-106602426D01*
X114884832Y-106610001D01*
X114879571Y-106617095D01*
X114873640Y-106623640D01*
X114867095Y-106629571D01*
X114860001Y-106634832D01*
X114852426Y-106639373D01*
X114844442Y-106643149D01*
X114836126Y-106646125D01*
X114827558Y-106648271D01*
X114818822Y-106649567D01*
X114810000Y-106650000D01*
X114090000Y-106650000D01*
X114081178Y-106649567D01*
X114072442Y-106648271D01*
X114063874Y-106646125D01*
X114055558Y-106643149D01*
X114047574Y-106639373D01*
X114039999Y-106634832D01*
X114032905Y-106629571D01*
X114026360Y-106623640D01*
X114020429Y-106617095D01*
X114015168Y-106610001D01*
X114010627Y-106602426D01*
X114006851Y-106594442D01*
X114003875Y-106586126D01*
X114001729Y-106577558D01*
X114000433Y-106568822D01*
X114000000Y-106560000D01*
X114000000Y-105740000D01*
X114000433Y-105731178D01*
X114001729Y-105722442D01*
X114003875Y-105713874D01*
X114006851Y-105705558D01*
X114010627Y-105697574D01*
X114015168Y-105689999D01*
X114020429Y-105682905D01*
X114026360Y-105676360D01*
X114032905Y-105670429D01*
X114039999Y-105665168D01*
X114047574Y-105660627D01*
X114055558Y-105656851D01*
X114063874Y-105653875D01*
X114072442Y-105651729D01*
X114081178Y-105650433D01*
X114090000Y-105650000D01*
X114810000Y-105650000D01*
X114818822Y-105650433D01*
X114818822Y-105650433D01*
G37*
D16*
X114450000Y-106150000D03*
D14*
G36*
X91324505Y-99301204D02*
G01*
X91348773Y-99304804D01*
X91372572Y-99310765D01*
X91395671Y-99319030D01*
X91417850Y-99329520D01*
X91438893Y-99342132D01*
X91458599Y-99356747D01*
X91476777Y-99373223D01*
X91493253Y-99391401D01*
X91507868Y-99411107D01*
X91520480Y-99432150D01*
X91530970Y-99454329D01*
X91539235Y-99477428D01*
X91545196Y-99501227D01*
X91548796Y-99525495D01*
X91550000Y-99549999D01*
X91550000Y-100450001D01*
X91548796Y-100474505D01*
X91545196Y-100498773D01*
X91539235Y-100522572D01*
X91530970Y-100545671D01*
X91520480Y-100567850D01*
X91507868Y-100588893D01*
X91493253Y-100608599D01*
X91476777Y-100626777D01*
X91458599Y-100643253D01*
X91438893Y-100657868D01*
X91417850Y-100670480D01*
X91395671Y-100680970D01*
X91372572Y-100689235D01*
X91348773Y-100695196D01*
X91324505Y-100698796D01*
X91300001Y-100700000D01*
X90649999Y-100700000D01*
X90625495Y-100698796D01*
X90601227Y-100695196D01*
X90577428Y-100689235D01*
X90554329Y-100680970D01*
X90532150Y-100670480D01*
X90511107Y-100657868D01*
X90491401Y-100643253D01*
X90473223Y-100626777D01*
X90456747Y-100608599D01*
X90442132Y-100588893D01*
X90429520Y-100567850D01*
X90419030Y-100545671D01*
X90410765Y-100522572D01*
X90404804Y-100498773D01*
X90401204Y-100474505D01*
X90400000Y-100450001D01*
X90400000Y-99549999D01*
X90401204Y-99525495D01*
X90404804Y-99501227D01*
X90410765Y-99477428D01*
X90419030Y-99454329D01*
X90429520Y-99432150D01*
X90442132Y-99411107D01*
X90456747Y-99391401D01*
X90473223Y-99373223D01*
X90491401Y-99356747D01*
X90511107Y-99342132D01*
X90532150Y-99329520D01*
X90554329Y-99319030D01*
X90577428Y-99310765D01*
X90601227Y-99304804D01*
X90625495Y-99301204D01*
X90649999Y-99300000D01*
X91300001Y-99300000D01*
X91324505Y-99301204D01*
X91324505Y-99301204D01*
G37*
D17*
X90975000Y-100000000D03*
D14*
G36*
X93374505Y-99301204D02*
G01*
X93398773Y-99304804D01*
X93422572Y-99310765D01*
X93445671Y-99319030D01*
X93467850Y-99329520D01*
X93488893Y-99342132D01*
X93508599Y-99356747D01*
X93526777Y-99373223D01*
X93543253Y-99391401D01*
X93557868Y-99411107D01*
X93570480Y-99432150D01*
X93580970Y-99454329D01*
X93589235Y-99477428D01*
X93595196Y-99501227D01*
X93598796Y-99525495D01*
X93600000Y-99549999D01*
X93600000Y-100450001D01*
X93598796Y-100474505D01*
X93595196Y-100498773D01*
X93589235Y-100522572D01*
X93580970Y-100545671D01*
X93570480Y-100567850D01*
X93557868Y-100588893D01*
X93543253Y-100608599D01*
X93526777Y-100626777D01*
X93508599Y-100643253D01*
X93488893Y-100657868D01*
X93467850Y-100670480D01*
X93445671Y-100680970D01*
X93422572Y-100689235D01*
X93398773Y-100695196D01*
X93374505Y-100698796D01*
X93350001Y-100700000D01*
X92699999Y-100700000D01*
X92675495Y-100698796D01*
X92651227Y-100695196D01*
X92627428Y-100689235D01*
X92604329Y-100680970D01*
X92582150Y-100670480D01*
X92561107Y-100657868D01*
X92541401Y-100643253D01*
X92523223Y-100626777D01*
X92506747Y-100608599D01*
X92492132Y-100588893D01*
X92479520Y-100567850D01*
X92469030Y-100545671D01*
X92460765Y-100522572D01*
X92454804Y-100498773D01*
X92451204Y-100474505D01*
X92450000Y-100450001D01*
X92450000Y-99549999D01*
X92451204Y-99525495D01*
X92454804Y-99501227D01*
X92460765Y-99477428D01*
X92469030Y-99454329D01*
X92479520Y-99432150D01*
X92492132Y-99411107D01*
X92506747Y-99391401D01*
X92523223Y-99373223D01*
X92541401Y-99356747D01*
X92561107Y-99342132D01*
X92582150Y-99329520D01*
X92604329Y-99319030D01*
X92627428Y-99310765D01*
X92651227Y-99304804D01*
X92675495Y-99301204D01*
X92699999Y-99300000D01*
X93350001Y-99300000D01*
X93374505Y-99301204D01*
X93374505Y-99301204D01*
G37*
D17*
X93025000Y-100000000D03*
D14*
G36*
X100999505Y-112326204D02*
G01*
X101023773Y-112329804D01*
X101047572Y-112335765D01*
X101070671Y-112344030D01*
X101092850Y-112354520D01*
X101113893Y-112367132D01*
X101133599Y-112381747D01*
X101151777Y-112398223D01*
X101168253Y-112416401D01*
X101182868Y-112436107D01*
X101195480Y-112457150D01*
X101205970Y-112479329D01*
X101214235Y-112502428D01*
X101220196Y-112526227D01*
X101223796Y-112550495D01*
X101225000Y-112574999D01*
X101225000Y-113475001D01*
X101223796Y-113499505D01*
X101220196Y-113523773D01*
X101214235Y-113547572D01*
X101205970Y-113570671D01*
X101195480Y-113592850D01*
X101182868Y-113613893D01*
X101168253Y-113633599D01*
X101151777Y-113651777D01*
X101133599Y-113668253D01*
X101113893Y-113682868D01*
X101092850Y-113695480D01*
X101070671Y-113705970D01*
X101047572Y-113714235D01*
X101023773Y-113720196D01*
X100999505Y-113723796D01*
X100975001Y-113725000D01*
X100324999Y-113725000D01*
X100300495Y-113723796D01*
X100276227Y-113720196D01*
X100252428Y-113714235D01*
X100229329Y-113705970D01*
X100207150Y-113695480D01*
X100186107Y-113682868D01*
X100166401Y-113668253D01*
X100148223Y-113651777D01*
X100131747Y-113633599D01*
X100117132Y-113613893D01*
X100104520Y-113592850D01*
X100094030Y-113570671D01*
X100085765Y-113547572D01*
X100079804Y-113523773D01*
X100076204Y-113499505D01*
X100075000Y-113475001D01*
X100075000Y-112574999D01*
X100076204Y-112550495D01*
X100079804Y-112526227D01*
X100085765Y-112502428D01*
X100094030Y-112479329D01*
X100104520Y-112457150D01*
X100117132Y-112436107D01*
X100131747Y-112416401D01*
X100148223Y-112398223D01*
X100166401Y-112381747D01*
X100186107Y-112367132D01*
X100207150Y-112354520D01*
X100229329Y-112344030D01*
X100252428Y-112335765D01*
X100276227Y-112329804D01*
X100300495Y-112326204D01*
X100324999Y-112325000D01*
X100975001Y-112325000D01*
X100999505Y-112326204D01*
X100999505Y-112326204D01*
G37*
D17*
X100650000Y-113025000D03*
D14*
G36*
X103049505Y-112326204D02*
G01*
X103073773Y-112329804D01*
X103097572Y-112335765D01*
X103120671Y-112344030D01*
X103142850Y-112354520D01*
X103163893Y-112367132D01*
X103183599Y-112381747D01*
X103201777Y-112398223D01*
X103218253Y-112416401D01*
X103232868Y-112436107D01*
X103245480Y-112457150D01*
X103255970Y-112479329D01*
X103264235Y-112502428D01*
X103270196Y-112526227D01*
X103273796Y-112550495D01*
X103275000Y-112574999D01*
X103275000Y-113475001D01*
X103273796Y-113499505D01*
X103270196Y-113523773D01*
X103264235Y-113547572D01*
X103255970Y-113570671D01*
X103245480Y-113592850D01*
X103232868Y-113613893D01*
X103218253Y-113633599D01*
X103201777Y-113651777D01*
X103183599Y-113668253D01*
X103163893Y-113682868D01*
X103142850Y-113695480D01*
X103120671Y-113705970D01*
X103097572Y-113714235D01*
X103073773Y-113720196D01*
X103049505Y-113723796D01*
X103025001Y-113725000D01*
X102374999Y-113725000D01*
X102350495Y-113723796D01*
X102326227Y-113720196D01*
X102302428Y-113714235D01*
X102279329Y-113705970D01*
X102257150Y-113695480D01*
X102236107Y-113682868D01*
X102216401Y-113668253D01*
X102198223Y-113651777D01*
X102181747Y-113633599D01*
X102167132Y-113613893D01*
X102154520Y-113592850D01*
X102144030Y-113570671D01*
X102135765Y-113547572D01*
X102129804Y-113523773D01*
X102126204Y-113499505D01*
X102125000Y-113475001D01*
X102125000Y-112574999D01*
X102126204Y-112550495D01*
X102129804Y-112526227D01*
X102135765Y-112502428D01*
X102144030Y-112479329D01*
X102154520Y-112457150D01*
X102167132Y-112436107D01*
X102181747Y-112416401D01*
X102198223Y-112398223D01*
X102216401Y-112381747D01*
X102236107Y-112367132D01*
X102257150Y-112354520D01*
X102279329Y-112344030D01*
X102302428Y-112335765D01*
X102326227Y-112329804D01*
X102350495Y-112326204D01*
X102374999Y-112325000D01*
X103025001Y-112325000D01*
X103049505Y-112326204D01*
X103049505Y-112326204D01*
G37*
D17*
X102700000Y-113025000D03*
D14*
G36*
X108974505Y-103151204D02*
G01*
X108998773Y-103154804D01*
X109022572Y-103160765D01*
X109045671Y-103169030D01*
X109067850Y-103179520D01*
X109088893Y-103192132D01*
X109108599Y-103206747D01*
X109126777Y-103223223D01*
X109143253Y-103241401D01*
X109157868Y-103261107D01*
X109170480Y-103282150D01*
X109180970Y-103304329D01*
X109189235Y-103327428D01*
X109195196Y-103351227D01*
X109198796Y-103375495D01*
X109200000Y-103399999D01*
X109200000Y-104050001D01*
X109198796Y-104074505D01*
X109195196Y-104098773D01*
X109189235Y-104122572D01*
X109180970Y-104145671D01*
X109170480Y-104167850D01*
X109157868Y-104188893D01*
X109143253Y-104208599D01*
X109126777Y-104226777D01*
X109108599Y-104243253D01*
X109088893Y-104257868D01*
X109067850Y-104270480D01*
X109045671Y-104280970D01*
X109022572Y-104289235D01*
X108998773Y-104295196D01*
X108974505Y-104298796D01*
X108950001Y-104300000D01*
X108049999Y-104300000D01*
X108025495Y-104298796D01*
X108001227Y-104295196D01*
X107977428Y-104289235D01*
X107954329Y-104280970D01*
X107932150Y-104270480D01*
X107911107Y-104257868D01*
X107891401Y-104243253D01*
X107873223Y-104226777D01*
X107856747Y-104208599D01*
X107842132Y-104188893D01*
X107829520Y-104167850D01*
X107819030Y-104145671D01*
X107810765Y-104122572D01*
X107804804Y-104098773D01*
X107801204Y-104074505D01*
X107800000Y-104050001D01*
X107800000Y-103399999D01*
X107801204Y-103375495D01*
X107804804Y-103351227D01*
X107810765Y-103327428D01*
X107819030Y-103304329D01*
X107829520Y-103282150D01*
X107842132Y-103261107D01*
X107856747Y-103241401D01*
X107873223Y-103223223D01*
X107891401Y-103206747D01*
X107911107Y-103192132D01*
X107932150Y-103179520D01*
X107954329Y-103169030D01*
X107977428Y-103160765D01*
X108001227Y-103154804D01*
X108025495Y-103151204D01*
X108049999Y-103150000D01*
X108950001Y-103150000D01*
X108974505Y-103151204D01*
X108974505Y-103151204D01*
G37*
D17*
X108500000Y-103725000D03*
D14*
G36*
X108974505Y-105201204D02*
G01*
X108998773Y-105204804D01*
X109022572Y-105210765D01*
X109045671Y-105219030D01*
X109067850Y-105229520D01*
X109088893Y-105242132D01*
X109108599Y-105256747D01*
X109126777Y-105273223D01*
X109143253Y-105291401D01*
X109157868Y-105311107D01*
X109170480Y-105332150D01*
X109180970Y-105354329D01*
X109189235Y-105377428D01*
X109195196Y-105401227D01*
X109198796Y-105425495D01*
X109200000Y-105449999D01*
X109200000Y-106100001D01*
X109198796Y-106124505D01*
X109195196Y-106148773D01*
X109189235Y-106172572D01*
X109180970Y-106195671D01*
X109170480Y-106217850D01*
X109157868Y-106238893D01*
X109143253Y-106258599D01*
X109126777Y-106276777D01*
X109108599Y-106293253D01*
X109088893Y-106307868D01*
X109067850Y-106320480D01*
X109045671Y-106330970D01*
X109022572Y-106339235D01*
X108998773Y-106345196D01*
X108974505Y-106348796D01*
X108950001Y-106350000D01*
X108049999Y-106350000D01*
X108025495Y-106348796D01*
X108001227Y-106345196D01*
X107977428Y-106339235D01*
X107954329Y-106330970D01*
X107932150Y-106320480D01*
X107911107Y-106307868D01*
X107891401Y-106293253D01*
X107873223Y-106276777D01*
X107856747Y-106258599D01*
X107842132Y-106238893D01*
X107829520Y-106217850D01*
X107819030Y-106195671D01*
X107810765Y-106172572D01*
X107804804Y-106148773D01*
X107801204Y-106124505D01*
X107800000Y-106100001D01*
X107800000Y-105449999D01*
X107801204Y-105425495D01*
X107804804Y-105401227D01*
X107810765Y-105377428D01*
X107819030Y-105354329D01*
X107829520Y-105332150D01*
X107842132Y-105311107D01*
X107856747Y-105291401D01*
X107873223Y-105273223D01*
X107891401Y-105256747D01*
X107911107Y-105242132D01*
X107932150Y-105229520D01*
X107954329Y-105219030D01*
X107977428Y-105210765D01*
X108001227Y-105204804D01*
X108025495Y-105201204D01*
X108049999Y-105200000D01*
X108950001Y-105200000D01*
X108974505Y-105201204D01*
X108974505Y-105201204D01*
G37*
D17*
X108500000Y-105775000D03*
D14*
G36*
X89448162Y-110394945D02*
G01*
X89456898Y-110396241D01*
X89465466Y-110398387D01*
X89473782Y-110401363D01*
X89481766Y-110405139D01*
X89489341Y-110409680D01*
X89496435Y-110414941D01*
X89502980Y-110420872D01*
X90082807Y-111000699D01*
X90088738Y-111007244D01*
X90093999Y-111014338D01*
X90098540Y-111021913D01*
X90102316Y-111029897D01*
X90105292Y-111038213D01*
X90107438Y-111046781D01*
X90108734Y-111055517D01*
X90109167Y-111064339D01*
X90108734Y-111073161D01*
X90107438Y-111081897D01*
X90105292Y-111090465D01*
X90102316Y-111098781D01*
X90098540Y-111106765D01*
X90093999Y-111114340D01*
X90088738Y-111121434D01*
X90082807Y-111127979D01*
X89573690Y-111637096D01*
X89567145Y-111643027D01*
X89560051Y-111648288D01*
X89552476Y-111652829D01*
X89544492Y-111656605D01*
X89536176Y-111659581D01*
X89527608Y-111661727D01*
X89518872Y-111663023D01*
X89510050Y-111663456D01*
X89501228Y-111663023D01*
X89492492Y-111661727D01*
X89483924Y-111659581D01*
X89475608Y-111656605D01*
X89467624Y-111652829D01*
X89460049Y-111648288D01*
X89452955Y-111643027D01*
X89446410Y-111637096D01*
X88866583Y-111057269D01*
X88860652Y-111050724D01*
X88855391Y-111043630D01*
X88850850Y-111036055D01*
X88847074Y-111028071D01*
X88844098Y-111019755D01*
X88841952Y-111011187D01*
X88840656Y-111002451D01*
X88840223Y-110993629D01*
X88840656Y-110984807D01*
X88841952Y-110976071D01*
X88844098Y-110967503D01*
X88847074Y-110959187D01*
X88850850Y-110951203D01*
X88855391Y-110943628D01*
X88860652Y-110936534D01*
X88866583Y-110929989D01*
X89375700Y-110420872D01*
X89382245Y-110414941D01*
X89389339Y-110409680D01*
X89396914Y-110405139D01*
X89404898Y-110401363D01*
X89413214Y-110398387D01*
X89421782Y-110396241D01*
X89430518Y-110394945D01*
X89439340Y-110394512D01*
X89448162Y-110394945D01*
X89448162Y-110394945D01*
G37*
D16*
X89474695Y-111028984D03*
D14*
G36*
X91569483Y-112516266D02*
G01*
X91578219Y-112517562D01*
X91586787Y-112519708D01*
X91595103Y-112522684D01*
X91603087Y-112526460D01*
X91610662Y-112531001D01*
X91617756Y-112536262D01*
X91624301Y-112542193D01*
X92204128Y-113122020D01*
X92210059Y-113128565D01*
X92215320Y-113135659D01*
X92219861Y-113143234D01*
X92223637Y-113151218D01*
X92226613Y-113159534D01*
X92228759Y-113168102D01*
X92230055Y-113176838D01*
X92230488Y-113185660D01*
X92230055Y-113194482D01*
X92228759Y-113203218D01*
X92226613Y-113211786D01*
X92223637Y-113220102D01*
X92219861Y-113228086D01*
X92215320Y-113235661D01*
X92210059Y-113242755D01*
X92204128Y-113249300D01*
X91695011Y-113758417D01*
X91688466Y-113764348D01*
X91681372Y-113769609D01*
X91673797Y-113774150D01*
X91665813Y-113777926D01*
X91657497Y-113780902D01*
X91648929Y-113783048D01*
X91640193Y-113784344D01*
X91631371Y-113784777D01*
X91622549Y-113784344D01*
X91613813Y-113783048D01*
X91605245Y-113780902D01*
X91596929Y-113777926D01*
X91588945Y-113774150D01*
X91581370Y-113769609D01*
X91574276Y-113764348D01*
X91567731Y-113758417D01*
X90987904Y-113178590D01*
X90981973Y-113172045D01*
X90976712Y-113164951D01*
X90972171Y-113157376D01*
X90968395Y-113149392D01*
X90965419Y-113141076D01*
X90963273Y-113132508D01*
X90961977Y-113123772D01*
X90961544Y-113114950D01*
X90961977Y-113106128D01*
X90963273Y-113097392D01*
X90965419Y-113088824D01*
X90968395Y-113080508D01*
X90972171Y-113072524D01*
X90976712Y-113064949D01*
X90981973Y-113057855D01*
X90987904Y-113051310D01*
X91497021Y-112542193D01*
X91503566Y-112536262D01*
X91510660Y-112531001D01*
X91518235Y-112526460D01*
X91526219Y-112522684D01*
X91534535Y-112519708D01*
X91543103Y-112517562D01*
X91551839Y-112516266D01*
X91560661Y-112515833D01*
X91569483Y-112516266D01*
X91569483Y-112516266D01*
G37*
D16*
X91596016Y-113150305D03*
D14*
G36*
X90576591Y-111513746D02*
G01*
X90582415Y-111514610D01*
X90588127Y-111516041D01*
X90593671Y-111518024D01*
X90598994Y-111520542D01*
X90604044Y-111523569D01*
X90608774Y-111527076D01*
X90613136Y-111531031D01*
X91093969Y-112011864D01*
X91097924Y-112016226D01*
X91101431Y-112020956D01*
X91104458Y-112026006D01*
X91106976Y-112031329D01*
X91108959Y-112036873D01*
X91110390Y-112042585D01*
X91111254Y-112048409D01*
X91111543Y-112054290D01*
X91111254Y-112060171D01*
X91110390Y-112065995D01*
X91108959Y-112071707D01*
X91106976Y-112077251D01*
X91104458Y-112082574D01*
X91101431Y-112087624D01*
X91097924Y-112092354D01*
X91093969Y-112096716D01*
X90754558Y-112436127D01*
X90750196Y-112440082D01*
X90745466Y-112443589D01*
X90740416Y-112446616D01*
X90735093Y-112449134D01*
X90729549Y-112451117D01*
X90723837Y-112452548D01*
X90718013Y-112453412D01*
X90712132Y-112453701D01*
X90706251Y-112453412D01*
X90700427Y-112452548D01*
X90694715Y-112451117D01*
X90689171Y-112449134D01*
X90683848Y-112446616D01*
X90678798Y-112443589D01*
X90674068Y-112440082D01*
X90669706Y-112436127D01*
X90188873Y-111955294D01*
X90184918Y-111950932D01*
X90181411Y-111946202D01*
X90178384Y-111941152D01*
X90175866Y-111935829D01*
X90173883Y-111930285D01*
X90172452Y-111924573D01*
X90171588Y-111918749D01*
X90171299Y-111912868D01*
X90171588Y-111906987D01*
X90172452Y-111901163D01*
X90173883Y-111895451D01*
X90175866Y-111889907D01*
X90178384Y-111884584D01*
X90181411Y-111879534D01*
X90184918Y-111874804D01*
X90188873Y-111870442D01*
X90528284Y-111531031D01*
X90532646Y-111527076D01*
X90537376Y-111523569D01*
X90542426Y-111520542D01*
X90547749Y-111518024D01*
X90553293Y-111516041D01*
X90559005Y-111514610D01*
X90564829Y-111513746D01*
X90570710Y-111513457D01*
X90576591Y-111513746D01*
X90576591Y-111513746D01*
G37*
D15*
X90641421Y-111983579D03*
D14*
G36*
X111385171Y-111513746D02*
G01*
X111390995Y-111514610D01*
X111396707Y-111516041D01*
X111402251Y-111518024D01*
X111407574Y-111520542D01*
X111412624Y-111523569D01*
X111417354Y-111527076D01*
X111421716Y-111531031D01*
X111761127Y-111870442D01*
X111765082Y-111874804D01*
X111768589Y-111879534D01*
X111771616Y-111884584D01*
X111774134Y-111889907D01*
X111776117Y-111895451D01*
X111777548Y-111901163D01*
X111778412Y-111906987D01*
X111778701Y-111912868D01*
X111778412Y-111918749D01*
X111777548Y-111924573D01*
X111776117Y-111930285D01*
X111774134Y-111935829D01*
X111771616Y-111941152D01*
X111768589Y-111946202D01*
X111765082Y-111950932D01*
X111761127Y-111955294D01*
X111280294Y-112436127D01*
X111275932Y-112440082D01*
X111271202Y-112443589D01*
X111266152Y-112446616D01*
X111260829Y-112449134D01*
X111255285Y-112451117D01*
X111249573Y-112452548D01*
X111243749Y-112453412D01*
X111237868Y-112453701D01*
X111231987Y-112453412D01*
X111226163Y-112452548D01*
X111220451Y-112451117D01*
X111214907Y-112449134D01*
X111209584Y-112446616D01*
X111204534Y-112443589D01*
X111199804Y-112440082D01*
X111195442Y-112436127D01*
X110856031Y-112096716D01*
X110852076Y-112092354D01*
X110848569Y-112087624D01*
X110845542Y-112082574D01*
X110843024Y-112077251D01*
X110841041Y-112071707D01*
X110839610Y-112065995D01*
X110838746Y-112060171D01*
X110838457Y-112054290D01*
X110838746Y-112048409D01*
X110839610Y-112042585D01*
X110841041Y-112036873D01*
X110843024Y-112031329D01*
X110845542Y-112026006D01*
X110848569Y-112020956D01*
X110852076Y-112016226D01*
X110856031Y-112011864D01*
X111336864Y-111531031D01*
X111341226Y-111527076D01*
X111345956Y-111523569D01*
X111351006Y-111520542D01*
X111356329Y-111518024D01*
X111361873Y-111516041D01*
X111367585Y-111514610D01*
X111373409Y-111513746D01*
X111379290Y-111513457D01*
X111385171Y-111513746D01*
X111385171Y-111513746D01*
G37*
D15*
X111308579Y-111983579D03*
D14*
G36*
X112519482Y-110394945D02*
G01*
X112528218Y-110396241D01*
X112536786Y-110398387D01*
X112545102Y-110401363D01*
X112553086Y-110405139D01*
X112560661Y-110409680D01*
X112567755Y-110414941D01*
X112574300Y-110420872D01*
X113083417Y-110929989D01*
X113089348Y-110936534D01*
X113094609Y-110943628D01*
X113099150Y-110951203D01*
X113102926Y-110959187D01*
X113105902Y-110967503D01*
X113108048Y-110976071D01*
X113109344Y-110984807D01*
X113109777Y-110993629D01*
X113109344Y-111002451D01*
X113108048Y-111011187D01*
X113105902Y-111019755D01*
X113102926Y-111028071D01*
X113099150Y-111036055D01*
X113094609Y-111043630D01*
X113089348Y-111050724D01*
X113083417Y-111057269D01*
X112503590Y-111637096D01*
X112497045Y-111643027D01*
X112489951Y-111648288D01*
X112482376Y-111652829D01*
X112474392Y-111656605D01*
X112466076Y-111659581D01*
X112457508Y-111661727D01*
X112448772Y-111663023D01*
X112439950Y-111663456D01*
X112431128Y-111663023D01*
X112422392Y-111661727D01*
X112413824Y-111659581D01*
X112405508Y-111656605D01*
X112397524Y-111652829D01*
X112389949Y-111648288D01*
X112382855Y-111643027D01*
X112376310Y-111637096D01*
X111867193Y-111127979D01*
X111861262Y-111121434D01*
X111856001Y-111114340D01*
X111851460Y-111106765D01*
X111847684Y-111098781D01*
X111844708Y-111090465D01*
X111842562Y-111081897D01*
X111841266Y-111073161D01*
X111840833Y-111064339D01*
X111841266Y-111055517D01*
X111842562Y-111046781D01*
X111844708Y-111038213D01*
X111847684Y-111029897D01*
X111851460Y-111021913D01*
X111856001Y-111014338D01*
X111861262Y-111007244D01*
X111867193Y-111000699D01*
X112447020Y-110420872D01*
X112453565Y-110414941D01*
X112460659Y-110409680D01*
X112468234Y-110405139D01*
X112476218Y-110401363D01*
X112484534Y-110398387D01*
X112493102Y-110396241D01*
X112501838Y-110394945D01*
X112510660Y-110394512D01*
X112519482Y-110394945D01*
X112519482Y-110394945D01*
G37*
D16*
X112475305Y-111028984D03*
D14*
G36*
X110398161Y-112516266D02*
G01*
X110406897Y-112517562D01*
X110415465Y-112519708D01*
X110423781Y-112522684D01*
X110431765Y-112526460D01*
X110439340Y-112531001D01*
X110446434Y-112536262D01*
X110452979Y-112542193D01*
X110962096Y-113051310D01*
X110968027Y-113057855D01*
X110973288Y-113064949D01*
X110977829Y-113072524D01*
X110981605Y-113080508D01*
X110984581Y-113088824D01*
X110986727Y-113097392D01*
X110988023Y-113106128D01*
X110988456Y-113114950D01*
X110988023Y-113123772D01*
X110986727Y-113132508D01*
X110984581Y-113141076D01*
X110981605Y-113149392D01*
X110977829Y-113157376D01*
X110973288Y-113164951D01*
X110968027Y-113172045D01*
X110962096Y-113178590D01*
X110382269Y-113758417D01*
X110375724Y-113764348D01*
X110368630Y-113769609D01*
X110361055Y-113774150D01*
X110353071Y-113777926D01*
X110344755Y-113780902D01*
X110336187Y-113783048D01*
X110327451Y-113784344D01*
X110318629Y-113784777D01*
X110309807Y-113784344D01*
X110301071Y-113783048D01*
X110292503Y-113780902D01*
X110284187Y-113777926D01*
X110276203Y-113774150D01*
X110268628Y-113769609D01*
X110261534Y-113764348D01*
X110254989Y-113758417D01*
X109745872Y-113249300D01*
X109739941Y-113242755D01*
X109734680Y-113235661D01*
X109730139Y-113228086D01*
X109726363Y-113220102D01*
X109723387Y-113211786D01*
X109721241Y-113203218D01*
X109719945Y-113194482D01*
X109719512Y-113185660D01*
X109719945Y-113176838D01*
X109721241Y-113168102D01*
X109723387Y-113159534D01*
X109726363Y-113151218D01*
X109730139Y-113143234D01*
X109734680Y-113135659D01*
X109739941Y-113128565D01*
X109745872Y-113122020D01*
X110325699Y-112542193D01*
X110332244Y-112536262D01*
X110339338Y-112531001D01*
X110346913Y-112526460D01*
X110354897Y-112522684D01*
X110363213Y-112519708D01*
X110371781Y-112517562D01*
X110380517Y-112516266D01*
X110389339Y-112515833D01*
X110398161Y-112516266D01*
X110398161Y-112516266D01*
G37*
D16*
X110353984Y-113150305D03*
D18*
X90975000Y-100000000D02*
X90975000Y-99200000D01*
X96985801Y-99285801D02*
X97500000Y-99800000D01*
X91500000Y-98675000D02*
X96375000Y-98675000D01*
X90975000Y-99200000D02*
X91500000Y-98675000D01*
X96375000Y-98675000D02*
X96985801Y-99285801D01*
X90850000Y-106500000D02*
X89800000Y-106500000D01*
X91525000Y-100550000D02*
X91525000Y-105825000D01*
X91525000Y-105825000D02*
X90850000Y-106500000D01*
X90975000Y-100000000D02*
X91525000Y-100550000D01*
X100026628Y-112401628D02*
X100650000Y-113025000D01*
X97891599Y-110266599D02*
X100026628Y-112401628D01*
X97891599Y-106121599D02*
X97891599Y-110266599D01*
X96520000Y-104750000D02*
X97891599Y-106121599D01*
X93025000Y-101255000D02*
X96520000Y-104750000D01*
X93025000Y-100000000D02*
X93025000Y-101255000D01*
X96520000Y-104750000D02*
X98170000Y-103100000D01*
X107875000Y-103100000D02*
X108500000Y-103725000D01*
X98170000Y-103100000D02*
X107875000Y-103100000D01*
X102700000Y-116000000D02*
X102700000Y-113025000D01*
X112525305Y-111400305D02*
X112525305Y-111403984D01*
X112100000Y-110975000D02*
X112525305Y-111400305D01*
X104750000Y-110975000D02*
X112100000Y-110975000D01*
X102700000Y-113025000D02*
X104750000Y-110975000D01*
X102076628Y-113648372D02*
X102700000Y-113025000D01*
X101400000Y-114325000D02*
X102076628Y-113648372D01*
X91525000Y-113150000D02*
X98250000Y-113150000D01*
X98250000Y-113150000D02*
X99425000Y-114325000D01*
X91475000Y-113100000D02*
X91525000Y-113150000D01*
X99425000Y-114325000D02*
X101400000Y-114325000D01*
X114331068Y-103150000D02*
X114000000Y-103150000D01*
X114000000Y-103150000D02*
X113450000Y-103150000D01*
X115725000Y-101756068D02*
X114331068Y-103150000D01*
X115725000Y-99725000D02*
X115725000Y-101756068D01*
X111125000Y-103150000D02*
X108500000Y-105775000D01*
X113450000Y-103150000D02*
X111125000Y-103150000D01*
D19*
G36*
X96987300Y-98000000D02*
G01*
X96987544Y-98002478D01*
X96988267Y-98004860D01*
X96989440Y-98007056D01*
X96991020Y-98008980D01*
X96992944Y-98010560D01*
X96995140Y-98011733D01*
X96997522Y-98012456D01*
X97000000Y-98012700D01*
X101000000Y-98012700D01*
X101002478Y-98012456D01*
X101004860Y-98011733D01*
X101007056Y-98010560D01*
X101008980Y-98008980D01*
X101010560Y-98007056D01*
X101011733Y-98004860D01*
X101012456Y-98002478D01*
X101012700Y-98000000D01*
X101012700Y-96012700D01*
X114987300Y-96012700D01*
X114987300Y-98000000D01*
X114987544Y-98002478D01*
X114988267Y-98004860D01*
X114989440Y-98007056D01*
X114991020Y-98008980D01*
X114992944Y-98010560D01*
X114995140Y-98011733D01*
X114997522Y-98012456D01*
X115000000Y-98012700D01*
X119000000Y-98012700D01*
X119002478Y-98012456D01*
X119004860Y-98011733D01*
X119007056Y-98010560D01*
X119008980Y-98008980D01*
X119010560Y-98007056D01*
X119011733Y-98004860D01*
X119012456Y-98002478D01*
X119012700Y-98000000D01*
X119012700Y-96012700D01*
X122894015Y-96012700D01*
X122894016Y-99994979D01*
X122894015Y-99994989D01*
X122894016Y-105917167D01*
X121037700Y-105917167D01*
X121037700Y-102000000D01*
X121037456Y-101997522D01*
X121036733Y-101995140D01*
X121035560Y-101992944D01*
X121033980Y-101991020D01*
X121032056Y-101989440D01*
X121029860Y-101988267D01*
X121027478Y-101987544D01*
X121025000Y-101987300D01*
X119000000Y-101987300D01*
X118997522Y-101987544D01*
X118995140Y-101988267D01*
X118992944Y-101989440D01*
X118991020Y-101991020D01*
X118989440Y-101992944D01*
X118988267Y-101995140D01*
X118987544Y-101997522D01*
X118987300Y-102000000D01*
X118987300Y-105987300D01*
X117000000Y-105987300D01*
X116997522Y-105987544D01*
X116995140Y-105988267D01*
X116992944Y-105989440D01*
X116991020Y-105991020D01*
X116989440Y-105992944D01*
X116988267Y-105995140D01*
X116987544Y-105997522D01*
X116987300Y-106000000D01*
X116987300Y-109987300D01*
X115000000Y-109987300D01*
X114997522Y-109987544D01*
X114995140Y-109988267D01*
X114992944Y-109989440D01*
X114991020Y-109991020D01*
X114989440Y-109992944D01*
X114988267Y-109995140D01*
X114987544Y-109997522D01*
X114987300Y-110000000D01*
X114987300Y-111987300D01*
X113000000Y-111987300D01*
X112997522Y-111987544D01*
X112995140Y-111988267D01*
X112992944Y-111989440D01*
X112991020Y-111991020D01*
X112989440Y-111992944D01*
X112988267Y-111995140D01*
X112987544Y-111997522D01*
X112987300Y-112000000D01*
X112987300Y-113987300D01*
X110777700Y-113987300D01*
X110777700Y-113915271D01*
X110353984Y-113491555D01*
X109894913Y-113950626D01*
X109894913Y-113987300D01*
X109000000Y-113987300D01*
X108997522Y-113987544D01*
X108995140Y-113988267D01*
X108992944Y-113989440D01*
X108991020Y-113991020D01*
X108989440Y-113992944D01*
X108988267Y-113995140D01*
X108987544Y-113997522D01*
X108987300Y-114000000D01*
X108987300Y-115987300D01*
X105000000Y-115987300D01*
X104997522Y-115987544D01*
X104995140Y-115988267D01*
X104992944Y-115989440D01*
X104991020Y-115991020D01*
X104989440Y-115992944D01*
X104988267Y-115995140D01*
X104987544Y-115997522D01*
X104987300Y-116000000D01*
X104987300Y-117987300D01*
X97012700Y-117987300D01*
X97012700Y-116450000D01*
X98676781Y-116450000D01*
X98686835Y-116552075D01*
X98716609Y-116650227D01*
X98764959Y-116740685D01*
X98830028Y-116819972D01*
X98909315Y-116885041D01*
X98999773Y-116933391D01*
X99097925Y-116963165D01*
X99200000Y-116973219D01*
X99328525Y-116970700D01*
X99458700Y-116840525D01*
X99458700Y-116241300D01*
X98809475Y-116241300D01*
X98679300Y-116371475D01*
X98676781Y-116450000D01*
X97012700Y-116450000D01*
X97012700Y-116000000D01*
X97012456Y-115997522D01*
X97011733Y-115995140D01*
X97010560Y-115992944D01*
X97008980Y-115991020D01*
X97007056Y-115989440D01*
X97004860Y-115988267D01*
X97002478Y-115987544D01*
X97000000Y-115987300D01*
X93012700Y-115987300D01*
X93012700Y-115550000D01*
X98676781Y-115550000D01*
X98679300Y-115628525D01*
X98809475Y-115758700D01*
X99458700Y-115758700D01*
X99458700Y-115159475D01*
X99941300Y-115159475D01*
X99941300Y-115758700D01*
X99961300Y-115758700D01*
X99961300Y-116241300D01*
X99941300Y-116241300D01*
X99941300Y-116840525D01*
X100071475Y-116970700D01*
X100200000Y-116973219D01*
X100302075Y-116963165D01*
X100400227Y-116933391D01*
X100490685Y-116885041D01*
X100569972Y-116819972D01*
X100635041Y-116740685D01*
X100683391Y-116650227D01*
X100713165Y-116552075D01*
X100723219Y-116450000D01*
X100720700Y-116371475D01*
X100590527Y-116241302D01*
X100660488Y-116241302D01*
X100682219Y-116267781D01*
X100720318Y-116299049D01*
X100763785Y-116322283D01*
X100810950Y-116336590D01*
X100860000Y-116341421D01*
X101540000Y-116341421D01*
X101589050Y-116336590D01*
X101636215Y-116322283D01*
X101679682Y-116299049D01*
X101717781Y-116267781D01*
X101749049Y-116229682D01*
X101772283Y-116186215D01*
X101786590Y-116139050D01*
X101791421Y-116090000D01*
X101791421Y-115610000D01*
X101786590Y-115560950D01*
X101772283Y-115513785D01*
X101749049Y-115470318D01*
X101717781Y-115432219D01*
X101679682Y-115400951D01*
X101636215Y-115377717D01*
X101589050Y-115363410D01*
X101540000Y-115358579D01*
X100860000Y-115358579D01*
X100810950Y-115363410D01*
X100763785Y-115377717D01*
X100720318Y-115400951D01*
X100703182Y-115415015D01*
X100683391Y-115349773D01*
X100635041Y-115259315D01*
X100569972Y-115180028D01*
X100490685Y-115114959D01*
X100400227Y-115066609D01*
X100302075Y-115036835D01*
X100200000Y-115026781D01*
X100071475Y-115029300D01*
X99941300Y-115159475D01*
X99458700Y-115159475D01*
X99328525Y-115029300D01*
X99200000Y-115026781D01*
X99097925Y-115036835D01*
X98999773Y-115066609D01*
X98909315Y-115114959D01*
X98830028Y-115180028D01*
X98764959Y-115259315D01*
X98716609Y-115349773D01*
X98686835Y-115447925D01*
X98676781Y-115550000D01*
X93012700Y-115550000D01*
X93012700Y-114000000D01*
X93012456Y-113997522D01*
X93011733Y-113995140D01*
X93010560Y-113992944D01*
X93008980Y-113991020D01*
X93007056Y-113989440D01*
X93004860Y-113988267D01*
X93002478Y-113987544D01*
X93000000Y-113987300D01*
X89012700Y-113987300D01*
X89012700Y-113114950D01*
X90770123Y-113114950D01*
X90775530Y-113169853D01*
X90791545Y-113222645D01*
X90817551Y-113271299D01*
X90852549Y-113313945D01*
X91432376Y-113893772D01*
X91475022Y-113928770D01*
X91523676Y-113954776D01*
X91576468Y-113970791D01*
X91631371Y-113976198D01*
X91686274Y-113970791D01*
X91739066Y-113954776D01*
X91787720Y-113928770D01*
X91830366Y-113893772D01*
X92256638Y-113467500D01*
X98118488Y-113467500D01*
X99189463Y-114538476D01*
X99199407Y-114550593D01*
X99247752Y-114590268D01*
X99247753Y-114590269D01*
X99302910Y-114619751D01*
X99362759Y-114637906D01*
X99425000Y-114644036D01*
X99440596Y-114642500D01*
X101384404Y-114642500D01*
X101400000Y-114644036D01*
X101415596Y-114642500D01*
X101462241Y-114637906D01*
X101522090Y-114619751D01*
X101577247Y-114590269D01*
X101625593Y-114550593D01*
X101635542Y-114538470D01*
X102271382Y-113902631D01*
X102288882Y-113907939D01*
X102374999Y-113916421D01*
X102382501Y-113916421D01*
X102382500Y-115358579D01*
X102290000Y-115358579D01*
X102235097Y-115363986D01*
X102182305Y-115380001D01*
X102133651Y-115406007D01*
X102091005Y-115441005D01*
X102056007Y-115483651D01*
X102030001Y-115532305D01*
X102013986Y-115585097D01*
X102008579Y-115640000D01*
X102008579Y-116360000D01*
X102013986Y-116414903D01*
X102030001Y-116467695D01*
X102056007Y-116516349D01*
X102091005Y-116558995D01*
X102133651Y-116593993D01*
X102182305Y-116619999D01*
X102235097Y-116636014D01*
X102290000Y-116641421D01*
X103110000Y-116641421D01*
X103164903Y-116636014D01*
X103217695Y-116619999D01*
X103266349Y-116593993D01*
X103308995Y-116558995D01*
X103343993Y-116516349D01*
X103369999Y-116467695D01*
X103386014Y-116414903D01*
X103391421Y-116360000D01*
X103391421Y-115640000D01*
X103386014Y-115585097D01*
X103369999Y-115532305D01*
X103343993Y-115483651D01*
X103308995Y-115441005D01*
X103266349Y-115406007D01*
X103217695Y-115380001D01*
X103164903Y-115363986D01*
X103110000Y-115358579D01*
X103017500Y-115358579D01*
X103017500Y-113916421D01*
X103025001Y-113916421D01*
X103111118Y-113907939D01*
X103193925Y-113882820D01*
X103270241Y-113842028D01*
X103337132Y-113787132D01*
X103392028Y-113720241D01*
X103432820Y-113643925D01*
X103457939Y-113561118D01*
X103466421Y-113475001D01*
X103466421Y-113185660D01*
X109159013Y-113185660D01*
X109169067Y-113287735D01*
X109198842Y-113385888D01*
X109247192Y-113476345D01*
X109312261Y-113555632D01*
X109369568Y-113609376D01*
X109553663Y-113609376D01*
X110012734Y-113150305D01*
X109589018Y-112726589D01*
X109404923Y-112726589D01*
X109312261Y-112815689D01*
X109247192Y-112894976D01*
X109198842Y-112985433D01*
X109169067Y-113083585D01*
X109159013Y-113185660D01*
X103466421Y-113185660D01*
X103466421Y-112707591D01*
X103972768Y-112201244D01*
X109930268Y-112201244D01*
X109930268Y-112385339D01*
X110353984Y-112809055D01*
X110368126Y-112794913D01*
X110709376Y-113136163D01*
X110695234Y-113150305D01*
X111118950Y-113574021D01*
X111303045Y-113574021D01*
X111395707Y-113484921D01*
X111460776Y-113405634D01*
X111509126Y-113315177D01*
X111538901Y-113217025D01*
X111548955Y-113114950D01*
X111538901Y-113012875D01*
X111509126Y-112914722D01*
X111460776Y-112824265D01*
X111395707Y-112744978D01*
X111338400Y-112691234D01*
X111154307Y-112691234D01*
X111203777Y-112641764D01*
X111237868Y-112645122D01*
X111286918Y-112640291D01*
X111334083Y-112625984D01*
X111377550Y-112602750D01*
X111415649Y-112571482D01*
X111896482Y-112090649D01*
X111927750Y-112052550D01*
X111950984Y-112009083D01*
X111965291Y-111961918D01*
X111970122Y-111912868D01*
X111965291Y-111863818D01*
X111950984Y-111816653D01*
X111927750Y-111773186D01*
X111896482Y-111735087D01*
X111557071Y-111395676D01*
X111518972Y-111364408D01*
X111475505Y-111341174D01*
X111428340Y-111326867D01*
X111379290Y-111322036D01*
X111330240Y-111326867D01*
X111283075Y-111341174D01*
X111239608Y-111364408D01*
X111201509Y-111395676D01*
X110720676Y-111876509D01*
X110689408Y-111914608D01*
X110666174Y-111958075D01*
X110651867Y-112005240D01*
X110649694Y-112027301D01*
X110589567Y-111995163D01*
X110491414Y-111965388D01*
X110389339Y-111955334D01*
X110287264Y-111965388D01*
X110189112Y-111995163D01*
X110098655Y-112043513D01*
X110019368Y-112108582D01*
X109930268Y-112201244D01*
X103972768Y-112201244D01*
X104881513Y-111292500D01*
X111761004Y-111292500D01*
X112240955Y-111772451D01*
X112283601Y-111807449D01*
X112332255Y-111833455D01*
X112385047Y-111849470D01*
X112439950Y-111854877D01*
X112494853Y-111849470D01*
X112547645Y-111833455D01*
X112596299Y-111807449D01*
X112638945Y-111772451D01*
X113218772Y-111192624D01*
X113253770Y-111149978D01*
X113279776Y-111101324D01*
X113295791Y-111048532D01*
X113301198Y-110993629D01*
X113295791Y-110938726D01*
X113279776Y-110885934D01*
X113253770Y-110837280D01*
X113218772Y-110794634D01*
X112709655Y-110285517D01*
X112667009Y-110250519D01*
X112618355Y-110224513D01*
X112565563Y-110208498D01*
X112510660Y-110203091D01*
X112455757Y-110208498D01*
X112402965Y-110224513D01*
X112354311Y-110250519D01*
X112311665Y-110285517D01*
X111939682Y-110657500D01*
X104765596Y-110657500D01*
X104750000Y-110655964D01*
X104734404Y-110657500D01*
X104687759Y-110662094D01*
X104627910Y-110680249D01*
X104572753Y-110709731D01*
X104524407Y-110749407D01*
X104514463Y-110761524D01*
X103128618Y-112147370D01*
X103111118Y-112142061D01*
X103025001Y-112133579D01*
X102374999Y-112133579D01*
X102288882Y-112142061D01*
X102206075Y-112167180D01*
X102129759Y-112207972D01*
X102062868Y-112262868D01*
X102007972Y-112329759D01*
X101967180Y-112406075D01*
X101942061Y-112488882D01*
X101933579Y-112574999D01*
X101933579Y-113342409D01*
X101863154Y-113412834D01*
X101863149Y-113412838D01*
X101268488Y-114007500D01*
X99556513Y-114007500D01*
X98485542Y-112936530D01*
X98475593Y-112924407D01*
X98427247Y-112884731D01*
X98372090Y-112855249D01*
X98312241Y-112837094D01*
X98265596Y-112832500D01*
X98250000Y-112830964D01*
X98234404Y-112832500D01*
X92185318Y-112832500D01*
X91759656Y-112406838D01*
X91717010Y-112371840D01*
X91668356Y-112345834D01*
X91615564Y-112329819D01*
X91560661Y-112324412D01*
X91505758Y-112329819D01*
X91452966Y-112345834D01*
X91404312Y-112371840D01*
X91361666Y-112406838D01*
X90852549Y-112915955D01*
X90817551Y-112958601D01*
X90791545Y-113007255D01*
X90775530Y-113060047D01*
X90770123Y-113114950D01*
X89012700Y-113114950D01*
X89012700Y-112000000D01*
X89012456Y-111997522D01*
X89011733Y-111995140D01*
X89010560Y-111992944D01*
X89008980Y-111991020D01*
X89007056Y-111989440D01*
X89004860Y-111988267D01*
X89002478Y-111987544D01*
X89000000Y-111987300D01*
X87012700Y-111987300D01*
X87012700Y-111793950D01*
X89050979Y-111793950D01*
X89050979Y-111978045D01*
X89140079Y-112070707D01*
X89219366Y-112135776D01*
X89309823Y-112184126D01*
X89407975Y-112213901D01*
X89510050Y-112223955D01*
X89612125Y-112213901D01*
X89710278Y-112184126D01*
X89800735Y-112135776D01*
X89880022Y-112070707D01*
X89933766Y-112013400D01*
X89933766Y-111829307D01*
X89983236Y-111878777D01*
X89979878Y-111912868D01*
X89984709Y-111961918D01*
X89999016Y-112009083D01*
X90022250Y-112052550D01*
X90053518Y-112090649D01*
X90534351Y-112571482D01*
X90572450Y-112602750D01*
X90615917Y-112625984D01*
X90663082Y-112640291D01*
X90712132Y-112645122D01*
X90761182Y-112640291D01*
X90808347Y-112625984D01*
X90851814Y-112602750D01*
X90889913Y-112571482D01*
X91229324Y-112232071D01*
X91260592Y-112193972D01*
X91283826Y-112150505D01*
X91298133Y-112103340D01*
X91302964Y-112054290D01*
X91298133Y-112005240D01*
X91283826Y-111958075D01*
X91260592Y-111914608D01*
X91229324Y-111876509D01*
X90748491Y-111395676D01*
X90710392Y-111364408D01*
X90666925Y-111341174D01*
X90619760Y-111326867D01*
X90597699Y-111324694D01*
X90629837Y-111264567D01*
X90659612Y-111166414D01*
X90669666Y-111064339D01*
X90659612Y-110962264D01*
X90629837Y-110864112D01*
X90581487Y-110773655D01*
X90516418Y-110694368D01*
X90423756Y-110605268D01*
X90239661Y-110605268D01*
X89815945Y-111028984D01*
X89830087Y-111043126D01*
X89488837Y-111384376D01*
X89474695Y-111370234D01*
X89050979Y-111793950D01*
X87012700Y-111793950D01*
X87012700Y-110993629D01*
X88279724Y-110993629D01*
X88289778Y-111095704D01*
X88319553Y-111193856D01*
X88367903Y-111284313D01*
X88432972Y-111363600D01*
X88525634Y-111452700D01*
X88709729Y-111452700D01*
X89133445Y-111028984D01*
X88674374Y-110569913D01*
X88490279Y-110569913D01*
X88432972Y-110623657D01*
X88367903Y-110702944D01*
X88319553Y-110793401D01*
X88289778Y-110891554D01*
X88279724Y-110993629D01*
X87012700Y-110993629D01*
X87012700Y-110044568D01*
X89015624Y-110044568D01*
X89015624Y-110228663D01*
X89474695Y-110687734D01*
X89898411Y-110264018D01*
X89898411Y-110079923D01*
X89809311Y-109987261D01*
X89730024Y-109922192D01*
X89639567Y-109873842D01*
X89541415Y-109844067D01*
X89439340Y-109834013D01*
X89337265Y-109844067D01*
X89239112Y-109873842D01*
X89148655Y-109922192D01*
X89069368Y-109987261D01*
X89015624Y-110044568D01*
X87012700Y-110044568D01*
X87012700Y-110000000D01*
X87012456Y-109997522D01*
X87011733Y-109995140D01*
X87010560Y-109992944D01*
X87008980Y-109991020D01*
X87007056Y-109989440D01*
X87004860Y-109988267D01*
X87002478Y-109987544D01*
X87000000Y-109987300D01*
X85012700Y-109987300D01*
X85012700Y-108153600D01*
X95133181Y-108153600D01*
X95143235Y-108255675D01*
X95173009Y-108353827D01*
X95221359Y-108444285D01*
X95286428Y-108523572D01*
X95365715Y-108588641D01*
X95456173Y-108636991D01*
X95554325Y-108666765D01*
X95656400Y-108676819D01*
X96148525Y-108674300D01*
X96278700Y-108544125D01*
X96278700Y-107531300D01*
X95265875Y-107531300D01*
X95135700Y-107661475D01*
X95133181Y-108153600D01*
X85012700Y-108153600D01*
X85012700Y-106037700D01*
X86987300Y-106037700D01*
X86987300Y-108020000D01*
X86987544Y-108022478D01*
X86988267Y-108024860D01*
X86989440Y-108027056D01*
X86991020Y-108028980D01*
X86992944Y-108030560D01*
X86995140Y-108031733D01*
X86997522Y-108032456D01*
X87000000Y-108032700D01*
X89020000Y-108032700D01*
X89022478Y-108032456D01*
X89024860Y-108031733D01*
X89027056Y-108030560D01*
X89028980Y-108028980D01*
X89030560Y-108027056D01*
X89031733Y-108024860D01*
X89032456Y-108022478D01*
X89032700Y-108020000D01*
X89032700Y-106090000D01*
X89233579Y-106090000D01*
X89233579Y-106910000D01*
X89238986Y-106964903D01*
X89255001Y-107017695D01*
X89281007Y-107066349D01*
X89316005Y-107108995D01*
X89358651Y-107143993D01*
X89407305Y-107169999D01*
X89460097Y-107186014D01*
X89515000Y-107191421D01*
X90235000Y-107191421D01*
X90289903Y-107186014D01*
X90342695Y-107169999D01*
X90391349Y-107143993D01*
X90433995Y-107108995D01*
X90468993Y-107066349D01*
X90494999Y-107017695D01*
X90511014Y-106964903D01*
X90516421Y-106910000D01*
X90516421Y-106817500D01*
X90834404Y-106817500D01*
X90850000Y-106819036D01*
X90865596Y-106817500D01*
X90912241Y-106812906D01*
X90972090Y-106794751D01*
X91027247Y-106765269D01*
X91075593Y-106725593D01*
X91085542Y-106713470D01*
X91372612Y-106426400D01*
X95133181Y-106426400D01*
X95135700Y-106918525D01*
X95265875Y-107048700D01*
X96278700Y-107048700D01*
X96278700Y-106035875D01*
X96148525Y-105905700D01*
X95656400Y-105903181D01*
X95554325Y-105913235D01*
X95456173Y-105943009D01*
X95365715Y-105991359D01*
X95286428Y-106056428D01*
X95221359Y-106135715D01*
X95173009Y-106226173D01*
X95143235Y-106324325D01*
X95133181Y-106426400D01*
X91372612Y-106426400D01*
X91738476Y-106060537D01*
X91750593Y-106050593D01*
X91790269Y-106002247D01*
X91819751Y-105947090D01*
X91837906Y-105887241D01*
X91842500Y-105840596D01*
X91842500Y-105840594D01*
X91844036Y-105825001D01*
X91842500Y-105809408D01*
X91842500Y-100565592D01*
X91844036Y-100549999D01*
X91842500Y-100534404D01*
X91837906Y-100487759D01*
X91819751Y-100427910D01*
X91790269Y-100372753D01*
X91750593Y-100324407D01*
X91741421Y-100316880D01*
X91741421Y-99549999D01*
X92258579Y-99549999D01*
X92258579Y-100450001D01*
X92267061Y-100536118D01*
X92292180Y-100618925D01*
X92332972Y-100695241D01*
X92387868Y-100762132D01*
X92454759Y-100817028D01*
X92531075Y-100857820D01*
X92613882Y-100882939D01*
X92699999Y-100891421D01*
X92707501Y-100891421D01*
X92707501Y-101239395D01*
X92705964Y-101255000D01*
X92712094Y-101317240D01*
X92730249Y-101377089D01*
X92730250Y-101377090D01*
X92759732Y-101432247D01*
X92799408Y-101480593D01*
X92811525Y-101490537D01*
X95584697Y-104263709D01*
X95541427Y-104344662D01*
X95481152Y-104543360D01*
X95460800Y-104750000D01*
X95481152Y-104956640D01*
X95541427Y-105155338D01*
X95639307Y-105338460D01*
X95771032Y-105498968D01*
X95931540Y-105630693D01*
X96114662Y-105728573D01*
X96313360Y-105788848D01*
X96468218Y-105804100D01*
X96571782Y-105804100D01*
X96726640Y-105788848D01*
X96925338Y-105728573D01*
X97006291Y-105685303D01*
X97224980Y-105903993D01*
X96891475Y-105905700D01*
X96761300Y-106035875D01*
X96761300Y-107048700D01*
X96781300Y-107048700D01*
X96781300Y-107531300D01*
X96761300Y-107531300D01*
X96761300Y-108544125D01*
X96891475Y-108674300D01*
X97383600Y-108676819D01*
X97485675Y-108666765D01*
X97574100Y-108639942D01*
X97574100Y-110250993D01*
X97572563Y-110266599D01*
X97578693Y-110328839D01*
X97596848Y-110388688D01*
X97596849Y-110388689D01*
X97626331Y-110443846D01*
X97666007Y-110492192D01*
X97678124Y-110502136D01*
X99813149Y-112637162D01*
X99813154Y-112637166D01*
X99883579Y-112707591D01*
X99883579Y-113475001D01*
X99892061Y-113561118D01*
X99917180Y-113643925D01*
X99957972Y-113720241D01*
X100012868Y-113787132D01*
X100079759Y-113842028D01*
X100156075Y-113882820D01*
X100238882Y-113907939D01*
X100324999Y-113916421D01*
X100975001Y-113916421D01*
X101061118Y-113907939D01*
X101143925Y-113882820D01*
X101220241Y-113842028D01*
X101287132Y-113787132D01*
X101342028Y-113720241D01*
X101382820Y-113643925D01*
X101407939Y-113561118D01*
X101416421Y-113475001D01*
X101416421Y-112574999D01*
X101407939Y-112488882D01*
X101382820Y-112406075D01*
X101342028Y-112329759D01*
X101287132Y-112262868D01*
X101220241Y-112207972D01*
X101143925Y-112167180D01*
X101061118Y-112142061D01*
X100975001Y-112133579D01*
X100324999Y-112133579D01*
X100238882Y-112142061D01*
X100221382Y-112147369D01*
X98209099Y-110135087D01*
X98209099Y-107914762D01*
X98311032Y-108038968D01*
X98471540Y-108170693D01*
X98654662Y-108268573D01*
X98853360Y-108328848D01*
X99008218Y-108344100D01*
X99111782Y-108344100D01*
X99266640Y-108328848D01*
X99465338Y-108268573D01*
X99648460Y-108170693D01*
X99808968Y-108038968D01*
X99940693Y-107878460D01*
X100038573Y-107695338D01*
X100098848Y-107496640D01*
X100119200Y-107290000D01*
X100108975Y-107186180D01*
X100545900Y-107186180D01*
X100545900Y-107393820D01*
X100586409Y-107597470D01*
X100665869Y-107789303D01*
X100781227Y-107961949D01*
X100928051Y-108108773D01*
X101100697Y-108224131D01*
X101292530Y-108303591D01*
X101496180Y-108344100D01*
X101703820Y-108344100D01*
X101907470Y-108303591D01*
X102099303Y-108224131D01*
X102271949Y-108108773D01*
X102418773Y-107961949D01*
X102534131Y-107789303D01*
X102613591Y-107597470D01*
X102654100Y-107393820D01*
X102654100Y-107186180D01*
X102613591Y-106982530D01*
X102534131Y-106790697D01*
X102440121Y-106650000D01*
X113476781Y-106650000D01*
X113486835Y-106752075D01*
X113516609Y-106850227D01*
X113564959Y-106940685D01*
X113630028Y-107019972D01*
X113709315Y-107085041D01*
X113799773Y-107133391D01*
X113897925Y-107163165D01*
X114000000Y-107173219D01*
X114078525Y-107170700D01*
X114208700Y-107040525D01*
X114208700Y-106391300D01*
X114691300Y-106391300D01*
X114691300Y-107040525D01*
X114821475Y-107170700D01*
X114900000Y-107173219D01*
X115002075Y-107163165D01*
X115100227Y-107133391D01*
X115190685Y-107085041D01*
X115269972Y-107019972D01*
X115335041Y-106940685D01*
X115383391Y-106850227D01*
X115413165Y-106752075D01*
X115423219Y-106650000D01*
X115420700Y-106521475D01*
X115290525Y-106391300D01*
X114691300Y-106391300D01*
X114208700Y-106391300D01*
X113609475Y-106391300D01*
X113479300Y-106521475D01*
X113476781Y-106650000D01*
X102440121Y-106650000D01*
X102418773Y-106618051D01*
X102271949Y-106471227D01*
X102099303Y-106355869D01*
X101907470Y-106276409D01*
X101703820Y-106235900D01*
X101496180Y-106235900D01*
X101292530Y-106276409D01*
X101100697Y-106355869D01*
X100928051Y-106471227D01*
X100781227Y-106618051D01*
X100665869Y-106790697D01*
X100586409Y-106982530D01*
X100545900Y-107186180D01*
X100108975Y-107186180D01*
X100098848Y-107083360D01*
X100038573Y-106884662D01*
X99940693Y-106701540D01*
X99808968Y-106541032D01*
X99648460Y-106409307D01*
X99465338Y-106311427D01*
X99266640Y-106251152D01*
X99111782Y-106235900D01*
X99008218Y-106235900D01*
X98853360Y-106251152D01*
X98654662Y-106311427D01*
X98471540Y-106409307D01*
X98311032Y-106541032D01*
X98209099Y-106665238D01*
X98209099Y-106137195D01*
X98210635Y-106121599D01*
X98204505Y-106059358D01*
X98186350Y-105999509D01*
X98156868Y-105944352D01*
X98144373Y-105929127D01*
X98117192Y-105896006D01*
X98105076Y-105886063D01*
X97455303Y-105236291D01*
X97498573Y-105155338D01*
X97558848Y-104956640D01*
X97579200Y-104750000D01*
X98000800Y-104750000D01*
X98021152Y-104956640D01*
X98081427Y-105155338D01*
X98179307Y-105338460D01*
X98311032Y-105498968D01*
X98471540Y-105630693D01*
X98654662Y-105728573D01*
X98853360Y-105788848D01*
X99008218Y-105804100D01*
X99111782Y-105804100D01*
X99266640Y-105788848D01*
X99465338Y-105728573D01*
X99648460Y-105630693D01*
X99808968Y-105498968D01*
X99940693Y-105338460D01*
X100038573Y-105155338D01*
X100098848Y-104956640D01*
X100119200Y-104750000D01*
X100108975Y-104646180D01*
X100545900Y-104646180D01*
X100545900Y-104853820D01*
X100586409Y-105057470D01*
X100665869Y-105249303D01*
X100781227Y-105421949D01*
X100928051Y-105568773D01*
X101100697Y-105684131D01*
X101292530Y-105763591D01*
X101496180Y-105804100D01*
X101703820Y-105804100D01*
X101907470Y-105763591D01*
X102099303Y-105684131D01*
X102271949Y-105568773D01*
X102390723Y-105449999D01*
X107608579Y-105449999D01*
X107608579Y-106100001D01*
X107617061Y-106186118D01*
X107642180Y-106268925D01*
X107682972Y-106345241D01*
X107737868Y-106412132D01*
X107804759Y-106467028D01*
X107881075Y-106507820D01*
X107963882Y-106532939D01*
X108049999Y-106541421D01*
X108950001Y-106541421D01*
X109036118Y-106532939D01*
X109118925Y-106507820D01*
X109195241Y-106467028D01*
X109262132Y-106412132D01*
X109317028Y-106345241D01*
X109357820Y-106268925D01*
X109382939Y-106186118D01*
X109391421Y-106100001D01*
X109391421Y-105650000D01*
X113476781Y-105650000D01*
X113479300Y-105778525D01*
X113609475Y-105908700D01*
X114208700Y-105908700D01*
X114208700Y-105888700D01*
X114691300Y-105888700D01*
X114691300Y-105908700D01*
X115290525Y-105908700D01*
X115420700Y-105778525D01*
X115423219Y-105650000D01*
X115413165Y-105547925D01*
X115383391Y-105449773D01*
X115335041Y-105359315D01*
X115269972Y-105280028D01*
X115190685Y-105214959D01*
X115100227Y-105166609D01*
X115002075Y-105136835D01*
X114900000Y-105126781D01*
X114821475Y-105129300D01*
X114691302Y-105259473D01*
X114691302Y-105189512D01*
X114717781Y-105167781D01*
X114749049Y-105129682D01*
X114772283Y-105086215D01*
X114786590Y-105039050D01*
X114791421Y-104990000D01*
X114791421Y-104310000D01*
X114786590Y-104260950D01*
X114772283Y-104213785D01*
X114749049Y-104170318D01*
X114717781Y-104132219D01*
X114679682Y-104100951D01*
X114636215Y-104077717D01*
X114589050Y-104063410D01*
X114540000Y-104058579D01*
X114060000Y-104058579D01*
X114010950Y-104063410D01*
X113963785Y-104077717D01*
X113920318Y-104100951D01*
X113882219Y-104132219D01*
X113850951Y-104170318D01*
X113827717Y-104213785D01*
X113813410Y-104260950D01*
X113808579Y-104310000D01*
X113808579Y-104990000D01*
X113813410Y-105039050D01*
X113827717Y-105086215D01*
X113850951Y-105129682D01*
X113865015Y-105146818D01*
X113799773Y-105166609D01*
X113709315Y-105214959D01*
X113630028Y-105280028D01*
X113564959Y-105359315D01*
X113516609Y-105449773D01*
X113486835Y-105547925D01*
X113476781Y-105650000D01*
X109391421Y-105650000D01*
X109391421Y-105449999D01*
X109382939Y-105363882D01*
X109377630Y-105346382D01*
X111256513Y-103467500D01*
X113808579Y-103467500D01*
X113808579Y-103560000D01*
X113813986Y-103614903D01*
X113830001Y-103667695D01*
X113856007Y-103716349D01*
X113891005Y-103758995D01*
X113933651Y-103793993D01*
X113982305Y-103819999D01*
X114035097Y-103836014D01*
X114090000Y-103841421D01*
X114810000Y-103841421D01*
X114864903Y-103836014D01*
X114917695Y-103819999D01*
X114966349Y-103793993D01*
X115008995Y-103758995D01*
X115043993Y-103716349D01*
X115069999Y-103667695D01*
X115086014Y-103614903D01*
X115091421Y-103560000D01*
X115091421Y-102838659D01*
X115938476Y-101991605D01*
X115950593Y-101981661D01*
X115990269Y-101933315D01*
X116019751Y-101878158D01*
X116037906Y-101818309D01*
X116044037Y-101756068D01*
X116042500Y-101740465D01*
X116042500Y-100366421D01*
X116135000Y-100366421D01*
X116189903Y-100361014D01*
X116242695Y-100344999D01*
X116291349Y-100318993D01*
X116333995Y-100283995D01*
X116368993Y-100241349D01*
X116394999Y-100192695D01*
X116411014Y-100139903D01*
X116416421Y-100085000D01*
X116416421Y-99635000D01*
X116633579Y-99635000D01*
X116633579Y-100115000D01*
X116638410Y-100164050D01*
X116652717Y-100211215D01*
X116675951Y-100254682D01*
X116707219Y-100292781D01*
X116745318Y-100324049D01*
X116788785Y-100347283D01*
X116835950Y-100361590D01*
X116885000Y-100366421D01*
X117565000Y-100366421D01*
X117614050Y-100361590D01*
X117661215Y-100347283D01*
X117704682Y-100324049D01*
X117721818Y-100309985D01*
X117741609Y-100375227D01*
X117789959Y-100465685D01*
X117855028Y-100544972D01*
X117934315Y-100610041D01*
X118024773Y-100658391D01*
X118122925Y-100688165D01*
X118225000Y-100698219D01*
X118353525Y-100695700D01*
X118483700Y-100565525D01*
X118483700Y-99966300D01*
X118966300Y-99966300D01*
X118966300Y-100565525D01*
X119096475Y-100695700D01*
X119225000Y-100698219D01*
X119327075Y-100688165D01*
X119425227Y-100658391D01*
X119515685Y-100610041D01*
X119594972Y-100544972D01*
X119660041Y-100465685D01*
X119708391Y-100375227D01*
X119738165Y-100277075D01*
X119748219Y-100175000D01*
X119745700Y-100096475D01*
X119615525Y-99966300D01*
X118966300Y-99966300D01*
X118483700Y-99966300D01*
X118463700Y-99966300D01*
X118463700Y-99483700D01*
X118483700Y-99483700D01*
X118483700Y-98884475D01*
X118966300Y-98884475D01*
X118966300Y-99483700D01*
X119615525Y-99483700D01*
X119745700Y-99353525D01*
X119748219Y-99275000D01*
X119738165Y-99172925D01*
X119708391Y-99074773D01*
X119660041Y-98984315D01*
X119594972Y-98905028D01*
X119515685Y-98839959D01*
X119425227Y-98791609D01*
X119327075Y-98761835D01*
X119225000Y-98751781D01*
X119096475Y-98754300D01*
X118966300Y-98884475D01*
X118483700Y-98884475D01*
X118353525Y-98754300D01*
X118225000Y-98751781D01*
X118122925Y-98761835D01*
X118024773Y-98791609D01*
X117934315Y-98839959D01*
X117855028Y-98905028D01*
X117789959Y-98984315D01*
X117741609Y-99074773D01*
X117711835Y-99172925D01*
X117701781Y-99275000D01*
X117704300Y-99353525D01*
X117834473Y-99483698D01*
X117764512Y-99483698D01*
X117742781Y-99457219D01*
X117704682Y-99425951D01*
X117661215Y-99402717D01*
X117614050Y-99388410D01*
X117565000Y-99383579D01*
X116885000Y-99383579D01*
X116835950Y-99388410D01*
X116788785Y-99402717D01*
X116745318Y-99425951D01*
X116707219Y-99457219D01*
X116675951Y-99495318D01*
X116652717Y-99538785D01*
X116638410Y-99585950D01*
X116633579Y-99635000D01*
X116416421Y-99635000D01*
X116416421Y-99365000D01*
X116411014Y-99310097D01*
X116394999Y-99257305D01*
X116368993Y-99208651D01*
X116333995Y-99166005D01*
X116291349Y-99131007D01*
X116242695Y-99105001D01*
X116189903Y-99088986D01*
X116135000Y-99083579D01*
X115315000Y-99083579D01*
X115260097Y-99088986D01*
X115207305Y-99105001D01*
X115158651Y-99131007D01*
X115116005Y-99166005D01*
X115081007Y-99208651D01*
X115055001Y-99257305D01*
X115038986Y-99310097D01*
X115033579Y-99365000D01*
X115033579Y-99990691D01*
X115032056Y-99989440D01*
X115029860Y-99988267D01*
X115027478Y-99987544D01*
X115025000Y-99987300D01*
X113000000Y-99987300D01*
X112997522Y-99987544D01*
X112995140Y-99988267D01*
X112992944Y-99989440D01*
X112991020Y-99991020D01*
X112989440Y-99992944D01*
X112988267Y-99995140D01*
X112987544Y-99997522D01*
X112987300Y-100000000D01*
X112987300Y-102025000D01*
X112987544Y-102027478D01*
X112988267Y-102029860D01*
X112989440Y-102032056D01*
X112991020Y-102033980D01*
X112992944Y-102035560D01*
X112995140Y-102036733D01*
X112997522Y-102037456D01*
X113000000Y-102037700D01*
X114994355Y-102037700D01*
X114573477Y-102458579D01*
X114090000Y-102458579D01*
X114035097Y-102463986D01*
X113982305Y-102480001D01*
X113933651Y-102506007D01*
X113891005Y-102541005D01*
X113856007Y-102583651D01*
X113830001Y-102632305D01*
X113813986Y-102685097D01*
X113808579Y-102740000D01*
X113808579Y-102832500D01*
X111140596Y-102832500D01*
X111125000Y-102830964D01*
X111109404Y-102832500D01*
X111062759Y-102837094D01*
X111002910Y-102855249D01*
X110947753Y-102884731D01*
X110899407Y-102924407D01*
X110889465Y-102936522D01*
X108817409Y-105008579D01*
X108049999Y-105008579D01*
X107963882Y-105017061D01*
X107881075Y-105042180D01*
X107804759Y-105082972D01*
X107737868Y-105137868D01*
X107682972Y-105204759D01*
X107642180Y-105281075D01*
X107617061Y-105363882D01*
X107608579Y-105449999D01*
X102390723Y-105449999D01*
X102418773Y-105421949D01*
X102534131Y-105249303D01*
X102613591Y-105057470D01*
X102654100Y-104853820D01*
X102654100Y-104646180D01*
X102613591Y-104442530D01*
X102534131Y-104250697D01*
X102418773Y-104078051D01*
X102271949Y-103931227D01*
X102099303Y-103815869D01*
X101907470Y-103736409D01*
X101703820Y-103695900D01*
X101496180Y-103695900D01*
X101292530Y-103736409D01*
X101100697Y-103815869D01*
X100928051Y-103931227D01*
X100781227Y-104078051D01*
X100665869Y-104250697D01*
X100586409Y-104442530D01*
X100545900Y-104646180D01*
X100108975Y-104646180D01*
X100098848Y-104543360D01*
X100038573Y-104344662D01*
X99940693Y-104161540D01*
X99808968Y-104001032D01*
X99648460Y-103869307D01*
X99465338Y-103771427D01*
X99266640Y-103711152D01*
X99111782Y-103695900D01*
X99008218Y-103695900D01*
X98853360Y-103711152D01*
X98654662Y-103771427D01*
X98471540Y-103869307D01*
X98311032Y-104001032D01*
X98179307Y-104161540D01*
X98081427Y-104344662D01*
X98021152Y-104543360D01*
X98000800Y-104750000D01*
X97579200Y-104750000D01*
X97558848Y-104543360D01*
X97498573Y-104344662D01*
X97455303Y-104263709D01*
X98301513Y-103417500D01*
X107608579Y-103417500D01*
X107608579Y-104050001D01*
X107617061Y-104136118D01*
X107642180Y-104218925D01*
X107682972Y-104295241D01*
X107737868Y-104362132D01*
X107804759Y-104417028D01*
X107881075Y-104457820D01*
X107963882Y-104482939D01*
X108049999Y-104491421D01*
X108950001Y-104491421D01*
X109036118Y-104482939D01*
X109118925Y-104457820D01*
X109195241Y-104417028D01*
X109262132Y-104362132D01*
X109317028Y-104295241D01*
X109357820Y-104218925D01*
X109382939Y-104136118D01*
X109391421Y-104050001D01*
X109391421Y-103399999D01*
X109382939Y-103313882D01*
X109357820Y-103231075D01*
X109317028Y-103154759D01*
X109262132Y-103087868D01*
X109195241Y-103032972D01*
X109118925Y-102992180D01*
X109036118Y-102967061D01*
X108950001Y-102958579D01*
X108182591Y-102958579D01*
X108110542Y-102886530D01*
X108100593Y-102874407D01*
X108052247Y-102834731D01*
X107997090Y-102805249D01*
X107937241Y-102787094D01*
X107890596Y-102782500D01*
X107875000Y-102780964D01*
X107859404Y-102782500D01*
X98185592Y-102782500D01*
X98169999Y-102780964D01*
X98154406Y-102782500D01*
X98154404Y-102782500D01*
X98107759Y-102787094D01*
X98047910Y-102805249D01*
X97992753Y-102834731D01*
X97944407Y-102874407D01*
X97934463Y-102886524D01*
X97006291Y-103814697D01*
X96925338Y-103771427D01*
X96726640Y-103711152D01*
X96571782Y-103695900D01*
X96468218Y-103695900D01*
X96313360Y-103711152D01*
X96114662Y-103771427D01*
X96033709Y-103814697D01*
X93342500Y-101123488D01*
X93342500Y-100891421D01*
X93350001Y-100891421D01*
X93436118Y-100882939D01*
X93518925Y-100857820D01*
X93595241Y-100817028D01*
X93662132Y-100762132D01*
X93717028Y-100695241D01*
X93757820Y-100618925D01*
X93782939Y-100536118D01*
X93791421Y-100450001D01*
X93791421Y-99549999D01*
X93782939Y-99463882D01*
X93757820Y-99381075D01*
X93717028Y-99304759D01*
X93662132Y-99237868D01*
X93595241Y-99182972D01*
X93518925Y-99142180D01*
X93436118Y-99117061D01*
X93350001Y-99108579D01*
X92699999Y-99108579D01*
X92613882Y-99117061D01*
X92531075Y-99142180D01*
X92454759Y-99182972D01*
X92387868Y-99237868D01*
X92332972Y-99304759D01*
X92292180Y-99381075D01*
X92267061Y-99463882D01*
X92258579Y-99549999D01*
X91741421Y-99549999D01*
X91732939Y-99463882D01*
X91707820Y-99381075D01*
X91667028Y-99304759D01*
X91612132Y-99237868D01*
X91545241Y-99182972D01*
X91477336Y-99146676D01*
X91631513Y-98992500D01*
X96243488Y-98992500D01*
X96772322Y-99521335D01*
X96772327Y-99521339D01*
X96808579Y-99557591D01*
X96808579Y-100160000D01*
X96813986Y-100214903D01*
X96830001Y-100267695D01*
X96856007Y-100316349D01*
X96891005Y-100358995D01*
X96933651Y-100393993D01*
X96982305Y-100419999D01*
X97035097Y-100436014D01*
X97090000Y-100441421D01*
X97910000Y-100441421D01*
X97964903Y-100436014D01*
X98017695Y-100419999D01*
X98066349Y-100393993D01*
X98108995Y-100358995D01*
X98143993Y-100316349D01*
X98169999Y-100267695D01*
X98186014Y-100214903D01*
X98191421Y-100160000D01*
X98191421Y-99710000D01*
X98408579Y-99710000D01*
X98408579Y-100190000D01*
X98413410Y-100239050D01*
X98427717Y-100286215D01*
X98450951Y-100329682D01*
X98482219Y-100367781D01*
X98520318Y-100399049D01*
X98563785Y-100422283D01*
X98610950Y-100436590D01*
X98660000Y-100441421D01*
X99340000Y-100441421D01*
X99389050Y-100436590D01*
X99436215Y-100422283D01*
X99479682Y-100399049D01*
X99496818Y-100384985D01*
X99516609Y-100450227D01*
X99564959Y-100540685D01*
X99630028Y-100619972D01*
X99709315Y-100685041D01*
X99799773Y-100733391D01*
X99897925Y-100763165D01*
X100000000Y-100773219D01*
X100128525Y-100770700D01*
X100258700Y-100640525D01*
X100258700Y-100041300D01*
X100741300Y-100041300D01*
X100741300Y-100640525D01*
X100871475Y-100770700D01*
X101000000Y-100773219D01*
X101102075Y-100763165D01*
X101200227Y-100733391D01*
X101290685Y-100685041D01*
X101369972Y-100619972D01*
X101435041Y-100540685D01*
X101483391Y-100450227D01*
X101513165Y-100352075D01*
X101523219Y-100250000D01*
X101520700Y-100171475D01*
X101390525Y-100041300D01*
X100741300Y-100041300D01*
X100258700Y-100041300D01*
X100238700Y-100041300D01*
X100238700Y-99558700D01*
X100258700Y-99558700D01*
X100258700Y-98959475D01*
X100741300Y-98959475D01*
X100741300Y-99558700D01*
X101390525Y-99558700D01*
X101520700Y-99428525D01*
X101523219Y-99350000D01*
X101513165Y-99247925D01*
X101483391Y-99149773D01*
X101435041Y-99059315D01*
X101369972Y-98980028D01*
X101290685Y-98914959D01*
X101200227Y-98866609D01*
X101102075Y-98836835D01*
X101000000Y-98826781D01*
X100871475Y-98829300D01*
X100741300Y-98959475D01*
X100258700Y-98959475D01*
X100128525Y-98829300D01*
X100000000Y-98826781D01*
X99897925Y-98836835D01*
X99799773Y-98866609D01*
X99709315Y-98914959D01*
X99630028Y-98980028D01*
X99564959Y-99059315D01*
X99516609Y-99149773D01*
X99486835Y-99247925D01*
X99476781Y-99350000D01*
X99479300Y-99428525D01*
X99609473Y-99558698D01*
X99539512Y-99558698D01*
X99517781Y-99532219D01*
X99479682Y-99500951D01*
X99436215Y-99477717D01*
X99389050Y-99463410D01*
X99340000Y-99458579D01*
X98660000Y-99458579D01*
X98610950Y-99463410D01*
X98563785Y-99477717D01*
X98520318Y-99500951D01*
X98482219Y-99532219D01*
X98450951Y-99570318D01*
X98427717Y-99613785D01*
X98413410Y-99660950D01*
X98408579Y-99710000D01*
X98191421Y-99710000D01*
X98191421Y-99440000D01*
X98186014Y-99385097D01*
X98169999Y-99332305D01*
X98143993Y-99283651D01*
X98108995Y-99241005D01*
X98066349Y-99206007D01*
X98017695Y-99180001D01*
X97964903Y-99163986D01*
X97910000Y-99158579D01*
X97307591Y-99158579D01*
X97221339Y-99072327D01*
X97221335Y-99072322D01*
X96610542Y-98461530D01*
X96600593Y-98449407D01*
X96552247Y-98409731D01*
X96497090Y-98380249D01*
X96437241Y-98362094D01*
X96390596Y-98357500D01*
X96375000Y-98355964D01*
X96359404Y-98357500D01*
X91515592Y-98357500D01*
X91499999Y-98355964D01*
X91484406Y-98357500D01*
X91484404Y-98357500D01*
X91437759Y-98362094D01*
X91377910Y-98380249D01*
X91322753Y-98409731D01*
X91274407Y-98449407D01*
X91264463Y-98461524D01*
X90761525Y-98964463D01*
X90749408Y-98974407D01*
X90709732Y-99022753D01*
X90694285Y-99051653D01*
X90680249Y-99077911D01*
X90670946Y-99108579D01*
X90649999Y-99108579D01*
X90563882Y-99117061D01*
X90481075Y-99142180D01*
X90404759Y-99182972D01*
X90337868Y-99237868D01*
X90282972Y-99304759D01*
X90242180Y-99381075D01*
X90217061Y-99463882D01*
X90208579Y-99549999D01*
X90208579Y-100450001D01*
X90217061Y-100536118D01*
X90242180Y-100618925D01*
X90282972Y-100695241D01*
X90337868Y-100762132D01*
X90404759Y-100817028D01*
X90481075Y-100857820D01*
X90563882Y-100882939D01*
X90649999Y-100891421D01*
X91207500Y-100891421D01*
X91207501Y-105693486D01*
X90718488Y-106182500D01*
X90516421Y-106182500D01*
X90516421Y-106090000D01*
X90511014Y-106035097D01*
X90494999Y-105982305D01*
X90468993Y-105933651D01*
X90433995Y-105891005D01*
X90391349Y-105856007D01*
X90342695Y-105830001D01*
X90289903Y-105813986D01*
X90235000Y-105808579D01*
X89515000Y-105808579D01*
X89460097Y-105813986D01*
X89407305Y-105830001D01*
X89358651Y-105856007D01*
X89316005Y-105891005D01*
X89281007Y-105933651D01*
X89255001Y-105982305D01*
X89238986Y-106035097D01*
X89233579Y-106090000D01*
X89032700Y-106090000D01*
X89032700Y-105990000D01*
X89032456Y-105987522D01*
X89031733Y-105985140D01*
X89030560Y-105982944D01*
X89028980Y-105981020D01*
X89027056Y-105979440D01*
X89024860Y-105978267D01*
X89022478Y-105977544D01*
X89020000Y-105977300D01*
X87037700Y-105977300D01*
X87037700Y-104037700D01*
X88905494Y-104037700D01*
X88911835Y-104102075D01*
X88941609Y-104200227D01*
X88989959Y-104290685D01*
X89055028Y-104369972D01*
X89134315Y-104435041D01*
X89224773Y-104483391D01*
X89322925Y-104513165D01*
X89425000Y-104523219D01*
X89503525Y-104520700D01*
X89633698Y-104390527D01*
X89633698Y-104460488D01*
X89607219Y-104482219D01*
X89575951Y-104520318D01*
X89552717Y-104563785D01*
X89538410Y-104610950D01*
X89533579Y-104660000D01*
X89533579Y-105340000D01*
X89538410Y-105389050D01*
X89552717Y-105436215D01*
X89575951Y-105479682D01*
X89607219Y-105517781D01*
X89645318Y-105549049D01*
X89688785Y-105572283D01*
X89735950Y-105586590D01*
X89785000Y-105591421D01*
X90265000Y-105591421D01*
X90314050Y-105586590D01*
X90361215Y-105572283D01*
X90404682Y-105549049D01*
X90442781Y-105517781D01*
X90474049Y-105479682D01*
X90497283Y-105436215D01*
X90511590Y-105389050D01*
X90516421Y-105340000D01*
X90516421Y-104660000D01*
X90511590Y-104610950D01*
X90497283Y-104563785D01*
X90474049Y-104520318D01*
X90459985Y-104503182D01*
X90525227Y-104483391D01*
X90615685Y-104435041D01*
X90694972Y-104369972D01*
X90760041Y-104290685D01*
X90808391Y-104200227D01*
X90838165Y-104102075D01*
X90848219Y-104000000D01*
X90845700Y-103871475D01*
X90715525Y-103741300D01*
X90116300Y-103741300D01*
X90116300Y-103761300D01*
X89633700Y-103761300D01*
X89633700Y-103741300D01*
X89613700Y-103741300D01*
X89613700Y-103258700D01*
X89633700Y-103258700D01*
X89633700Y-102609475D01*
X90116300Y-102609475D01*
X90116300Y-103258700D01*
X90715525Y-103258700D01*
X90845700Y-103128525D01*
X90848219Y-103000000D01*
X90838165Y-102897925D01*
X90808391Y-102799773D01*
X90760041Y-102709315D01*
X90694972Y-102630028D01*
X90615685Y-102564959D01*
X90525227Y-102516609D01*
X90427075Y-102486835D01*
X90325000Y-102476781D01*
X90246475Y-102479300D01*
X90116300Y-102609475D01*
X89633700Y-102609475D01*
X89503525Y-102479300D01*
X89425000Y-102476781D01*
X89322925Y-102486835D01*
X89224773Y-102516609D01*
X89134315Y-102564959D01*
X89055028Y-102630028D01*
X89037700Y-102651142D01*
X89037700Y-102000000D01*
X89037456Y-101997522D01*
X89036733Y-101995140D01*
X89035560Y-101992944D01*
X89033980Y-101991020D01*
X89032056Y-101989440D01*
X89029860Y-101988267D01*
X89027478Y-101987544D01*
X89025000Y-101987300D01*
X87000000Y-101987300D01*
X86997522Y-101987544D01*
X86995140Y-101988267D01*
X86992944Y-101989440D01*
X86991020Y-101991020D01*
X86989440Y-101992944D01*
X86988267Y-101995140D01*
X86987544Y-101997522D01*
X86987300Y-102000000D01*
X86987300Y-103987300D01*
X85012700Y-103987300D01*
X85012700Y-96012700D01*
X96987300Y-96012700D01*
X96987300Y-98000000D01*
X96987300Y-98000000D01*
G37*
X96987300Y-98000000D02*
X96987544Y-98002478D01*
X96988267Y-98004860D01*
X96989440Y-98007056D01*
X96991020Y-98008980D01*
X96992944Y-98010560D01*
X96995140Y-98011733D01*
X96997522Y-98012456D01*
X97000000Y-98012700D01*
X101000000Y-98012700D01*
X101002478Y-98012456D01*
X101004860Y-98011733D01*
X101007056Y-98010560D01*
X101008980Y-98008980D01*
X101010560Y-98007056D01*
X101011733Y-98004860D01*
X101012456Y-98002478D01*
X101012700Y-98000000D01*
X101012700Y-96012700D01*
X114987300Y-96012700D01*
X114987300Y-98000000D01*
X114987544Y-98002478D01*
X114988267Y-98004860D01*
X114989440Y-98007056D01*
X114991020Y-98008980D01*
X114992944Y-98010560D01*
X114995140Y-98011733D01*
X114997522Y-98012456D01*
X115000000Y-98012700D01*
X119000000Y-98012700D01*
X119002478Y-98012456D01*
X119004860Y-98011733D01*
X119007056Y-98010560D01*
X119008980Y-98008980D01*
X119010560Y-98007056D01*
X119011733Y-98004860D01*
X119012456Y-98002478D01*
X119012700Y-98000000D01*
X119012700Y-96012700D01*
X122894015Y-96012700D01*
X122894016Y-99994979D01*
X122894015Y-99994989D01*
X122894016Y-105917167D01*
X121037700Y-105917167D01*
X121037700Y-102000000D01*
X121037456Y-101997522D01*
X121036733Y-101995140D01*
X121035560Y-101992944D01*
X121033980Y-101991020D01*
X121032056Y-101989440D01*
X121029860Y-101988267D01*
X121027478Y-101987544D01*
X121025000Y-101987300D01*
X119000000Y-101987300D01*
X118997522Y-101987544D01*
X118995140Y-101988267D01*
X118992944Y-101989440D01*
X118991020Y-101991020D01*
X118989440Y-101992944D01*
X118988267Y-101995140D01*
X118987544Y-101997522D01*
X118987300Y-102000000D01*
X118987300Y-105987300D01*
X117000000Y-105987300D01*
X116997522Y-105987544D01*
X116995140Y-105988267D01*
X116992944Y-105989440D01*
X116991020Y-105991020D01*
X116989440Y-105992944D01*
X116988267Y-105995140D01*
X116987544Y-105997522D01*
X116987300Y-106000000D01*
X116987300Y-109987300D01*
X115000000Y-109987300D01*
X114997522Y-109987544D01*
X114995140Y-109988267D01*
X114992944Y-109989440D01*
X114991020Y-109991020D01*
X114989440Y-109992944D01*
X114988267Y-109995140D01*
X114987544Y-109997522D01*
X114987300Y-110000000D01*
X114987300Y-111987300D01*
X113000000Y-111987300D01*
X112997522Y-111987544D01*
X112995140Y-111988267D01*
X112992944Y-111989440D01*
X112991020Y-111991020D01*
X112989440Y-111992944D01*
X112988267Y-111995140D01*
X112987544Y-111997522D01*
X112987300Y-112000000D01*
X112987300Y-113987300D01*
X110777700Y-113987300D01*
X110777700Y-113915271D01*
X110353984Y-113491555D01*
X109894913Y-113950626D01*
X109894913Y-113987300D01*
X109000000Y-113987300D01*
X108997522Y-113987544D01*
X108995140Y-113988267D01*
X108992944Y-113989440D01*
X108991020Y-113991020D01*
X108989440Y-113992944D01*
X108988267Y-113995140D01*
X108987544Y-113997522D01*
X108987300Y-114000000D01*
X108987300Y-115987300D01*
X105000000Y-115987300D01*
X104997522Y-115987544D01*
X104995140Y-115988267D01*
X104992944Y-115989440D01*
X104991020Y-115991020D01*
X104989440Y-115992944D01*
X104988267Y-115995140D01*
X104987544Y-115997522D01*
X104987300Y-116000000D01*
X104987300Y-117987300D01*
X97012700Y-117987300D01*
X97012700Y-116450000D01*
X98676781Y-116450000D01*
X98686835Y-116552075D01*
X98716609Y-116650227D01*
X98764959Y-116740685D01*
X98830028Y-116819972D01*
X98909315Y-116885041D01*
X98999773Y-116933391D01*
X99097925Y-116963165D01*
X99200000Y-116973219D01*
X99328525Y-116970700D01*
X99458700Y-116840525D01*
X99458700Y-116241300D01*
X98809475Y-116241300D01*
X98679300Y-116371475D01*
X98676781Y-116450000D01*
X97012700Y-116450000D01*
X97012700Y-116000000D01*
X97012456Y-115997522D01*
X97011733Y-115995140D01*
X97010560Y-115992944D01*
X97008980Y-115991020D01*
X97007056Y-115989440D01*
X97004860Y-115988267D01*
X97002478Y-115987544D01*
X97000000Y-115987300D01*
X93012700Y-115987300D01*
X93012700Y-115550000D01*
X98676781Y-115550000D01*
X98679300Y-115628525D01*
X98809475Y-115758700D01*
X99458700Y-115758700D01*
X99458700Y-115159475D01*
X99941300Y-115159475D01*
X99941300Y-115758700D01*
X99961300Y-115758700D01*
X99961300Y-116241300D01*
X99941300Y-116241300D01*
X99941300Y-116840525D01*
X100071475Y-116970700D01*
X100200000Y-116973219D01*
X100302075Y-116963165D01*
X100400227Y-116933391D01*
X100490685Y-116885041D01*
X100569972Y-116819972D01*
X100635041Y-116740685D01*
X100683391Y-116650227D01*
X100713165Y-116552075D01*
X100723219Y-116450000D01*
X100720700Y-116371475D01*
X100590527Y-116241302D01*
X100660488Y-116241302D01*
X100682219Y-116267781D01*
X100720318Y-116299049D01*
X100763785Y-116322283D01*
X100810950Y-116336590D01*
X100860000Y-116341421D01*
X101540000Y-116341421D01*
X101589050Y-116336590D01*
X101636215Y-116322283D01*
X101679682Y-116299049D01*
X101717781Y-116267781D01*
X101749049Y-116229682D01*
X101772283Y-116186215D01*
X101786590Y-116139050D01*
X101791421Y-116090000D01*
X101791421Y-115610000D01*
X101786590Y-115560950D01*
X101772283Y-115513785D01*
X101749049Y-115470318D01*
X101717781Y-115432219D01*
X101679682Y-115400951D01*
X101636215Y-115377717D01*
X101589050Y-115363410D01*
X101540000Y-115358579D01*
X100860000Y-115358579D01*
X100810950Y-115363410D01*
X100763785Y-115377717D01*
X100720318Y-115400951D01*
X100703182Y-115415015D01*
X100683391Y-115349773D01*
X100635041Y-115259315D01*
X100569972Y-115180028D01*
X100490685Y-115114959D01*
X100400227Y-115066609D01*
X100302075Y-115036835D01*
X100200000Y-115026781D01*
X100071475Y-115029300D01*
X99941300Y-115159475D01*
X99458700Y-115159475D01*
X99328525Y-115029300D01*
X99200000Y-115026781D01*
X99097925Y-115036835D01*
X98999773Y-115066609D01*
X98909315Y-115114959D01*
X98830028Y-115180028D01*
X98764959Y-115259315D01*
X98716609Y-115349773D01*
X98686835Y-115447925D01*
X98676781Y-115550000D01*
X93012700Y-115550000D01*
X93012700Y-114000000D01*
X93012456Y-113997522D01*
X93011733Y-113995140D01*
X93010560Y-113992944D01*
X93008980Y-113991020D01*
X93007056Y-113989440D01*
X93004860Y-113988267D01*
X93002478Y-113987544D01*
X93000000Y-113987300D01*
X89012700Y-113987300D01*
X89012700Y-113114950D01*
X90770123Y-113114950D01*
X90775530Y-113169853D01*
X90791545Y-113222645D01*
X90817551Y-113271299D01*
X90852549Y-113313945D01*
X91432376Y-113893772D01*
X91475022Y-113928770D01*
X91523676Y-113954776D01*
X91576468Y-113970791D01*
X91631371Y-113976198D01*
X91686274Y-113970791D01*
X91739066Y-113954776D01*
X91787720Y-113928770D01*
X91830366Y-113893772D01*
X92256638Y-113467500D01*
X98118488Y-113467500D01*
X99189463Y-114538476D01*
X99199407Y-114550593D01*
X99247752Y-114590268D01*
X99247753Y-114590269D01*
X99302910Y-114619751D01*
X99362759Y-114637906D01*
X99425000Y-114644036D01*
X99440596Y-114642500D01*
X101384404Y-114642500D01*
X101400000Y-114644036D01*
X101415596Y-114642500D01*
X101462241Y-114637906D01*
X101522090Y-114619751D01*
X101577247Y-114590269D01*
X101625593Y-114550593D01*
X101635542Y-114538470D01*
X102271382Y-113902631D01*
X102288882Y-113907939D01*
X102374999Y-113916421D01*
X102382501Y-113916421D01*
X102382500Y-115358579D01*
X102290000Y-115358579D01*
X102235097Y-115363986D01*
X102182305Y-115380001D01*
X102133651Y-115406007D01*
X102091005Y-115441005D01*
X102056007Y-115483651D01*
X102030001Y-115532305D01*
X102013986Y-115585097D01*
X102008579Y-115640000D01*
X102008579Y-116360000D01*
X102013986Y-116414903D01*
X102030001Y-116467695D01*
X102056007Y-116516349D01*
X102091005Y-116558995D01*
X102133651Y-116593993D01*
X102182305Y-116619999D01*
X102235097Y-116636014D01*
X102290000Y-116641421D01*
X103110000Y-116641421D01*
X103164903Y-116636014D01*
X103217695Y-116619999D01*
X103266349Y-116593993D01*
X103308995Y-116558995D01*
X103343993Y-116516349D01*
X103369999Y-116467695D01*
X103386014Y-116414903D01*
X103391421Y-116360000D01*
X103391421Y-115640000D01*
X103386014Y-115585097D01*
X103369999Y-115532305D01*
X103343993Y-115483651D01*
X103308995Y-115441005D01*
X103266349Y-115406007D01*
X103217695Y-115380001D01*
X103164903Y-115363986D01*
X103110000Y-115358579D01*
X103017500Y-115358579D01*
X103017500Y-113916421D01*
X103025001Y-113916421D01*
X103111118Y-113907939D01*
X103193925Y-113882820D01*
X103270241Y-113842028D01*
X103337132Y-113787132D01*
X103392028Y-113720241D01*
X103432820Y-113643925D01*
X103457939Y-113561118D01*
X103466421Y-113475001D01*
X103466421Y-113185660D01*
X109159013Y-113185660D01*
X109169067Y-113287735D01*
X109198842Y-113385888D01*
X109247192Y-113476345D01*
X109312261Y-113555632D01*
X109369568Y-113609376D01*
X109553663Y-113609376D01*
X110012734Y-113150305D01*
X109589018Y-112726589D01*
X109404923Y-112726589D01*
X109312261Y-112815689D01*
X109247192Y-112894976D01*
X109198842Y-112985433D01*
X109169067Y-113083585D01*
X109159013Y-113185660D01*
X103466421Y-113185660D01*
X103466421Y-112707591D01*
X103972768Y-112201244D01*
X109930268Y-112201244D01*
X109930268Y-112385339D01*
X110353984Y-112809055D01*
X110368126Y-112794913D01*
X110709376Y-113136163D01*
X110695234Y-113150305D01*
X111118950Y-113574021D01*
X111303045Y-113574021D01*
X111395707Y-113484921D01*
X111460776Y-113405634D01*
X111509126Y-113315177D01*
X111538901Y-113217025D01*
X111548955Y-113114950D01*
X111538901Y-113012875D01*
X111509126Y-112914722D01*
X111460776Y-112824265D01*
X111395707Y-112744978D01*
X111338400Y-112691234D01*
X111154307Y-112691234D01*
X111203777Y-112641764D01*
X111237868Y-112645122D01*
X111286918Y-112640291D01*
X111334083Y-112625984D01*
X111377550Y-112602750D01*
X111415649Y-112571482D01*
X111896482Y-112090649D01*
X111927750Y-112052550D01*
X111950984Y-112009083D01*
X111965291Y-111961918D01*
X111970122Y-111912868D01*
X111965291Y-111863818D01*
X111950984Y-111816653D01*
X111927750Y-111773186D01*
X111896482Y-111735087D01*
X111557071Y-111395676D01*
X111518972Y-111364408D01*
X111475505Y-111341174D01*
X111428340Y-111326867D01*
X111379290Y-111322036D01*
X111330240Y-111326867D01*
X111283075Y-111341174D01*
X111239608Y-111364408D01*
X111201509Y-111395676D01*
X110720676Y-111876509D01*
X110689408Y-111914608D01*
X110666174Y-111958075D01*
X110651867Y-112005240D01*
X110649694Y-112027301D01*
X110589567Y-111995163D01*
X110491414Y-111965388D01*
X110389339Y-111955334D01*
X110287264Y-111965388D01*
X110189112Y-111995163D01*
X110098655Y-112043513D01*
X110019368Y-112108582D01*
X109930268Y-112201244D01*
X103972768Y-112201244D01*
X104881513Y-111292500D01*
X111761004Y-111292500D01*
X112240955Y-111772451D01*
X112283601Y-111807449D01*
X112332255Y-111833455D01*
X112385047Y-111849470D01*
X112439950Y-111854877D01*
X112494853Y-111849470D01*
X112547645Y-111833455D01*
X112596299Y-111807449D01*
X112638945Y-111772451D01*
X113218772Y-111192624D01*
X113253770Y-111149978D01*
X113279776Y-111101324D01*
X113295791Y-111048532D01*
X113301198Y-110993629D01*
X113295791Y-110938726D01*
X113279776Y-110885934D01*
X113253770Y-110837280D01*
X113218772Y-110794634D01*
X112709655Y-110285517D01*
X112667009Y-110250519D01*
X112618355Y-110224513D01*
X112565563Y-110208498D01*
X112510660Y-110203091D01*
X112455757Y-110208498D01*
X112402965Y-110224513D01*
X112354311Y-110250519D01*
X112311665Y-110285517D01*
X111939682Y-110657500D01*
X104765596Y-110657500D01*
X104750000Y-110655964D01*
X104734404Y-110657500D01*
X104687759Y-110662094D01*
X104627910Y-110680249D01*
X104572753Y-110709731D01*
X104524407Y-110749407D01*
X104514463Y-110761524D01*
X103128618Y-112147370D01*
X103111118Y-112142061D01*
X103025001Y-112133579D01*
X102374999Y-112133579D01*
X102288882Y-112142061D01*
X102206075Y-112167180D01*
X102129759Y-112207972D01*
X102062868Y-112262868D01*
X102007972Y-112329759D01*
X101967180Y-112406075D01*
X101942061Y-112488882D01*
X101933579Y-112574999D01*
X101933579Y-113342409D01*
X101863154Y-113412834D01*
X101863149Y-113412838D01*
X101268488Y-114007500D01*
X99556513Y-114007500D01*
X98485542Y-112936530D01*
X98475593Y-112924407D01*
X98427247Y-112884731D01*
X98372090Y-112855249D01*
X98312241Y-112837094D01*
X98265596Y-112832500D01*
X98250000Y-112830964D01*
X98234404Y-112832500D01*
X92185318Y-112832500D01*
X91759656Y-112406838D01*
X91717010Y-112371840D01*
X91668356Y-112345834D01*
X91615564Y-112329819D01*
X91560661Y-112324412D01*
X91505758Y-112329819D01*
X91452966Y-112345834D01*
X91404312Y-112371840D01*
X91361666Y-112406838D01*
X90852549Y-112915955D01*
X90817551Y-112958601D01*
X90791545Y-113007255D01*
X90775530Y-113060047D01*
X90770123Y-113114950D01*
X89012700Y-113114950D01*
X89012700Y-112000000D01*
X89012456Y-111997522D01*
X89011733Y-111995140D01*
X89010560Y-111992944D01*
X89008980Y-111991020D01*
X89007056Y-111989440D01*
X89004860Y-111988267D01*
X89002478Y-111987544D01*
X89000000Y-111987300D01*
X87012700Y-111987300D01*
X87012700Y-111793950D01*
X89050979Y-111793950D01*
X89050979Y-111978045D01*
X89140079Y-112070707D01*
X89219366Y-112135776D01*
X89309823Y-112184126D01*
X89407975Y-112213901D01*
X89510050Y-112223955D01*
X89612125Y-112213901D01*
X89710278Y-112184126D01*
X89800735Y-112135776D01*
X89880022Y-112070707D01*
X89933766Y-112013400D01*
X89933766Y-111829307D01*
X89983236Y-111878777D01*
X89979878Y-111912868D01*
X89984709Y-111961918D01*
X89999016Y-112009083D01*
X90022250Y-112052550D01*
X90053518Y-112090649D01*
X90534351Y-112571482D01*
X90572450Y-112602750D01*
X90615917Y-112625984D01*
X90663082Y-112640291D01*
X90712132Y-112645122D01*
X90761182Y-112640291D01*
X90808347Y-112625984D01*
X90851814Y-112602750D01*
X90889913Y-112571482D01*
X91229324Y-112232071D01*
X91260592Y-112193972D01*
X91283826Y-112150505D01*
X91298133Y-112103340D01*
X91302964Y-112054290D01*
X91298133Y-112005240D01*
X91283826Y-111958075D01*
X91260592Y-111914608D01*
X91229324Y-111876509D01*
X90748491Y-111395676D01*
X90710392Y-111364408D01*
X90666925Y-111341174D01*
X90619760Y-111326867D01*
X90597699Y-111324694D01*
X90629837Y-111264567D01*
X90659612Y-111166414D01*
X90669666Y-111064339D01*
X90659612Y-110962264D01*
X90629837Y-110864112D01*
X90581487Y-110773655D01*
X90516418Y-110694368D01*
X90423756Y-110605268D01*
X90239661Y-110605268D01*
X89815945Y-111028984D01*
X89830087Y-111043126D01*
X89488837Y-111384376D01*
X89474695Y-111370234D01*
X89050979Y-111793950D01*
X87012700Y-111793950D01*
X87012700Y-110993629D01*
X88279724Y-110993629D01*
X88289778Y-111095704D01*
X88319553Y-111193856D01*
X88367903Y-111284313D01*
X88432972Y-111363600D01*
X88525634Y-111452700D01*
X88709729Y-111452700D01*
X89133445Y-111028984D01*
X88674374Y-110569913D01*
X88490279Y-110569913D01*
X88432972Y-110623657D01*
X88367903Y-110702944D01*
X88319553Y-110793401D01*
X88289778Y-110891554D01*
X88279724Y-110993629D01*
X87012700Y-110993629D01*
X87012700Y-110044568D01*
X89015624Y-110044568D01*
X89015624Y-110228663D01*
X89474695Y-110687734D01*
X89898411Y-110264018D01*
X89898411Y-110079923D01*
X89809311Y-109987261D01*
X89730024Y-109922192D01*
X89639567Y-109873842D01*
X89541415Y-109844067D01*
X89439340Y-109834013D01*
X89337265Y-109844067D01*
X89239112Y-109873842D01*
X89148655Y-109922192D01*
X89069368Y-109987261D01*
X89015624Y-110044568D01*
X87012700Y-110044568D01*
X87012700Y-110000000D01*
X87012456Y-109997522D01*
X87011733Y-109995140D01*
X87010560Y-109992944D01*
X87008980Y-109991020D01*
X87007056Y-109989440D01*
X87004860Y-109988267D01*
X87002478Y-109987544D01*
X87000000Y-109987300D01*
X85012700Y-109987300D01*
X85012700Y-108153600D01*
X95133181Y-108153600D01*
X95143235Y-108255675D01*
X95173009Y-108353827D01*
X95221359Y-108444285D01*
X95286428Y-108523572D01*
X95365715Y-108588641D01*
X95456173Y-108636991D01*
X95554325Y-108666765D01*
X95656400Y-108676819D01*
X96148525Y-108674300D01*
X96278700Y-108544125D01*
X96278700Y-107531300D01*
X95265875Y-107531300D01*
X95135700Y-107661475D01*
X95133181Y-108153600D01*
X85012700Y-108153600D01*
X85012700Y-106037700D01*
X86987300Y-106037700D01*
X86987300Y-108020000D01*
X86987544Y-108022478D01*
X86988267Y-108024860D01*
X86989440Y-108027056D01*
X86991020Y-108028980D01*
X86992944Y-108030560D01*
X86995140Y-108031733D01*
X86997522Y-108032456D01*
X87000000Y-108032700D01*
X89020000Y-108032700D01*
X89022478Y-108032456D01*
X89024860Y-108031733D01*
X89027056Y-108030560D01*
X89028980Y-108028980D01*
X89030560Y-108027056D01*
X89031733Y-108024860D01*
X89032456Y-108022478D01*
X89032700Y-108020000D01*
X89032700Y-106090000D01*
X89233579Y-106090000D01*
X89233579Y-106910000D01*
X89238986Y-106964903D01*
X89255001Y-107017695D01*
X89281007Y-107066349D01*
X89316005Y-107108995D01*
X89358651Y-107143993D01*
X89407305Y-107169999D01*
X89460097Y-107186014D01*
X89515000Y-107191421D01*
X90235000Y-107191421D01*
X90289903Y-107186014D01*
X90342695Y-107169999D01*
X90391349Y-107143993D01*
X90433995Y-107108995D01*
X90468993Y-107066349D01*
X90494999Y-107017695D01*
X90511014Y-106964903D01*
X90516421Y-106910000D01*
X90516421Y-106817500D01*
X90834404Y-106817500D01*
X90850000Y-106819036D01*
X90865596Y-106817500D01*
X90912241Y-106812906D01*
X90972090Y-106794751D01*
X91027247Y-106765269D01*
X91075593Y-106725593D01*
X91085542Y-106713470D01*
X91372612Y-106426400D01*
X95133181Y-106426400D01*
X95135700Y-106918525D01*
X95265875Y-107048700D01*
X96278700Y-107048700D01*
X96278700Y-106035875D01*
X96148525Y-105905700D01*
X95656400Y-105903181D01*
X95554325Y-105913235D01*
X95456173Y-105943009D01*
X95365715Y-105991359D01*
X95286428Y-106056428D01*
X95221359Y-106135715D01*
X95173009Y-106226173D01*
X95143235Y-106324325D01*
X95133181Y-106426400D01*
X91372612Y-106426400D01*
X91738476Y-106060537D01*
X91750593Y-106050593D01*
X91790269Y-106002247D01*
X91819751Y-105947090D01*
X91837906Y-105887241D01*
X91842500Y-105840596D01*
X91842500Y-105840594D01*
X91844036Y-105825001D01*
X91842500Y-105809408D01*
X91842500Y-100565592D01*
X91844036Y-100549999D01*
X91842500Y-100534404D01*
X91837906Y-100487759D01*
X91819751Y-100427910D01*
X91790269Y-100372753D01*
X91750593Y-100324407D01*
X91741421Y-100316880D01*
X91741421Y-99549999D01*
X92258579Y-99549999D01*
X92258579Y-100450001D01*
X92267061Y-100536118D01*
X92292180Y-100618925D01*
X92332972Y-100695241D01*
X92387868Y-100762132D01*
X92454759Y-100817028D01*
X92531075Y-100857820D01*
X92613882Y-100882939D01*
X92699999Y-100891421D01*
X92707501Y-100891421D01*
X92707501Y-101239395D01*
X92705964Y-101255000D01*
X92712094Y-101317240D01*
X92730249Y-101377089D01*
X92730250Y-101377090D01*
X92759732Y-101432247D01*
X92799408Y-101480593D01*
X92811525Y-101490537D01*
X95584697Y-104263709D01*
X95541427Y-104344662D01*
X95481152Y-104543360D01*
X95460800Y-104750000D01*
X95481152Y-104956640D01*
X95541427Y-105155338D01*
X95639307Y-105338460D01*
X95771032Y-105498968D01*
X95931540Y-105630693D01*
X96114662Y-105728573D01*
X96313360Y-105788848D01*
X96468218Y-105804100D01*
X96571782Y-105804100D01*
X96726640Y-105788848D01*
X96925338Y-105728573D01*
X97006291Y-105685303D01*
X97224980Y-105903993D01*
X96891475Y-105905700D01*
X96761300Y-106035875D01*
X96761300Y-107048700D01*
X96781300Y-107048700D01*
X96781300Y-107531300D01*
X96761300Y-107531300D01*
X96761300Y-108544125D01*
X96891475Y-108674300D01*
X97383600Y-108676819D01*
X97485675Y-108666765D01*
X97574100Y-108639942D01*
X97574100Y-110250993D01*
X97572563Y-110266599D01*
X97578693Y-110328839D01*
X97596848Y-110388688D01*
X97596849Y-110388689D01*
X97626331Y-110443846D01*
X97666007Y-110492192D01*
X97678124Y-110502136D01*
X99813149Y-112637162D01*
X99813154Y-112637166D01*
X99883579Y-112707591D01*
X99883579Y-113475001D01*
X99892061Y-113561118D01*
X99917180Y-113643925D01*
X99957972Y-113720241D01*
X100012868Y-113787132D01*
X100079759Y-113842028D01*
X100156075Y-113882820D01*
X100238882Y-113907939D01*
X100324999Y-113916421D01*
X100975001Y-113916421D01*
X101061118Y-113907939D01*
X101143925Y-113882820D01*
X101220241Y-113842028D01*
X101287132Y-113787132D01*
X101342028Y-113720241D01*
X101382820Y-113643925D01*
X101407939Y-113561118D01*
X101416421Y-113475001D01*
X101416421Y-112574999D01*
X101407939Y-112488882D01*
X101382820Y-112406075D01*
X101342028Y-112329759D01*
X101287132Y-112262868D01*
X101220241Y-112207972D01*
X101143925Y-112167180D01*
X101061118Y-112142061D01*
X100975001Y-112133579D01*
X100324999Y-112133579D01*
X100238882Y-112142061D01*
X100221382Y-112147369D01*
X98209099Y-110135087D01*
X98209099Y-107914762D01*
X98311032Y-108038968D01*
X98471540Y-108170693D01*
X98654662Y-108268573D01*
X98853360Y-108328848D01*
X99008218Y-108344100D01*
X99111782Y-108344100D01*
X99266640Y-108328848D01*
X99465338Y-108268573D01*
X99648460Y-108170693D01*
X99808968Y-108038968D01*
X99940693Y-107878460D01*
X100038573Y-107695338D01*
X100098848Y-107496640D01*
X100119200Y-107290000D01*
X100108975Y-107186180D01*
X100545900Y-107186180D01*
X100545900Y-107393820D01*
X100586409Y-107597470D01*
X100665869Y-107789303D01*
X100781227Y-107961949D01*
X100928051Y-108108773D01*
X101100697Y-108224131D01*
X101292530Y-108303591D01*
X101496180Y-108344100D01*
X101703820Y-108344100D01*
X101907470Y-108303591D01*
X102099303Y-108224131D01*
X102271949Y-108108773D01*
X102418773Y-107961949D01*
X102534131Y-107789303D01*
X102613591Y-107597470D01*
X102654100Y-107393820D01*
X102654100Y-107186180D01*
X102613591Y-106982530D01*
X102534131Y-106790697D01*
X102440121Y-106650000D01*
X113476781Y-106650000D01*
X113486835Y-106752075D01*
X113516609Y-106850227D01*
X113564959Y-106940685D01*
X113630028Y-107019972D01*
X113709315Y-107085041D01*
X113799773Y-107133391D01*
X113897925Y-107163165D01*
X114000000Y-107173219D01*
X114078525Y-107170700D01*
X114208700Y-107040525D01*
X114208700Y-106391300D01*
X114691300Y-106391300D01*
X114691300Y-107040525D01*
X114821475Y-107170700D01*
X114900000Y-107173219D01*
X115002075Y-107163165D01*
X115100227Y-107133391D01*
X115190685Y-107085041D01*
X115269972Y-107019972D01*
X115335041Y-106940685D01*
X115383391Y-106850227D01*
X115413165Y-106752075D01*
X115423219Y-106650000D01*
X115420700Y-106521475D01*
X115290525Y-106391300D01*
X114691300Y-106391300D01*
X114208700Y-106391300D01*
X113609475Y-106391300D01*
X113479300Y-106521475D01*
X113476781Y-106650000D01*
X102440121Y-106650000D01*
X102418773Y-106618051D01*
X102271949Y-106471227D01*
X102099303Y-106355869D01*
X101907470Y-106276409D01*
X101703820Y-106235900D01*
X101496180Y-106235900D01*
X101292530Y-106276409D01*
X101100697Y-106355869D01*
X100928051Y-106471227D01*
X100781227Y-106618051D01*
X100665869Y-106790697D01*
X100586409Y-106982530D01*
X100545900Y-107186180D01*
X100108975Y-107186180D01*
X100098848Y-107083360D01*
X100038573Y-106884662D01*
X99940693Y-106701540D01*
X99808968Y-106541032D01*
X99648460Y-106409307D01*
X99465338Y-106311427D01*
X99266640Y-106251152D01*
X99111782Y-106235900D01*
X99008218Y-106235900D01*
X98853360Y-106251152D01*
X98654662Y-106311427D01*
X98471540Y-106409307D01*
X98311032Y-106541032D01*
X98209099Y-106665238D01*
X98209099Y-106137195D01*
X98210635Y-106121599D01*
X98204505Y-106059358D01*
X98186350Y-105999509D01*
X98156868Y-105944352D01*
X98144373Y-105929127D01*
X98117192Y-105896006D01*
X98105076Y-105886063D01*
X97455303Y-105236291D01*
X97498573Y-105155338D01*
X97558848Y-104956640D01*
X97579200Y-104750000D01*
X98000800Y-104750000D01*
X98021152Y-104956640D01*
X98081427Y-105155338D01*
X98179307Y-105338460D01*
X98311032Y-105498968D01*
X98471540Y-105630693D01*
X98654662Y-105728573D01*
X98853360Y-105788848D01*
X99008218Y-105804100D01*
X99111782Y-105804100D01*
X99266640Y-105788848D01*
X99465338Y-105728573D01*
X99648460Y-105630693D01*
X99808968Y-105498968D01*
X99940693Y-105338460D01*
X100038573Y-105155338D01*
X100098848Y-104956640D01*
X100119200Y-104750000D01*
X100108975Y-104646180D01*
X100545900Y-104646180D01*
X100545900Y-104853820D01*
X100586409Y-105057470D01*
X100665869Y-105249303D01*
X100781227Y-105421949D01*
X100928051Y-105568773D01*
X101100697Y-105684131D01*
X101292530Y-105763591D01*
X101496180Y-105804100D01*
X101703820Y-105804100D01*
X101907470Y-105763591D01*
X102099303Y-105684131D01*
X102271949Y-105568773D01*
X102390723Y-105449999D01*
X107608579Y-105449999D01*
X107608579Y-106100001D01*
X107617061Y-106186118D01*
X107642180Y-106268925D01*
X107682972Y-106345241D01*
X107737868Y-106412132D01*
X107804759Y-106467028D01*
X107881075Y-106507820D01*
X107963882Y-106532939D01*
X108049999Y-106541421D01*
X108950001Y-106541421D01*
X109036118Y-106532939D01*
X109118925Y-106507820D01*
X109195241Y-106467028D01*
X109262132Y-106412132D01*
X109317028Y-106345241D01*
X109357820Y-106268925D01*
X109382939Y-106186118D01*
X109391421Y-106100001D01*
X109391421Y-105650000D01*
X113476781Y-105650000D01*
X113479300Y-105778525D01*
X113609475Y-105908700D01*
X114208700Y-105908700D01*
X114208700Y-105888700D01*
X114691300Y-105888700D01*
X114691300Y-105908700D01*
X115290525Y-105908700D01*
X115420700Y-105778525D01*
X115423219Y-105650000D01*
X115413165Y-105547925D01*
X115383391Y-105449773D01*
X115335041Y-105359315D01*
X115269972Y-105280028D01*
X115190685Y-105214959D01*
X115100227Y-105166609D01*
X115002075Y-105136835D01*
X114900000Y-105126781D01*
X114821475Y-105129300D01*
X114691302Y-105259473D01*
X114691302Y-105189512D01*
X114717781Y-105167781D01*
X114749049Y-105129682D01*
X114772283Y-105086215D01*
X114786590Y-105039050D01*
X114791421Y-104990000D01*
X114791421Y-104310000D01*
X114786590Y-104260950D01*
X114772283Y-104213785D01*
X114749049Y-104170318D01*
X114717781Y-104132219D01*
X114679682Y-104100951D01*
X114636215Y-104077717D01*
X114589050Y-104063410D01*
X114540000Y-104058579D01*
X114060000Y-104058579D01*
X114010950Y-104063410D01*
X113963785Y-104077717D01*
X113920318Y-104100951D01*
X113882219Y-104132219D01*
X113850951Y-104170318D01*
X113827717Y-104213785D01*
X113813410Y-104260950D01*
X113808579Y-104310000D01*
X113808579Y-104990000D01*
X113813410Y-105039050D01*
X113827717Y-105086215D01*
X113850951Y-105129682D01*
X113865015Y-105146818D01*
X113799773Y-105166609D01*
X113709315Y-105214959D01*
X113630028Y-105280028D01*
X113564959Y-105359315D01*
X113516609Y-105449773D01*
X113486835Y-105547925D01*
X113476781Y-105650000D01*
X109391421Y-105650000D01*
X109391421Y-105449999D01*
X109382939Y-105363882D01*
X109377630Y-105346382D01*
X111256513Y-103467500D01*
X113808579Y-103467500D01*
X113808579Y-103560000D01*
X113813986Y-103614903D01*
X113830001Y-103667695D01*
X113856007Y-103716349D01*
X113891005Y-103758995D01*
X113933651Y-103793993D01*
X113982305Y-103819999D01*
X114035097Y-103836014D01*
X114090000Y-103841421D01*
X114810000Y-103841421D01*
X114864903Y-103836014D01*
X114917695Y-103819999D01*
X114966349Y-103793993D01*
X115008995Y-103758995D01*
X115043993Y-103716349D01*
X115069999Y-103667695D01*
X115086014Y-103614903D01*
X115091421Y-103560000D01*
X115091421Y-102838659D01*
X115938476Y-101991605D01*
X115950593Y-101981661D01*
X115990269Y-101933315D01*
X116019751Y-101878158D01*
X116037906Y-101818309D01*
X116044037Y-101756068D01*
X116042500Y-101740465D01*
X116042500Y-100366421D01*
X116135000Y-100366421D01*
X116189903Y-100361014D01*
X116242695Y-100344999D01*
X116291349Y-100318993D01*
X116333995Y-100283995D01*
X116368993Y-100241349D01*
X116394999Y-100192695D01*
X116411014Y-100139903D01*
X116416421Y-100085000D01*
X116416421Y-99635000D01*
X116633579Y-99635000D01*
X116633579Y-100115000D01*
X116638410Y-100164050D01*
X116652717Y-100211215D01*
X116675951Y-100254682D01*
X116707219Y-100292781D01*
X116745318Y-100324049D01*
X116788785Y-100347283D01*
X116835950Y-100361590D01*
X116885000Y-100366421D01*
X117565000Y-100366421D01*
X117614050Y-100361590D01*
X117661215Y-100347283D01*
X117704682Y-100324049D01*
X117721818Y-100309985D01*
X117741609Y-100375227D01*
X117789959Y-100465685D01*
X117855028Y-100544972D01*
X117934315Y-100610041D01*
X118024773Y-100658391D01*
X118122925Y-100688165D01*
X118225000Y-100698219D01*
X118353525Y-100695700D01*
X118483700Y-100565525D01*
X118483700Y-99966300D01*
X118966300Y-99966300D01*
X118966300Y-100565525D01*
X119096475Y-100695700D01*
X119225000Y-100698219D01*
X119327075Y-100688165D01*
X119425227Y-100658391D01*
X119515685Y-100610041D01*
X119594972Y-100544972D01*
X119660041Y-100465685D01*
X119708391Y-100375227D01*
X119738165Y-100277075D01*
X119748219Y-100175000D01*
X119745700Y-100096475D01*
X119615525Y-99966300D01*
X118966300Y-99966300D01*
X118483700Y-99966300D01*
X118463700Y-99966300D01*
X118463700Y-99483700D01*
X118483700Y-99483700D01*
X118483700Y-98884475D01*
X118966300Y-98884475D01*
X118966300Y-99483700D01*
X119615525Y-99483700D01*
X119745700Y-99353525D01*
X119748219Y-99275000D01*
X119738165Y-99172925D01*
X119708391Y-99074773D01*
X119660041Y-98984315D01*
X119594972Y-98905028D01*
X119515685Y-98839959D01*
X119425227Y-98791609D01*
X119327075Y-98761835D01*
X119225000Y-98751781D01*
X119096475Y-98754300D01*
X118966300Y-98884475D01*
X118483700Y-98884475D01*
X118353525Y-98754300D01*
X118225000Y-98751781D01*
X118122925Y-98761835D01*
X118024773Y-98791609D01*
X117934315Y-98839959D01*
X117855028Y-98905028D01*
X117789959Y-98984315D01*
X117741609Y-99074773D01*
X117711835Y-99172925D01*
X117701781Y-99275000D01*
X117704300Y-99353525D01*
X117834473Y-99483698D01*
X117764512Y-99483698D01*
X117742781Y-99457219D01*
X117704682Y-99425951D01*
X117661215Y-99402717D01*
X117614050Y-99388410D01*
X117565000Y-99383579D01*
X116885000Y-99383579D01*
X116835950Y-99388410D01*
X116788785Y-99402717D01*
X116745318Y-99425951D01*
X116707219Y-99457219D01*
X116675951Y-99495318D01*
X116652717Y-99538785D01*
X116638410Y-99585950D01*
X116633579Y-99635000D01*
X116416421Y-99635000D01*
X116416421Y-99365000D01*
X116411014Y-99310097D01*
X116394999Y-99257305D01*
X116368993Y-99208651D01*
X116333995Y-99166005D01*
X116291349Y-99131007D01*
X116242695Y-99105001D01*
X116189903Y-99088986D01*
X116135000Y-99083579D01*
X115315000Y-99083579D01*
X115260097Y-99088986D01*
X115207305Y-99105001D01*
X115158651Y-99131007D01*
X115116005Y-99166005D01*
X115081007Y-99208651D01*
X115055001Y-99257305D01*
X115038986Y-99310097D01*
X115033579Y-99365000D01*
X115033579Y-99990691D01*
X115032056Y-99989440D01*
X115029860Y-99988267D01*
X115027478Y-99987544D01*
X115025000Y-99987300D01*
X113000000Y-99987300D01*
X112997522Y-99987544D01*
X112995140Y-99988267D01*
X112992944Y-99989440D01*
X112991020Y-99991020D01*
X112989440Y-99992944D01*
X112988267Y-99995140D01*
X112987544Y-99997522D01*
X112987300Y-100000000D01*
X112987300Y-102025000D01*
X112987544Y-102027478D01*
X112988267Y-102029860D01*
X112989440Y-102032056D01*
X112991020Y-102033980D01*
X112992944Y-102035560D01*
X112995140Y-102036733D01*
X112997522Y-102037456D01*
X113000000Y-102037700D01*
X114994355Y-102037700D01*
X114573477Y-102458579D01*
X114090000Y-102458579D01*
X114035097Y-102463986D01*
X113982305Y-102480001D01*
X113933651Y-102506007D01*
X113891005Y-102541005D01*
X113856007Y-102583651D01*
X113830001Y-102632305D01*
X113813986Y-102685097D01*
X113808579Y-102740000D01*
X113808579Y-102832500D01*
X111140596Y-102832500D01*
X111125000Y-102830964D01*
X111109404Y-102832500D01*
X111062759Y-102837094D01*
X111002910Y-102855249D01*
X110947753Y-102884731D01*
X110899407Y-102924407D01*
X110889465Y-102936522D01*
X108817409Y-105008579D01*
X108049999Y-105008579D01*
X107963882Y-105017061D01*
X107881075Y-105042180D01*
X107804759Y-105082972D01*
X107737868Y-105137868D01*
X107682972Y-105204759D01*
X107642180Y-105281075D01*
X107617061Y-105363882D01*
X107608579Y-105449999D01*
X102390723Y-105449999D01*
X102418773Y-105421949D01*
X102534131Y-105249303D01*
X102613591Y-105057470D01*
X102654100Y-104853820D01*
X102654100Y-104646180D01*
X102613591Y-104442530D01*
X102534131Y-104250697D01*
X102418773Y-104078051D01*
X102271949Y-103931227D01*
X102099303Y-103815869D01*
X101907470Y-103736409D01*
X101703820Y-103695900D01*
X101496180Y-103695900D01*
X101292530Y-103736409D01*
X101100697Y-103815869D01*
X100928051Y-103931227D01*
X100781227Y-104078051D01*
X100665869Y-104250697D01*
X100586409Y-104442530D01*
X100545900Y-104646180D01*
X100108975Y-104646180D01*
X100098848Y-104543360D01*
X100038573Y-104344662D01*
X99940693Y-104161540D01*
X99808968Y-104001032D01*
X99648460Y-103869307D01*
X99465338Y-103771427D01*
X99266640Y-103711152D01*
X99111782Y-103695900D01*
X99008218Y-103695900D01*
X98853360Y-103711152D01*
X98654662Y-103771427D01*
X98471540Y-103869307D01*
X98311032Y-104001032D01*
X98179307Y-104161540D01*
X98081427Y-104344662D01*
X98021152Y-104543360D01*
X98000800Y-104750000D01*
X97579200Y-104750000D01*
X97558848Y-104543360D01*
X97498573Y-104344662D01*
X97455303Y-104263709D01*
X98301513Y-103417500D01*
X107608579Y-103417500D01*
X107608579Y-104050001D01*
X107617061Y-104136118D01*
X107642180Y-104218925D01*
X107682972Y-104295241D01*
X107737868Y-104362132D01*
X107804759Y-104417028D01*
X107881075Y-104457820D01*
X107963882Y-104482939D01*
X108049999Y-104491421D01*
X108950001Y-104491421D01*
X109036118Y-104482939D01*
X109118925Y-104457820D01*
X109195241Y-104417028D01*
X109262132Y-104362132D01*
X109317028Y-104295241D01*
X109357820Y-104218925D01*
X109382939Y-104136118D01*
X109391421Y-104050001D01*
X109391421Y-103399999D01*
X109382939Y-103313882D01*
X109357820Y-103231075D01*
X109317028Y-103154759D01*
X109262132Y-103087868D01*
X109195241Y-103032972D01*
X109118925Y-102992180D01*
X109036118Y-102967061D01*
X108950001Y-102958579D01*
X108182591Y-102958579D01*
X108110542Y-102886530D01*
X108100593Y-102874407D01*
X108052247Y-102834731D01*
X107997090Y-102805249D01*
X107937241Y-102787094D01*
X107890596Y-102782500D01*
X107875000Y-102780964D01*
X107859404Y-102782500D01*
X98185592Y-102782500D01*
X98169999Y-102780964D01*
X98154406Y-102782500D01*
X98154404Y-102782500D01*
X98107759Y-102787094D01*
X98047910Y-102805249D01*
X97992753Y-102834731D01*
X97944407Y-102874407D01*
X97934463Y-102886524D01*
X97006291Y-103814697D01*
X96925338Y-103771427D01*
X96726640Y-103711152D01*
X96571782Y-103695900D01*
X96468218Y-103695900D01*
X96313360Y-103711152D01*
X96114662Y-103771427D01*
X96033709Y-103814697D01*
X93342500Y-101123488D01*
X93342500Y-100891421D01*
X93350001Y-100891421D01*
X93436118Y-100882939D01*
X93518925Y-100857820D01*
X93595241Y-100817028D01*
X93662132Y-100762132D01*
X93717028Y-100695241D01*
X93757820Y-100618925D01*
X93782939Y-100536118D01*
X93791421Y-100450001D01*
X93791421Y-99549999D01*
X93782939Y-99463882D01*
X93757820Y-99381075D01*
X93717028Y-99304759D01*
X93662132Y-99237868D01*
X93595241Y-99182972D01*
X93518925Y-99142180D01*
X93436118Y-99117061D01*
X93350001Y-99108579D01*
X92699999Y-99108579D01*
X92613882Y-99117061D01*
X92531075Y-99142180D01*
X92454759Y-99182972D01*
X92387868Y-99237868D01*
X92332972Y-99304759D01*
X92292180Y-99381075D01*
X92267061Y-99463882D01*
X92258579Y-99549999D01*
X91741421Y-99549999D01*
X91732939Y-99463882D01*
X91707820Y-99381075D01*
X91667028Y-99304759D01*
X91612132Y-99237868D01*
X91545241Y-99182972D01*
X91477336Y-99146676D01*
X91631513Y-98992500D01*
X96243488Y-98992500D01*
X96772322Y-99521335D01*
X96772327Y-99521339D01*
X96808579Y-99557591D01*
X96808579Y-100160000D01*
X96813986Y-100214903D01*
X96830001Y-100267695D01*
X96856007Y-100316349D01*
X96891005Y-100358995D01*
X96933651Y-100393993D01*
X96982305Y-100419999D01*
X97035097Y-100436014D01*
X97090000Y-100441421D01*
X97910000Y-100441421D01*
X97964903Y-100436014D01*
X98017695Y-100419999D01*
X98066349Y-100393993D01*
X98108995Y-100358995D01*
X98143993Y-100316349D01*
X98169999Y-100267695D01*
X98186014Y-100214903D01*
X98191421Y-100160000D01*
X98191421Y-99710000D01*
X98408579Y-99710000D01*
X98408579Y-100190000D01*
X98413410Y-100239050D01*
X98427717Y-100286215D01*
X98450951Y-100329682D01*
X98482219Y-100367781D01*
X98520318Y-100399049D01*
X98563785Y-100422283D01*
X98610950Y-100436590D01*
X98660000Y-100441421D01*
X99340000Y-100441421D01*
X99389050Y-100436590D01*
X99436215Y-100422283D01*
X99479682Y-100399049D01*
X99496818Y-100384985D01*
X99516609Y-100450227D01*
X99564959Y-100540685D01*
X99630028Y-100619972D01*
X99709315Y-100685041D01*
X99799773Y-100733391D01*
X99897925Y-100763165D01*
X100000000Y-100773219D01*
X100128525Y-100770700D01*
X100258700Y-100640525D01*
X100258700Y-100041300D01*
X100741300Y-100041300D01*
X100741300Y-100640525D01*
X100871475Y-100770700D01*
X101000000Y-100773219D01*
X101102075Y-100763165D01*
X101200227Y-100733391D01*
X101290685Y-100685041D01*
X101369972Y-100619972D01*
X101435041Y-100540685D01*
X101483391Y-100450227D01*
X101513165Y-100352075D01*
X101523219Y-100250000D01*
X101520700Y-100171475D01*
X101390525Y-100041300D01*
X100741300Y-100041300D01*
X100258700Y-100041300D01*
X100238700Y-100041300D01*
X100238700Y-99558700D01*
X100258700Y-99558700D01*
X100258700Y-98959475D01*
X100741300Y-98959475D01*
X100741300Y-99558700D01*
X101390525Y-99558700D01*
X101520700Y-99428525D01*
X101523219Y-99350000D01*
X101513165Y-99247925D01*
X101483391Y-99149773D01*
X101435041Y-99059315D01*
X101369972Y-98980028D01*
X101290685Y-98914959D01*
X101200227Y-98866609D01*
X101102075Y-98836835D01*
X101000000Y-98826781D01*
X100871475Y-98829300D01*
X100741300Y-98959475D01*
X100258700Y-98959475D01*
X100128525Y-98829300D01*
X100000000Y-98826781D01*
X99897925Y-98836835D01*
X99799773Y-98866609D01*
X99709315Y-98914959D01*
X99630028Y-98980028D01*
X99564959Y-99059315D01*
X99516609Y-99149773D01*
X99486835Y-99247925D01*
X99476781Y-99350000D01*
X99479300Y-99428525D01*
X99609473Y-99558698D01*
X99539512Y-99558698D01*
X99517781Y-99532219D01*
X99479682Y-99500951D01*
X99436215Y-99477717D01*
X99389050Y-99463410D01*
X99340000Y-99458579D01*
X98660000Y-99458579D01*
X98610950Y-99463410D01*
X98563785Y-99477717D01*
X98520318Y-99500951D01*
X98482219Y-99532219D01*
X98450951Y-99570318D01*
X98427717Y-99613785D01*
X98413410Y-99660950D01*
X98408579Y-99710000D01*
X98191421Y-99710000D01*
X98191421Y-99440000D01*
X98186014Y-99385097D01*
X98169999Y-99332305D01*
X98143993Y-99283651D01*
X98108995Y-99241005D01*
X98066349Y-99206007D01*
X98017695Y-99180001D01*
X97964903Y-99163986D01*
X97910000Y-99158579D01*
X97307591Y-99158579D01*
X97221339Y-99072327D01*
X97221335Y-99072322D01*
X96610542Y-98461530D01*
X96600593Y-98449407D01*
X96552247Y-98409731D01*
X96497090Y-98380249D01*
X96437241Y-98362094D01*
X96390596Y-98357500D01*
X96375000Y-98355964D01*
X96359404Y-98357500D01*
X91515592Y-98357500D01*
X91499999Y-98355964D01*
X91484406Y-98357500D01*
X91484404Y-98357500D01*
X91437759Y-98362094D01*
X91377910Y-98380249D01*
X91322753Y-98409731D01*
X91274407Y-98449407D01*
X91264463Y-98461524D01*
X90761525Y-98964463D01*
X90749408Y-98974407D01*
X90709732Y-99022753D01*
X90694285Y-99051653D01*
X90680249Y-99077911D01*
X90670946Y-99108579D01*
X90649999Y-99108579D01*
X90563882Y-99117061D01*
X90481075Y-99142180D01*
X90404759Y-99182972D01*
X90337868Y-99237868D01*
X90282972Y-99304759D01*
X90242180Y-99381075D01*
X90217061Y-99463882D01*
X90208579Y-99549999D01*
X90208579Y-100450001D01*
X90217061Y-100536118D01*
X90242180Y-100618925D01*
X90282972Y-100695241D01*
X90337868Y-100762132D01*
X90404759Y-100817028D01*
X90481075Y-100857820D01*
X90563882Y-100882939D01*
X90649999Y-100891421D01*
X91207500Y-100891421D01*
X91207501Y-105693486D01*
X90718488Y-106182500D01*
X90516421Y-106182500D01*
X90516421Y-106090000D01*
X90511014Y-106035097D01*
X90494999Y-105982305D01*
X90468993Y-105933651D01*
X90433995Y-105891005D01*
X90391349Y-105856007D01*
X90342695Y-105830001D01*
X90289903Y-105813986D01*
X90235000Y-105808579D01*
X89515000Y-105808579D01*
X89460097Y-105813986D01*
X89407305Y-105830001D01*
X89358651Y-105856007D01*
X89316005Y-105891005D01*
X89281007Y-105933651D01*
X89255001Y-105982305D01*
X89238986Y-106035097D01*
X89233579Y-106090000D01*
X89032700Y-106090000D01*
X89032700Y-105990000D01*
X89032456Y-105987522D01*
X89031733Y-105985140D01*
X89030560Y-105982944D01*
X89028980Y-105981020D01*
X89027056Y-105979440D01*
X89024860Y-105978267D01*
X89022478Y-105977544D01*
X89020000Y-105977300D01*
X87037700Y-105977300D01*
X87037700Y-104037700D01*
X88905494Y-104037700D01*
X88911835Y-104102075D01*
X88941609Y-104200227D01*
X88989959Y-104290685D01*
X89055028Y-104369972D01*
X89134315Y-104435041D01*
X89224773Y-104483391D01*
X89322925Y-104513165D01*
X89425000Y-104523219D01*
X89503525Y-104520700D01*
X89633698Y-104390527D01*
X89633698Y-104460488D01*
X89607219Y-104482219D01*
X89575951Y-104520318D01*
X89552717Y-104563785D01*
X89538410Y-104610950D01*
X89533579Y-104660000D01*
X89533579Y-105340000D01*
X89538410Y-105389050D01*
X89552717Y-105436215D01*
X89575951Y-105479682D01*
X89607219Y-105517781D01*
X89645318Y-105549049D01*
X89688785Y-105572283D01*
X89735950Y-105586590D01*
X89785000Y-105591421D01*
X90265000Y-105591421D01*
X90314050Y-105586590D01*
X90361215Y-105572283D01*
X90404682Y-105549049D01*
X90442781Y-105517781D01*
X90474049Y-105479682D01*
X90497283Y-105436215D01*
X90511590Y-105389050D01*
X90516421Y-105340000D01*
X90516421Y-104660000D01*
X90511590Y-104610950D01*
X90497283Y-104563785D01*
X90474049Y-104520318D01*
X90459985Y-104503182D01*
X90525227Y-104483391D01*
X90615685Y-104435041D01*
X90694972Y-104369972D01*
X90760041Y-104290685D01*
X90808391Y-104200227D01*
X90838165Y-104102075D01*
X90848219Y-104000000D01*
X90845700Y-103871475D01*
X90715525Y-103741300D01*
X90116300Y-103741300D01*
X90116300Y-103761300D01*
X89633700Y-103761300D01*
X89633700Y-103741300D01*
X89613700Y-103741300D01*
X89613700Y-103258700D01*
X89633700Y-103258700D01*
X89633700Y-102609475D01*
X90116300Y-102609475D01*
X90116300Y-103258700D01*
X90715525Y-103258700D01*
X90845700Y-103128525D01*
X90848219Y-103000000D01*
X90838165Y-102897925D01*
X90808391Y-102799773D01*
X90760041Y-102709315D01*
X90694972Y-102630028D01*
X90615685Y-102564959D01*
X90525227Y-102516609D01*
X90427075Y-102486835D01*
X90325000Y-102476781D01*
X90246475Y-102479300D01*
X90116300Y-102609475D01*
X89633700Y-102609475D01*
X89503525Y-102479300D01*
X89425000Y-102476781D01*
X89322925Y-102486835D01*
X89224773Y-102516609D01*
X89134315Y-102564959D01*
X89055028Y-102630028D01*
X89037700Y-102651142D01*
X89037700Y-102000000D01*
X89037456Y-101997522D01*
X89036733Y-101995140D01*
X89035560Y-101992944D01*
X89033980Y-101991020D01*
X89032056Y-101989440D01*
X89029860Y-101988267D01*
X89027478Y-101987544D01*
X89025000Y-101987300D01*
X87000000Y-101987300D01*
X86997522Y-101987544D01*
X86995140Y-101988267D01*
X86992944Y-101989440D01*
X86991020Y-101991020D01*
X86989440Y-101992944D01*
X86988267Y-101995140D01*
X86987544Y-101997522D01*
X86987300Y-102000000D01*
X86987300Y-103987300D01*
X85012700Y-103987300D01*
X85012700Y-96012700D01*
X96987300Y-96012700D01*
X96987300Y-98000000D01*
M02*
